<svg width="884" height="808" viewBox="0 0 884 808" fill="none" xmlns="http://www.w3.org/2000/svg">
<path d="M1114.58 417.338C1114.58 503.317 1052.44 581.316 951.633 637.865C850.85 694.4 711.567 729.391 557.676 729.391C403.786 729.391 264.503 694.4 163.719 637.865C62.9113 581.316 0.776366 503.317 0.776366 417.338C0.776366 331.359 62.9113 253.36 163.719 196.811C264.503 140.276 403.786 105.285 557.676 105.285C711.567 105.285 850.85 140.276 951.633 196.811C1052.44 253.36 1114.58 331.359 1114.58 417.338Z" stroke="url(#paint0_linear_126_3182)" stroke-width="1.55273"/>
<path d="M929.435 518.133C929.435 569.961 892.861 617.082 833.296 651.305C773.759 685.511 691.441 706.7 600.459 706.7C509.476 706.7 427.158 685.511 367.621 651.305C308.056 617.082 271.482 569.961 271.482 518.133C271.482 466.304 308.056 419.183 367.621 384.961C427.158 350.755 509.476 329.565 600.459 329.565C691.441 329.565 773.759 350.755 833.296 384.961C892.861 419.183 929.435 466.304 929.435 518.133Z" fill="url(#paint1_radial_126_3182)" stroke="url(#paint2_linear_126_3182)" stroke-width="2.07031"/>
<ellipse cx="614.074" cy="589.536" rx="169.707" ry="95.1973" fill="url(#paint3_radial_126_3182)" fill-opacity="0.6"/>
<g filter="url(#filter0_d_126_3182)">
<path fill-rule="evenodd" clip-rule="evenodd" d="M614.072 684.734C732.916 684.734 829.258 632.997 829.258 569.176C829.258 505.355 732.916 453.618 614.072 453.618C495.228 453.618 398.885 505.355 398.885 569.176C398.885 632.997 495.228 684.734 614.072 684.734ZM614.072 684.733C707.799 684.733 783.779 642.112 783.779 589.536C783.779 536.96 707.799 494.338 614.072 494.338C520.346 494.338 444.366 536.96 444.366 589.536C444.366 642.112 520.346 684.733 614.072 684.733Z" fill="url(#paint4_radial_126_3182)" fill-opacity="0.6" shape-rendering="crispEdges"/>
</g>
<g filter="url(#filter1_d_126_3182)">
<path fill-rule="evenodd" clip-rule="evenodd" d="M614.073 695.036C783.83 695.036 921.445 617.84 921.445 522.615C921.445 427.389 783.83 350.194 614.073 350.194C444.316 350.194 306.701 427.389 306.701 522.615C306.701 617.84 444.316 695.036 614.073 695.036ZM614.072 684.732C732.916 684.732 829.258 632.995 829.258 569.174C829.258 505.354 732.916 453.616 614.072 453.616C495.228 453.616 398.885 505.354 398.885 569.174C398.885 632.995 495.228 684.732 614.072 684.732Z" fill="url(#paint5_radial_126_3182)" shape-rendering="crispEdges"/>
</g>
<path fill-rule="evenodd" clip-rule="evenodd" d="M615.028 680.08C691.425 679.792 753.198 644.962 753.198 602.039C753.198 558.937 690.909 523.996 614.073 523.996C537.236 523.996 474.947 558.937 474.947 602.039C474.947 644.964 536.726 679.795 613.128 680.08C552.844 679.795 504.131 652.293 504.131 618.409C504.131 584.348 553.354 556.736 614.074 556.736C674.794 556.736 724.017 584.348 724.017 618.409C724.017 652.292 675.308 679.792 615.028 680.08Z" fill="url(#paint6_radial_126_3182)"/>
<path d="M846.125 559.214C846.125 594.921 820.317 627.381 778.3 650.95C736.303 674.508 678.242 689.1 614.074 689.1C549.906 689.1 491.844 674.508 449.848 650.95C407.831 627.381 382.022 594.921 382.022 559.214C382.022 523.507 407.831 491.047 449.848 467.478C491.844 443.92 549.906 429.328 614.074 429.328C678.242 429.328 736.303 443.92 778.3 467.478C820.317 491.047 846.125 523.507 846.125 559.214Z" stroke="url(#paint7_linear_126_3182)" stroke-width="1.29394"/>
<rect width="2.31088" height="2.31088" transform="matrix(0.707082 0.707131 -0.707082 0.707131 346.954 555.942)" fill="#00FFF0"/>
<rect x="371.523" y="602.022" width="4.67319" height="4.67319" transform="rotate(45 371.523 602.022)" fill="#00FFF0"/>
<rect width="2.1717" height="2.1717" transform="matrix(-0.707107 -0.707107 -0.707107 0.707107 457.041 605.327)" fill="#00FFF0"/>
<rect x="421.147" y="646.5" width="2.31088" height="2.31088" transform="rotate(45 421.147 646.5)" fill="#00FFF0"/>
<rect width="2.31088" height="2.31088" transform="matrix(0.707131 0.707082 -0.707131 0.707082 295.995 550.46)" fill="#00FFF0"/>
<rect width="2.31088" height="2.31088" transform="matrix(0.707131 0.707082 -0.707131 0.707082 308.34 472.576)" fill="#00FFF0" fill-opacity="0.5"/>
<rect x="343.683" y="518.041" width="1.61507" height="1.61507" transform="rotate(45 343.683 518.041)" fill="#00FFF0" fill-opacity="0.5"/>
<rect x="323.981" y="509.965" width="3.0132" height="3.0132" transform="rotate(45 323.981 509.965)" fill="#00FFF0" fill-opacity="0.5"/>
<circle cx="651.02" cy="589.583" r="147.322" fill="url(#paint8_radial_126_3182)" fill-opacity="0.5"/>
<circle cx="651.022" cy="589.536" r="218.22" fill="url(#paint9_radial_126_3182)" fill-opacity="0.6"/>
<g filter="url(#filter2_d_126_3182)">
<ellipse cx="651.021" cy="657.419" rx="116.124" ry="72.7485" fill="url(#paint10_linear_126_3182)" fill-opacity="0.5" shape-rendering="crispEdges"/>
<path d="M766.628 657.419C766.628 677.265 753.786 695.311 732.859 708.421C711.939 721.527 683.007 729.65 651.021 729.65C619.036 729.65 590.104 721.527 569.184 708.421C548.257 695.311 535.415 677.265 535.415 657.419C535.415 637.572 548.257 619.527 569.184 606.416C590.104 593.311 619.036 585.188 651.021 585.188C683.007 585.188 711.939 593.311 732.859 606.416C753.786 619.527 766.628 637.572 766.628 657.419Z" stroke="url(#paint11_linear_126_3182)" stroke-opacity="0.6" stroke-width="1.03515" shape-rendering="crispEdges"/>
</g>
<circle cx="651.02" cy="589.584" r="147.322" fill="url(#paint12_radial_126_3182)"/>
<g filter="url(#filter3_d_126_3182)">
<ellipse cx="651.021" cy="613.942" rx="144.032" ry="84.2613" fill="url(#paint13_linear_126_3182)" fill-opacity="0.5" shape-rendering="crispEdges"/>
</g>
<g filter="url(#filter4_d_126_3182)">
<ellipse cx="651.021" cy="561.63" rx="142.567" ry="82.3127" fill="url(#paint14_linear_126_3182)" fill-opacity="0.5" shape-rendering="crispEdges"/>
<path d="M793.07 561.63C793.07 584.097 777.293 604.535 751.572 619.385C725.864 634.228 690.315 643.425 651.021 643.425C611.726 643.425 576.177 634.228 550.47 619.385C524.748 604.535 508.972 584.097 508.972 561.63C508.972 539.163 524.748 518.725 550.47 503.874C576.177 489.031 611.726 479.835 651.021 479.835C690.315 479.835 725.864 489.031 751.572 503.874C777.293 518.725 793.07 539.163 793.07 561.63Z" stroke="url(#paint15_linear_126_3182)" stroke-opacity="0.6" stroke-width="1.03515" shape-rendering="crispEdges"/>
</g>
<g filter="url(#filter5_d_126_3182)">
<ellipse cx="651.022" cy="494.287" rx="68.8574" ry="46.6703" fill="url(#paint16_linear_126_3182)" fill-opacity="0.5" shape-rendering="crispEdges"/>
</g>
<circle cx="651.02" cy="589.583" r="109.124" fill="url(#paint17_radial_126_3182)"/>
<g filter="url(#filter6_d_126_3182)">
<path d="M761.129 519.124C761.129 538.636 748.893 556.37 728.964 569.252C709.04 582.131 681.483 590.113 651.019 590.113C620.555 590.113 592.999 582.131 573.075 569.252C553.145 556.37 540.909 538.636 540.909 519.124C540.909 499.612 553.145 481.878 573.075 468.996C592.999 456.117 620.555 448.135 651.019 448.135C681.483 448.135 709.04 456.117 728.964 468.996C748.893 481.878 761.129 499.612 761.129 519.124Z" stroke="url(#paint18_linear_126_3182)" stroke-opacity="0.6" stroke-width="1.03515" shape-rendering="crispEdges"/>
</g>
<g filter="url(#filter7_d_126_3182)">
<path d="M793.07 561.63C793.07 584.097 777.293 604.535 751.572 619.385C725.864 634.228 690.315 643.425 651.021 643.425C611.726 643.425 576.177 634.228 550.47 619.385C524.748 604.535 508.972 584.097 508.972 561.63C508.972 539.163 524.748 518.725 550.47 503.874C576.177 489.031 611.726 479.835 651.021 479.835C690.315 479.835 725.864 489.031 751.572 503.874C777.293 518.725 793.07 539.163 793.07 561.63Z" stroke="url(#paint19_linear_126_3182)" stroke-opacity="0.6" stroke-width="1.03515" shape-rendering="crispEdges"/>
</g>
<g filter="url(#filter8_d_126_3182)">
<path d="M794.535 613.942C794.535 636.951 778.59 657.876 752.605 673.077C726.633 688.272 690.719 697.686 651.021 697.686C611.323 697.686 575.409 688.272 549.437 673.077C523.452 657.876 507.507 636.951 507.507 613.942C507.507 590.934 523.452 570.009 549.437 554.807C575.409 539.613 611.323 530.199 651.021 530.199C690.719 530.199 726.633 539.613 752.605 554.807C778.59 570.009 794.535 590.934 794.535 613.942Z" stroke="url(#paint20_linear_126_3182)" stroke-opacity="0.6" stroke-width="1.03515" shape-rendering="crispEdges"/>
</g>
<g filter="url(#filter9_d_126_3182)">
<path d="M719.362 494.287C719.362 506.952 711.789 518.478 699.422 526.86C687.057 535.24 669.947 540.44 651.022 540.44C632.098 540.44 614.988 535.24 602.623 526.86C590.256 518.478 582.683 506.952 582.683 494.287C582.683 481.623 590.256 470.097 602.623 461.715C614.988 453.335 632.098 448.135 651.022 448.135C669.947 448.135 687.057 453.335 699.422 461.715C711.789 470.097 719.362 481.623 719.362 494.287Z" stroke="url(#paint21_linear_126_3182)" stroke-opacity="0.6" stroke-width="1.03515" shape-rendering="crispEdges"/>
</g>
<circle cx="420.092" cy="494.339" r="83.6074" fill="url(#paint22_radial_126_3182)" fill-opacity="0.6"/>
<g filter="url(#filter10_d_126_3182)">
<ellipse cx="409.812" cy="517.549" rx="52.5358" ry="32.9122" fill="url(#paint23_linear_126_3182)" fill-opacity="0.5" shape-rendering="crispEdges"/>
<path d="M461.83 517.549C461.83 526.395 456.105 534.481 446.686 540.382C437.273 546.279 424.238 549.943 409.812 549.943C395.386 549.943 382.351 546.279 372.939 540.382C363.519 534.481 357.794 526.395 357.794 517.549C357.794 508.702 363.519 500.616 372.939 494.715C382.351 488.818 395.386 485.154 409.812 485.154C424.238 485.154 437.273 488.818 446.686 494.715C456.105 500.616 461.83 508.702 461.83 517.549Z" stroke="url(#paint24_linear_126_3182)" stroke-opacity="0.6" stroke-width="1.03515" shape-rendering="crispEdges"/>
</g>
<circle cx="409.813" cy="486.859" r="66.65" fill="url(#paint25_radial_126_3182)"/>
<g filter="url(#filter11_d_126_3182)">
<ellipse cx="409.812" cy="497.879" rx="65.1615" ry="38.1208" fill="url(#paint26_linear_126_3182)" fill-opacity="0.5" shape-rendering="crispEdges"/>
<path d="M474.456 497.879C474.456 508.146 467.339 517.536 455.627 524.387C443.928 531.232 427.731 535.482 409.812 535.482C391.894 535.482 375.697 531.232 363.998 524.387C352.286 517.536 345.168 508.146 345.168 497.879C345.168 487.612 352.286 478.222 363.998 471.37C375.697 464.526 391.894 460.276 409.812 460.276C427.731 460.276 443.928 464.526 455.627 471.37C467.339 478.222 474.456 487.612 474.456 497.879Z" stroke="url(#paint27_linear_126_3182)" stroke-opacity="0.6" stroke-width="1.03515" shape-rendering="crispEdges"/>
</g>
<circle cx="409.814" cy="486.859" r="49.369" fill="url(#paint28_radial_126_3182)"/>
<circle cx="409.814" cy="486.859" r="49.369" fill="url(#paint29_radial_126_3182)"/>
<g filter="url(#filter12_d_126_3182)">
<ellipse cx="409.815" cy="474.213" rx="64.4987" ry="37.2392" fill="url(#paint30_linear_126_3182)" fill-opacity="0.5" shape-rendering="crispEdges"/>
<path d="M473.796 474.213C473.796 484.233 466.757 493.403 455.163 500.097C443.583 506.783 427.551 510.934 409.815 510.934C392.078 510.934 376.046 506.783 364.466 500.097C352.872 493.403 345.833 484.233 345.833 474.213C345.833 464.193 352.872 455.023 364.466 448.329C376.046 441.643 392.078 437.491 409.815 437.491C427.551 437.491 443.583 441.643 455.163 448.329C466.757 455.023 473.796 464.193 473.796 474.213Z" stroke="url(#paint31_linear_126_3182)" stroke-opacity="0.6" stroke-width="1.03515" shape-rendering="crispEdges"/>
</g>
<g filter="url(#filter13_d_126_3182)">
<ellipse cx="409.812" cy="454.983" rx="50.0491" ry="32.3504" fill="url(#paint32_linear_126_3182)" fill-opacity="0.5" shape-rendering="crispEdges"/>
<path d="M459.343 454.983C459.343 463.682 453.888 471.628 444.921 477.424C435.959 483.216 423.548 486.816 409.812 486.816C396.076 486.816 383.664 483.216 374.703 477.424C365.736 471.628 360.28 463.682 360.28 454.983C360.28 446.284 365.736 438.339 374.703 432.543C383.664 426.75 396.076 423.15 409.812 423.15C423.548 423.15 435.959 426.75 444.921 432.543C453.888 438.339 459.343 446.284 459.343 454.983Z" stroke="url(#paint33_linear_126_3182)" stroke-opacity="0.6" stroke-width="1.03515" shape-rendering="crispEdges"/>
</g>
<g filter="url(#filter14_d_126_3182)">
<ellipse cx="409.814" cy="443.747" rx="31.1518" ry="21.1141" fill="url(#paint34_linear_126_3182)" fill-opacity="0.5" shape-rendering="crispEdges"/>
<path d="M440.448 443.747C440.448 449.354 437.095 454.491 431.551 458.248C426.01 462.004 418.327 464.343 409.814 464.343C401.301 464.343 393.618 462.004 388.077 458.248C382.533 454.491 379.18 449.354 379.18 443.747C379.18 438.139 382.533 433.003 388.077 429.245C393.618 425.49 401.301 423.15 409.814 423.15C418.327 423.15 426.01 425.49 431.551 429.245C437.095 433.003 440.448 438.139 440.448 443.747Z" stroke="url(#paint35_linear_126_3182)" stroke-opacity="0.6" stroke-width="1.03515" shape-rendering="crispEdges"/>
</g>
<circle cx="409.813" cy="486.859" r="66.65" fill="url(#paint36_radial_126_3182)" fill-opacity="0.9"/>
<rect x="239.439" y="249.723" width="2.73802" height="2.73802" transform="rotate(45 239.439 249.723)" fill="#0066FF" fill-opacity="0.5"/>
<rect x="268.51" y="304.251" width="5.52977" height="5.52977" transform="rotate(45 268.51 304.251)" fill="#0066FF" fill-opacity="0.5"/>
<rect width="2.57312" height="2.57312" transform="matrix(-0.707129 -0.707085 -0.707129 0.707085 369.703 308.161)" fill="#0066FF" fill-opacity="0.5"/>
<rect x="327.231" y="356.879" width="2.73802" height="2.73802" transform="rotate(45 327.231 356.879)" fill="#0066FF" fill-opacity="0.5"/>
<rect x="179.138" y="243.236" width="2.73802" height="2.73802" transform="rotate(45 179.138 243.236)" fill="#0066FF" fill-opacity="0.5"/>
<rect x="193.746" y="151.075" width="2.73802" height="2.73802" transform="rotate(45 193.746 151.075)" fill="#0500FF" fill-opacity="0.5"/>
<rect width="1.9111" height="1.9111" transform="matrix(0.707077 0.707136 -0.707077 0.707136 235.566 204.874)" fill="#0500FF" fill-opacity="0.5"/>
<rect x="212.256" y="195.318" width="3.56551" height="3.56551" transform="rotate(45 212.256 195.318)" fill="#0500FF" fill-opacity="0.5"/>
<rect x="87.3882" y="562.598" width="3.80692" height="3.80692" transform="rotate(45 87.3882 562.598)" fill="#0066FF" fill-opacity="0.5"/>
<rect width="7.68854" height="7.68854" transform="matrix(0.707114 0.707099 -0.707114 0.707099 127.807 638.412)" fill="#0066FF" fill-opacity="0.5"/>
<rect width="3.57764" height="3.57764" transform="matrix(-0.707107 -0.707107 -0.707107 0.707107 268.506 643.849)" fill="#0066FF" fill-opacity="0.5"/>
<rect width="3.80692" height="3.80692" transform="matrix(0.707122 0.707092 -0.707122 0.707092 209.453 711.588)" fill="#0066FF" fill-opacity="0.5"/>
<rect width="3.80692" height="3.80692" transform="matrix(0.707122 0.707092 -0.707122 0.707092 3.54492 553.578)" fill="#0066FF" fill-opacity="0.5"/>
<rect x="23.856" y="425.439" width="3.80692" height="3.80692" transform="rotate(45 23.856 425.439)" fill="#0500FF" fill-opacity="0.5"/>
<rect x="82.0044" y="500.241" width="2.66065" height="2.66065" transform="rotate(45 82.0044 500.241)" fill="#0500FF" fill-opacity="0.5"/>
<rect width="4.95745" height="4.95745" transform="matrix(0.707118 0.707095 -0.707118 0.707095 49.5918 486.954)" fill="#0500FF" fill-opacity="0.5"/>
<rect x="789.24" y="381.921" width="3.25833" height="3.25833" transform="rotate(-32.8977 789.24 381.921)" fill="#0500FF" fill-opacity="0.5"/>
<rect width="2.27427" height="2.27427" transform="matrix(0.839624 -0.543168 0.543113 0.83966 862.274 346.681)" fill="#0500FF" fill-opacity="0.5"/>
<rect width="4.24306" height="4.24306" transform="matrix(0.839652 -0.543126 0.543155 0.839632 845.337 371.421)" fill="#0500FF" fill-opacity="0.5"/>
<rect x="735.255" y="250.855" width="6.58059" height="6.5806" transform="rotate(9.69009 735.255 250.855)" fill="#0066FF" fill-opacity="0.5"/>
<rect width="3.06209" height="3.06209" transform="matrix(-0.985732 -0.168319 -0.168319 0.985733 836.216 185.047)" fill="#0066FF" fill-opacity="0.5"/>
<rect x="828.482" y="261.573" width="3.25833" height="3.25833" transform="rotate(9.69009 828.482 261.573)" fill="#0066FF" fill-opacity="0.5"/>
<rect x="606.5" y="253.077" width="3.25833" height="3.25833" transform="rotate(9.69009 606.5 253.077)" fill="#0066FF" fill-opacity="0.5"/>
<rect x="557.293" y="153.533" width="3.25833" height="3.25833" transform="rotate(9.69009 557.293 153.533)" fill="#0500FF" fill-opacity="0.5"/>
<rect width="2.27427" height="2.27427" transform="matrix(0.985735 0.168305 -0.168333 0.98573 634.911 177.01)" fill="#0500FF" fill-opacity="0.5"/>
<rect x="605.701" y="183.764" width="4.24306" height="4.24306" transform="rotate(9.69009 605.701 183.764)" fill="#0500FF" fill-opacity="0.5"/>
<defs>
<filter id="filter0_d_126_3182" x="396.297" y="445.854" width="445.9" height="246.643" filterUnits="userSpaceOnUse" color-interpolation-filters="sRGB">
<feFlood flood-opacity="0" result="BackgroundImageFix"/>
<feColorMatrix in="SourceAlpha" type="matrix" values="0 0 0 0 0 0 0 0 0 0 0 0 0 0 0 0 0 0 127 0" result="hardAlpha"/>
<feOffset dx="5.17577"/>
<feGaussianBlur stdDeviation="3.88183"/>
<feComposite in2="hardAlpha" operator="out"/>
<feColorMatrix type="matrix" values="0 0 0 0 0.119531 0 0 0 0 0.163828 0 0 0 0 0.5625 0 0 0 0.1 0"/>
<feBlend mode="normal" in2="BackgroundImageFix" result="effect1_dropShadow_126_3182"/>
<feBlend mode="normal" in="SourceGraphic" in2="effect1_dropShadow_126_3182" result="shape"/>
</filter>
<filter id="filter1_d_126_3182" x="304.113" y="341.913" width="630.271" height="360.369" filterUnits="userSpaceOnUse" color-interpolation-filters="sRGB">
<feFlood flood-opacity="0" result="BackgroundImageFix"/>
<feColorMatrix in="SourceAlpha" type="matrix" values="0 0 0 0 0 0 0 0 0 0 0 0 0 0 0 0 0 0 127 0" result="hardAlpha"/>
<feOffset dx="5.17577" dy="-0.517577"/>
<feGaussianBlur stdDeviation="3.88183"/>
<feComposite in2="hardAlpha" operator="out"/>
<feColorMatrix type="matrix" values="0 0 0 0 0.119531 0 0 0 0 0.163828 0 0 0 0 0.5625 0 0 0 0.1 0"/>
<feBlend mode="normal" in2="BackgroundImageFix" result="effect1_dropShadow_126_3182"/>
<feBlend mode="normal" in="SourceGraphic" in2="effect1_dropShadow_126_3182" result="shape"/>
</filter>
<filter id="filter2_d_126_3182" x="528.169" y="577.942" width="247.775" height="161.024" filterUnits="userSpaceOnUse" color-interpolation-filters="sRGB">
<feFlood flood-opacity="0" result="BackgroundImageFix"/>
<feColorMatrix in="SourceAlpha" type="matrix" values="0 0 0 0 0 0 0 0 0 0 0 0 0 0 0 0 0 0 127 0" result="hardAlpha"/>
<feOffset dx="1.03515" dy="1.03515"/>
<feGaussianBlur stdDeviation="3.88183"/>
<feComposite in2="hardAlpha" operator="out"/>
<feColorMatrix type="matrix" values="0 0 0 0 0.440043 0 0 0 0 0.20092 0 0 0 0 0.679167 0 0 0 0.2 0"/>
<feBlend mode="normal" in2="BackgroundImageFix" result="effect1_dropShadow_126_3182"/>
<feBlend mode="normal" in="SourceGraphic" in2="effect1_dropShadow_126_3182" result="shape"/>
</filter>
<filter id="filter3_d_126_3182" x="500.261" y="522.953" width="303.591" height="184.05" filterUnits="userSpaceOnUse" color-interpolation-filters="sRGB">
<feFlood flood-opacity="0" result="BackgroundImageFix"/>
<feColorMatrix in="SourceAlpha" type="matrix" values="0 0 0 0 0 0 0 0 0 0 0 0 0 0 0 0 0 0 127 0" result="hardAlpha"/>
<feOffset dx="1.03515" dy="1.03515"/>
<feGaussianBlur stdDeviation="3.88183"/>
<feComposite in2="hardAlpha" operator="out"/>
<feColorMatrix type="matrix" values="0 0 0 0 0.440043 0 0 0 0 0.20092 0 0 0 0 0.679167 0 0 0 0.2 0"/>
<feBlend mode="normal" in2="BackgroundImageFix" result="effect1_dropShadow_126_3182"/>
<feBlend mode="normal" in="SourceGraphic" in2="effect1_dropShadow_126_3182" result="shape"/>
</filter>
<filter id="filter4_d_126_3182" x="501.726" y="472.589" width="300.661" height="180.153" filterUnits="userSpaceOnUse" color-interpolation-filters="sRGB">
<feFlood flood-opacity="0" result="BackgroundImageFix"/>
<feColorMatrix in="SourceAlpha" type="matrix" values="0 0 0 0 0 0 0 0 0 0 0 0 0 0 0 0 0 0 127 0" result="hardAlpha"/>
<feOffset dx="1.03515" dy="1.03515"/>
<feGaussianBlur stdDeviation="3.88183"/>
<feComposite in2="hardAlpha" operator="out"/>
<feColorMatrix type="matrix" values="0 0 0 0 0.440043 0 0 0 0 0.20092 0 0 0 0 0.679167 0 0 0 0.2 0"/>
<feBlend mode="normal" in2="BackgroundImageFix" result="effect1_dropShadow_126_3182"/>
<feBlend mode="normal" in="SourceGraphic" in2="effect1_dropShadow_126_3182" result="shape"/>
</filter>
<filter id="filter5_d_126_3182" x="575.437" y="440.889" width="153.242" height="108.868" filterUnits="userSpaceOnUse" color-interpolation-filters="sRGB">
<feFlood flood-opacity="0" result="BackgroundImageFix"/>
<feColorMatrix in="SourceAlpha" type="matrix" values="0 0 0 0 0 0 0 0 0 0 0 0 0 0 0 0 0 0 127 0" result="hardAlpha"/>
<feOffset dx="1.03515" dy="1.03515"/>
<feGaussianBlur stdDeviation="3.88183"/>
<feComposite in2="hardAlpha" operator="out"/>
<feColorMatrix type="matrix" values="0 0 0 0 0.440043 0 0 0 0 0.20092 0 0 0 0 0.679167 0 0 0 0.2 0"/>
<feBlend mode="normal" in2="BackgroundImageFix" result="effect1_dropShadow_126_3182"/>
<feBlend mode="normal" in="SourceGraphic" in2="effect1_dropShadow_126_3182" result="shape"/>
</filter>
<filter id="filter6_d_126_3182" x="533.663" y="440.889" width="236.783" height="158.541" filterUnits="userSpaceOnUse" color-interpolation-filters="sRGB">
<feFlood flood-opacity="0" result="BackgroundImageFix"/>
<feColorMatrix in="SourceAlpha" type="matrix" values="0 0 0 0 0 0 0 0 0 0 0 0 0 0 0 0 0 0 127 0" result="hardAlpha"/>
<feOffset dx="1.03515" dy="1.03515"/>
<feGaussianBlur stdDeviation="3.88183"/>
<feComposite in2="hardAlpha" operator="out"/>
<feColorMatrix type="matrix" values="0 0 0 0 0.440043 0 0 0 0 0.20092 0 0 0 0 0.679167 0 0 0 0.2 0"/>
<feBlend mode="normal" in2="BackgroundImageFix" result="effect1_dropShadow_126_3182"/>
<feBlend mode="normal" in="SourceGraphic" in2="effect1_dropShadow_126_3182" result="shape"/>
</filter>
<filter id="filter7_d_126_3182" x="501.726" y="472.589" width="300.661" height="180.153" filterUnits="userSpaceOnUse" color-interpolation-filters="sRGB">
<feFlood flood-opacity="0" result="BackgroundImageFix"/>
<feColorMatrix in="SourceAlpha" type="matrix" values="0 0 0 0 0 0 0 0 0 0 0 0 0 0 0 0 0 0 127 0" result="hardAlpha"/>
<feOffset dx="1.03515" dy="1.03515"/>
<feGaussianBlur stdDeviation="3.88183"/>
<feComposite in2="hardAlpha" operator="out"/>
<feColorMatrix type="matrix" values="0 0 0 0 0.440043 0 0 0 0 0.20092 0 0 0 0 0.679167 0 0 0 0.2 0"/>
<feBlend mode="normal" in2="BackgroundImageFix" result="effect1_dropShadow_126_3182"/>
<feBlend mode="normal" in="SourceGraphic" in2="effect1_dropShadow_126_3182" result="shape"/>
</filter>
<filter id="filter8_d_126_3182" x="500.261" y="522.953" width="303.591" height="184.05" filterUnits="userSpaceOnUse" color-interpolation-filters="sRGB">
<feFlood flood-opacity="0" result="BackgroundImageFix"/>
<feColorMatrix in="SourceAlpha" type="matrix" values="0 0 0 0 0 0 0 0 0 0 0 0 0 0 0 0 0 0 127 0" result="hardAlpha"/>
<feOffset dx="1.03515" dy="1.03515"/>
<feGaussianBlur stdDeviation="3.88183"/>
<feComposite in2="hardAlpha" operator="out"/>
<feColorMatrix type="matrix" values="0 0 0 0 0.440043 0 0 0 0 0.20092 0 0 0 0 0.679167 0 0 0 0.2 0"/>
<feBlend mode="normal" in2="BackgroundImageFix" result="effect1_dropShadow_126_3182"/>
<feBlend mode="normal" in="SourceGraphic" in2="effect1_dropShadow_126_3182" result="shape"/>
</filter>
<filter id="filter9_d_126_3182" x="575.437" y="440.889" width="153.242" height="108.868" filterUnits="userSpaceOnUse" color-interpolation-filters="sRGB">
<feFlood flood-opacity="0" result="BackgroundImageFix"/>
<feColorMatrix in="SourceAlpha" type="matrix" values="0 0 0 0 0 0 0 0 0 0 0 0 0 0 0 0 0 0 127 0" result="hardAlpha"/>
<feOffset dx="1.03515" dy="1.03515"/>
<feGaussianBlur stdDeviation="3.88183"/>
<feComposite in2="hardAlpha" operator="out"/>
<feColorMatrix type="matrix" values="0 0 0 0 0.440043 0 0 0 0 0.20092 0 0 0 0 0.679167 0 0 0 0.2 0"/>
<feBlend mode="normal" in2="BackgroundImageFix" result="effect1_dropShadow_126_3182"/>
<feBlend mode="normal" in="SourceGraphic" in2="effect1_dropShadow_126_3182" result="shape"/>
</filter>
<filter id="filter10_d_126_3182" x="350.548" y="477.908" width="120.599" height="81.3518" filterUnits="userSpaceOnUse" color-interpolation-filters="sRGB">
<feFlood flood-opacity="0" result="BackgroundImageFix"/>
<feColorMatrix in="SourceAlpha" type="matrix" values="0 0 0 0 0 0 0 0 0 0 0 0 0 0 0 0 0 0 127 0" result="hardAlpha"/>
<feOffset dx="1.03515" dy="1.03515"/>
<feGaussianBlur stdDeviation="3.88183"/>
<feComposite in2="hardAlpha" operator="out"/>
<feColorMatrix type="matrix" values="0 0 0 0 0.440043 0 0 0 0 0.20092 0 0 0 0 0.679167 0 0 0 0.2 0"/>
<feBlend mode="normal" in2="BackgroundImageFix" result="effect1_dropShadow_126_3182"/>
<feBlend mode="normal" in="SourceGraphic" in2="effect1_dropShadow_126_3182" result="shape"/>
</filter>
<filter id="filter11_d_126_3182" x="337.922" y="453.029" width="145.851" height="91.7688" filterUnits="userSpaceOnUse" color-interpolation-filters="sRGB">
<feFlood flood-opacity="0" result="BackgroundImageFix"/>
<feColorMatrix in="SourceAlpha" type="matrix" values="0 0 0 0 0 0 0 0 0 0 0 0 0 0 0 0 0 0 127 0" result="hardAlpha"/>
<feOffset dx="1.03515" dy="1.03515"/>
<feGaussianBlur stdDeviation="3.88183"/>
<feComposite in2="hardAlpha" operator="out"/>
<feColorMatrix type="matrix" values="0 0 0 0 0.440043 0 0 0 0 0.20092 0 0 0 0 0.679167 0 0 0 0.2 0"/>
<feBlend mode="normal" in2="BackgroundImageFix" result="effect1_dropShadow_126_3182"/>
<feBlend mode="normal" in="SourceGraphic" in2="effect1_dropShadow_126_3182" result="shape"/>
</filter>
<filter id="filter12_d_126_3182" x="338.587" y="430.245" width="144.525" height="90.0057" filterUnits="userSpaceOnUse" color-interpolation-filters="sRGB">
<feFlood flood-opacity="0" result="BackgroundImageFix"/>
<feColorMatrix in="SourceAlpha" type="matrix" values="0 0 0 0 0 0 0 0 0 0 0 0 0 0 0 0 0 0 127 0" result="hardAlpha"/>
<feOffset dx="1.03515" dy="1.03515"/>
<feGaussianBlur stdDeviation="3.88183"/>
<feComposite in2="hardAlpha" operator="out"/>
<feColorMatrix type="matrix" values="0 0 0 0 0.440043 0 0 0 0 0.20092 0 0 0 0 0.679167 0 0 0 0.2 0"/>
<feBlend mode="normal" in2="BackgroundImageFix" result="effect1_dropShadow_126_3182"/>
<feBlend mode="normal" in="SourceGraphic" in2="effect1_dropShadow_126_3182" result="shape"/>
</filter>
<filter id="filter13_d_126_3182" x="353.034" y="415.904" width="115.625" height="80.2282" filterUnits="userSpaceOnUse" color-interpolation-filters="sRGB">
<feFlood flood-opacity="0" result="BackgroundImageFix"/>
<feColorMatrix in="SourceAlpha" type="matrix" values="0 0 0 0 0 0 0 0 0 0 0 0 0 0 0 0 0 0 127 0" result="hardAlpha"/>
<feOffset dx="1.03515" dy="1.03515"/>
<feGaussianBlur stdDeviation="3.88183"/>
<feComposite in2="hardAlpha" operator="out"/>
<feColorMatrix type="matrix" values="0 0 0 0 0.440043 0 0 0 0 0.20092 0 0 0 0 0.679167 0 0 0 0.2 0"/>
<feBlend mode="normal" in2="BackgroundImageFix" result="effect1_dropShadow_126_3182"/>
<feBlend mode="normal" in="SourceGraphic" in2="effect1_dropShadow_126_3182" result="shape"/>
</filter>
<filter id="filter14_d_126_3182" x="371.934" y="415.904" width="77.831" height="57.7556" filterUnits="userSpaceOnUse" color-interpolation-filters="sRGB">
<feFlood flood-opacity="0" result="BackgroundImageFix"/>
<feColorMatrix in="SourceAlpha" type="matrix" values="0 0 0 0 0 0 0 0 0 0 0 0 0 0 0 0 0 0 127 0" result="hardAlpha"/>
<feOffset dx="1.03515" dy="1.03515"/>
<feGaussianBlur stdDeviation="3.88183"/>
<feComposite in2="hardAlpha" operator="out"/>
<feColorMatrix type="matrix" values="0 0 0 0 0.440043 0 0 0 0 0.20092 0 0 0 0 0.679167 0 0 0 0.2 0"/>
<feBlend mode="normal" in2="BackgroundImageFix" result="effect1_dropShadow_126_3182"/>
<feBlend mode="normal" in="SourceGraphic" in2="effect1_dropShadow_126_3182" result="shape"/>
</filter>
<linearGradient id="paint0_linear_126_3182" x1="352.496" y1="947.048" x2="498.913" y2="239.7" gradientUnits="userSpaceOnUse">
<stop stop-color="white"/>
<stop offset="0.508554" stop-color="#30FFFF"/>
<stop offset="1" stop-color="white" stop-opacity="0"/>
</linearGradient>
<radialGradient id="paint1_radial_126_3182" cx="0" cy="0" r="1" gradientUnits="userSpaceOnUse" gradientTransform="translate(281.017 692.733) rotate(-45.6853) scale(355.024 632.713)">
<stop stop-color="white"/>
<stop offset="0.462474" stop-color="#3A45AA"/>
<stop offset="1" stop-color="#3A45AA" stop-opacity="0"/>
</radialGradient>
<linearGradient id="paint2_linear_126_3182" x1="432.558" y1="700.334" x2="602.648" y2="418.311" gradientUnits="userSpaceOnUse">
<stop stop-color="white"/>
<stop offset="0.442828" stop-color="#30FFFF"/>
<stop offset="1" stop-color="white" stop-opacity="0"/>
</linearGradient>
<radialGradient id="paint3_radial_126_3182" cx="0" cy="0" r="1" gradientUnits="userSpaceOnUse" gradientTransform="translate(702.41 502.175) rotate(141.315) scale(246.834 440.027)">
<stop offset="0.39201" stop-color="#1B29A4" stop-opacity="0"/>
<stop offset="0.841913" stop-color="#2938BB" stop-opacity="0.5"/>
<stop offset="1" stop-color="#172075" stop-opacity="0.5"/>
</radialGradient>
<radialGradient id="paint4_radial_126_3182" cx="0" cy="0" r="1" gradientUnits="userSpaceOnUse" gradientTransform="translate(726.082 463.131) rotate(141.571) scale(343.156 606.252)">
<stop offset="0.39201" stop-color="#6675FF" stop-opacity="0"/>
<stop offset="0.841913" stop-color="#6675FF" stop-opacity="0.5"/>
<stop offset="1" stop-color="#192059" stop-opacity="0"/>
</radialGradient>
<radialGradient id="paint5_radial_126_3182" cx="0" cy="0" r="1" gradientUnits="userSpaceOnUse" gradientTransform="translate(774.068 364.388) rotate(140.348) scale(498.718 889.055)">
<stop offset="0.39201" stop-color="#6675FF" stop-opacity="0"/>
<stop offset="0.841913" stop-color="#6675FF" stop-opacity="0.5"/>
<stop offset="1" stop-color="#DBDEFF" stop-opacity="0"/>
</radialGradient>
<radialGradient id="paint6_radial_126_3182" cx="0" cy="0" r="1" gradientUnits="userSpaceOnUse" gradientTransform="translate(686.491 530.421) rotate(141.315) scale(202.354 360.732)">
<stop offset="0.39201" stop-color="#17217A" stop-opacity="0"/>
<stop offset="0.841913" stop-color="#1A2374" stop-opacity="0.5"/>
<stop offset="1" stop-color="#151E6C" stop-opacity="0.5"/>
</radialGradient>
<linearGradient id="paint7_linear_126_3182" x1="495.683" y1="684.651" x2="593.268" y2="424.362" gradientUnits="userSpaceOnUse">
<stop stop-color="white"/>
<stop offset="0.508554" stop-color="#30FFFF"/>
<stop offset="1" stop-color="white" stop-opacity="0"/>
</linearGradient>
<radialGradient id="paint8_radial_126_3182" cx="0" cy="0" r="1" gradientUnits="userSpaceOnUse" gradientTransform="translate(591.853 755.515) rotate(-64.0757) scale(330.71)">
<stop offset="0.107416" stop-color="white" stop-opacity="0.5"/>
<stop offset="0.328407" stop-color="#8FB5FF" stop-opacity="0.5"/>
<stop offset="0.629496" stop-color="#220C7A" stop-opacity="0"/>
</radialGradient>
<radialGradient id="paint9_radial_126_3182" cx="0" cy="0" r="1" gradientUnits="userSpaceOnUse" gradientTransform="translate(651.022 589.536) rotate(90) scale(218.22)">
<stop stop-color="#3E5DFF"/>
<stop offset="1" stop-color="#3E5DFF" stop-opacity="0"/>
</radialGradient>
<linearGradient id="paint10_linear_126_3182" x1="767.145" y1="641.673" x2="534.97" y2="658.43" gradientUnits="userSpaceOnUse">
<stop stop-color="#4E53BE" stop-opacity="0.5"/>
<stop offset="0.885417" stop-color="#33CEFF" stop-opacity="0.7"/>
<stop offset="1" stop-color="white" stop-opacity="0.5"/>
</linearGradient>
<linearGradient id="paint11_linear_126_3182" x1="671.318" y1="761.755" x2="685.794" y2="600.783" gradientUnits="userSpaceOnUse">
<stop stop-color="white"/>
<stop offset="1" stop-color="white" stop-opacity="0"/>
</linearGradient>
<radialGradient id="paint12_radial_126_3182" cx="0" cy="0" r="1" gradientUnits="userSpaceOnUse" gradientTransform="translate(503.699 643.176) rotate(-19.6638) scale(312.89)">
<stop offset="0.249306" stop-color="white"/>
<stop offset="0.48315" stop-color="#8FF2FF" stop-opacity="0.5"/>
<stop offset="0.627037" stop-color="#220C7A" stop-opacity="0.1"/>
</radialGradient>
<linearGradient id="paint13_linear_126_3182" x1="780.245" y1="609.07" x2="507.11" y2="617.741" gradientUnits="userSpaceOnUse">
<stop stop-color="#4E53BE" stop-opacity="0.1"/>
<stop offset="1" stop-color="#33CEFF"/>
</linearGradient>
<linearGradient id="paint14_linear_126_3182" x1="759.122" y1="554.308" x2="508.632" y2="565.576" gradientUnits="userSpaceOnUse">
<stop stop-color="#4E53BE" stop-opacity="0.1"/>
<stop offset="0.997187" stop-color="#33CEFF"/>
</linearGradient>
<linearGradient id="paint15_linear_126_3182" x1="675.939" y1="679.683" x2="691.053" y2="497.328" gradientUnits="userSpaceOnUse">
<stop stop-color="white"/>
<stop offset="1" stop-color="white" stop-opacity="0"/>
</linearGradient>
<linearGradient id="paint16_linear_126_3182" x1="719.88" y1="484.186" x2="582.104" y2="493.377" gradientUnits="userSpaceOnUse">
<stop stop-color="#4E53BE" stop-opacity="0.1"/>
<stop offset="1" stop-color="#33CEFF" stop-opacity="0.9"/>
</linearGradient>
<radialGradient id="paint17_radial_126_3182" cx="0" cy="0" r="1" gradientUnits="userSpaceOnUse" gradientTransform="translate(672.283 795.261) rotate(-83.1976) scale(317.034)">
<stop offset="0.338542" stop-color="#68FFF6" stop-opacity="0.1"/>
<stop offset="0.802083" stop-color="#FFBFE9"/>
<stop offset="1" stop-color="white"/>
</radialGradient>
<linearGradient id="paint18_linear_126_3182" x1="663.562" y1="590.631" x2="670.955" y2="460.959" gradientUnits="userSpaceOnUse">
<stop stop-color="white"/>
<stop offset="1" stop-color="white" stop-opacity="0"/>
</linearGradient>
<linearGradient id="paint19_linear_126_3182" x1="658.105" y1="646.102" x2="674.985" y2="492.441" gradientUnits="userSpaceOnUse">
<stop stop-color="white"/>
<stop offset="1" stop-color="white" stop-opacity="0"/>
</linearGradient>
<linearGradient id="paint20_linear_126_3182" x1="661.517" y1="701.019" x2="664.362" y2="539.318" gradientUnits="userSpaceOnUse">
<stop stop-color="white"/>
<stop offset="1" stop-color="white" stop-opacity="0"/>
</linearGradient>
<linearGradient id="paint21_linear_126_3182" x1="663.057" y1="561.222" x2="673.091" y2="458.095" gradientUnits="userSpaceOnUse">
<stop stop-color="white"/>
<stop offset="1" stop-color="white" stop-opacity="0"/>
</linearGradient>
<radialGradient id="paint22_radial_126_3182" cx="0" cy="0" r="1" gradientUnits="userSpaceOnUse" gradientTransform="translate(420.092 494.339) rotate(90) scale(83.6074)">
<stop stop-color="#FF65C1"/>
<stop offset="1" stop-color="#FF65C1" stop-opacity="0"/>
</radialGradient>
<linearGradient id="paint23_linear_126_3182" x1="462.348" y1="510.425" x2="357.309" y2="518.006" gradientUnits="userSpaceOnUse">
<stop stop-color="#4E53BE" stop-opacity="0.5"/>
<stop offset="0.885417" stop-color="#FB33FF" stop-opacity="0.5"/>
<stop offset="1" stop-color="white" stop-opacity="0.5"/>
</linearGradient>
<linearGradient id="paint24_linear_126_3182" x1="418.994" y1="564.752" x2="425.544" y2="491.926" gradientUnits="userSpaceOnUse">
<stop stop-color="white"/>
<stop offset="1" stop-color="white" stop-opacity="0"/>
</linearGradient>
<radialGradient id="paint25_radial_126_3182" cx="0" cy="0" r="1" gradientUnits="userSpaceOnUse" gradientTransform="translate(343.163 511.104) rotate(-19.6638) scale(141.555)">
<stop offset="0.249306" stop-color="white"/>
<stop offset="0.48315" stop-color="#FF8FED" stop-opacity="0.5"/>
<stop offset="0.627037" stop-color="#220C7A" stop-opacity="0.5"/>
</radialGradient>
<linearGradient id="paint26_linear_126_3182" x1="474.974" y1="489.628" x2="344.791" y2="499.689" gradientUnits="userSpaceOnUse">
<stop stop-color="#4E53BE" stop-opacity="0.5"/>
<stop offset="0.885417" stop-color="#FB33FF" stop-opacity="0.5"/>
<stop offset="1" stop-color="white" stop-opacity="0.5"/>
</linearGradient>
<linearGradient id="paint27_linear_126_3182" x1="421.201" y1="552.552" x2="428.292" y2="468.115" gradientUnits="userSpaceOnUse">
<stop stop-color="white"/>
<stop offset="1" stop-color="white" stop-opacity="0"/>
</linearGradient>
<radialGradient id="paint28_radial_126_3182" cx="0" cy="0" r="1" gradientUnits="userSpaceOnUse" gradientTransform="translate(425.68 536.228) rotate(-107.749) scale(99.169)">
<stop offset="0.223958" stop-color="white"/>
<stop offset="0.466382" stop-color="#FFCEF1"/>
<stop offset="0.682292" stop-color="#B6B9FF"/>
<stop offset="0.881791" stop-color="white"/>
</radialGradient>
<radialGradient id="paint29_radial_126_3182" cx="0" cy="0" r="1" gradientUnits="userSpaceOnUse" gradientTransform="translate(434.207 536.228) rotate(-100.377) scale(135.421)">
<stop stop-color="white"/>
<stop offset="1" stop-color="white" stop-opacity="0"/>
</radialGradient>
<linearGradient id="paint30_linear_126_3182" x1="474.313" y1="466.153" x2="345.475" y2="476.242" gradientUnits="userSpaceOnUse">
<stop stop-color="#4E53BE" stop-opacity="0.5"/>
<stop offset="0.885417" stop-color="#FB33FF" stop-opacity="0.5"/>
<stop offset="1" stop-color="white" stop-opacity="0.5"/>
</linearGradient>
<linearGradient id="paint31_linear_126_3182" x1="421.088" y1="527.622" x2="427.925" y2="445.122" gradientUnits="userSpaceOnUse">
<stop stop-color="white"/>
<stop offset="1" stop-color="white" stop-opacity="0"/>
</linearGradient>
<linearGradient id="paint32_linear_126_3182" x1="459.861" y1="447.981" x2="359.763" y2="454.983" gradientUnits="userSpaceOnUse">
<stop stop-color="#4E53BE" stop-opacity="0.5"/>
<stop offset="0.885417" stop-color="#FB33FF" stop-opacity="0.5"/>
<stop offset="1" stop-color="white" stop-opacity="0.5"/>
</linearGradient>
<linearGradient id="paint33_linear_126_3182" x1="418.56" y1="501.38" x2="425.198" y2="429.835" gradientUnits="userSpaceOnUse">
<stop stop-color="white"/>
<stop offset="1" stop-color="white" stop-opacity="0"/>
</linearGradient>
<linearGradient id="paint34_linear_126_3182" x1="440.966" y1="439.177" x2="378.635" y2="443.335" gradientUnits="userSpaceOnUse">
<stop stop-color="#4E53BE" stop-opacity="0.5"/>
<stop offset="0.885417" stop-color="#FB33FF" stop-opacity="0.5"/>
<stop offset="1" stop-color="white" stop-opacity="0.5"/>
</linearGradient>
<linearGradient id="paint35_linear_126_3182" x1="415.259" y1="474.029" x2="419.798" y2="427.373" gradientUnits="userSpaceOnUse">
<stop stop-color="white"/>
<stop offset="1" stop-color="white" stop-opacity="0"/>
</linearGradient>
<radialGradient id="paint36_radial_126_3182" cx="0" cy="0" r="1" gradientUnits="userSpaceOnUse" gradientTransform="translate(383.045 561.928) rotate(-65.1363) scale(210.169)">
<stop offset="0.249306" stop-color="white"/>
<stop offset="0.48315" stop-color="#FF8FED" stop-opacity="0.5"/>
<stop offset="0.627037" stop-color="#220C7A" stop-opacity="0"/>
</radialGradient>
</defs>
</svg>
