<svg width="332" height="461" viewBox="0 0 332 461" fill="none" xmlns="http://www.w3.org/2000/svg">
<g filter="url(#filter0_dd_126_3273)">
<circle cx="184.63" cy="404.226" r="24.7741" fill="url(#paint0_linear_126_3273)" shape-rendering="crispEdges"/>
</g>
<g filter="url(#filter1_dd_126_3273)">
<circle cx="260.182" cy="325.156" r="18.3281" fill="url(#paint1_linear_126_3273)" shape-rendering="crispEdges"/>
</g>
<circle cx="146" cy="178" r="186" fill="url(#paint2_radial_126_3273)" fill-opacity="0.6"/>
<g filter="url(#filter2_d_126_3273)">
<ellipse cx="184.259" cy="219.724" rx="111.442" ry="69.8154" fill="url(#paint3_linear_126_3273)" fill-opacity="0.5" shape-rendering="crispEdges"/>
<path d="M295.231 219.724C295.231 238.783 282.899 256.108 262.811 268.693C242.73 281.273 214.959 289.069 184.259 289.069C153.56 289.069 125.789 281.273 105.708 268.693C85.6203 256.108 73.288 238.783 73.288 219.724C73.288 200.666 85.6203 183.341 105.708 170.756C125.789 158.176 153.56 150.38 184.259 150.38C214.959 150.38 242.73 158.176 262.811 170.756C282.899 183.341 295.231 200.666 295.231 219.724Z" stroke="url(#paint4_linear_126_3273)" stroke-opacity="0.6" stroke-width="0.941174" shape-rendering="crispEdges"/>
</g>
<circle cx="184.258" cy="154.625" r="141.382" fill="url(#paint5_radial_126_3273)"/>
<ellipse cx="184.257" cy="178" rx="138.225" ry="80.864" fill="url(#paint6_linear_126_3273)" fill-opacity="0.5"/>
<path d="M322.011 178C322.011 200.094 306.7 220.183 281.759 234.774C256.829 249.358 222.358 258.394 184.257 258.394C146.156 258.394 111.685 249.358 86.7554 234.774C61.8143 220.183 46.5033 200.094 46.5033 178C46.5033 155.907 61.8143 135.818 86.7554 121.227C111.685 106.643 146.156 97.6069 184.257 97.6069C222.358 97.6069 256.829 106.643 281.759 121.227C306.7 135.818 322.011 155.907 322.011 178Z" stroke="url(#paint7_linear_126_3273)" stroke-opacity="0.6" stroke-width="0.941174"/>
<circle cx="184.257" cy="154.624" r="104.724" fill="url(#paint8_radial_126_3273)"/>
<circle cx="184.257" cy="154.624" r="104.724" fill="url(#paint9_radial_126_3273)"/>
<g filter="url(#filter3_d_126_3273)">
<ellipse cx="184.258" cy="127.797" rx="136.819" ry="78.994" fill="url(#paint10_linear_126_3273)" fill-opacity="0.5" shape-rendering="crispEdges"/>
<path d="M320.606 127.797C320.606 149.371 305.456 168.992 280.768 183.246C256.092 197.493 221.972 206.32 184.258 206.32C146.544 206.32 112.424 197.493 87.748 183.246C63.0598 168.992 47.91 149.371 47.91 127.797C47.91 106.222 63.0598 86.601 87.748 72.347C112.424 58.1001 146.544 49.2732 184.258 49.2732C221.972 49.2732 256.092 58.1001 280.768 72.347C305.456 86.601 320.606 106.222 320.606 127.797Z" stroke="url(#paint11_linear_126_3273)" stroke-opacity="0.6" stroke-width="0.941174" shape-rendering="crispEdges"/>
</g>
<g filter="url(#filter4_d_126_3273)">
<ellipse cx="184.257" cy="87.0055" rx="106.167" ry="68.6237" fill="url(#paint12_linear_126_3273)" fill-opacity="0.5" shape-rendering="crispEdges"/>
<path d="M289.954 87.0055C289.954 105.742 278.204 122.769 259.073 135.135C239.948 147.497 213.497 155.159 184.257 155.159C155.017 155.159 128.567 147.497 109.441 135.135C90.3105 122.769 78.5604 105.742 78.5604 87.0055C78.5604 68.2688 90.3105 51.2419 109.441 38.8764C128.567 26.514 155.017 18.8524 184.257 18.8524C213.497 18.8524 239.948 26.514 259.073 38.8764C278.204 51.2419 289.954 68.2688 289.954 87.0055Z" stroke="url(#paint13_linear_126_3273)" stroke-opacity="0.6" stroke-width="0.941174" shape-rendering="crispEdges"/>
</g>
<ellipse cx="184.259" cy="63.1704" rx="66.0812" ry="44.7886" fill="url(#paint14_linear_126_3273)" fill-opacity="0.5"/>
<path d="M249.87 63.1704C249.87 75.3357 242.595 86.4037 230.722 94.4511C218.851 102.497 202.426 107.488 184.259 107.488C166.093 107.488 149.668 102.497 137.797 94.4511C125.924 86.4037 118.649 75.3357 118.649 63.1704C118.649 51.005 125.924 39.937 137.797 31.8896C149.668 23.8439 166.093 18.8524 184.259 18.8524C202.426 18.8524 218.851 23.8439 230.722 31.8896C242.595 39.937 249.87 51.005 249.87 63.1704Z" stroke="url(#paint15_linear_126_3273)" stroke-opacity="0.6" stroke-width="0.941174"/>
<ellipse cx="184.258" cy="47.8806" rx="38.2578" ry="26.3238" fill="url(#paint16_linear_126_3273)" fill-opacity="0.5"/>
<path d="M222.045 47.8806C222.045 54.9503 217.881 61.4021 211.043 66.1066C204.208 70.8097 194.739 73.7338 184.258 73.7338C173.776 73.7338 164.308 70.8097 157.472 66.1066C150.635 61.4021 146.471 54.9503 146.471 47.8806C146.471 40.8109 150.635 34.359 157.472 29.6545C164.308 24.9514 173.776 22.0273 184.258 22.0273C194.739 22.0273 204.208 24.9514 211.043 29.6545C217.881 34.359 222.045 40.8109 222.045 47.8806Z" stroke="url(#paint17_linear_126_3273)" stroke-opacity="0.6" stroke-width="0.941174"/>
<circle cx="184.258" cy="154.624" r="141.382" fill="url(#paint18_radial_126_3273)" fill-opacity="0.3"/>
<defs>
<filter id="filter0_dd_126_3273" x="126.915" y="344.628" width="115.431" height="115.43" filterUnits="userSpaceOnUse" color-interpolation-filters="sRGB">
<feFlood flood-opacity="0" result="BackgroundImageFix"/>
<feColorMatrix in="SourceAlpha" type="matrix" values="0 0 0 0 0 0 0 0 0 0 0 0 0 0 0 0 0 0 127 0" result="hardAlpha"/>
<feOffset dy="-1.88235"/>
<feGaussianBlur stdDeviation="16.4705"/>
<feComposite in2="hardAlpha" operator="out"/>
<feColorMatrix type="matrix" values="0 0 0 0 0.371081 0 0 0 0 0.235903 0 0 0 0 0.658333 0 0 0 1 0"/>
<feBlend mode="normal" in2="BackgroundImageFix" result="effect1_dropShadow_126_3273"/>
<feColorMatrix in="SourceAlpha" type="matrix" values="0 0 0 0 0 0 0 0 0 0 0 0 0 0 0 0 0 0 127 0" result="hardAlpha"/>
<feOffset dy="-1.88235"/>
<feGaussianBlur stdDeviation="9.41174"/>
<feComposite in2="hardAlpha" operator="out"/>
<feColorMatrix type="matrix" values="0 0 0 0 0.48825 0 0 0 0 0.372778 0 0 0 0 0.733333 0 0 0 1 0"/>
<feBlend mode="normal" in2="effect1_dropShadow_126_3273" result="effect2_dropShadow_126_3273"/>
<feBlend mode="normal" in="SourceGraphic" in2="effect2_dropShadow_126_3273" result="shape"/>
</filter>
<filter id="filter1_dd_126_3273" x="208.912" y="272.004" width="102.538" height="102.538" filterUnits="userSpaceOnUse" color-interpolation-filters="sRGB">
<feFlood flood-opacity="0" result="BackgroundImageFix"/>
<feColorMatrix in="SourceAlpha" type="matrix" values="0 0 0 0 0 0 0 0 0 0 0 0 0 0 0 0 0 0 127 0" result="hardAlpha"/>
<feOffset dy="-1.88235"/>
<feGaussianBlur stdDeviation="16.4705"/>
<feComposite in2="hardAlpha" operator="out"/>
<feColorMatrix type="matrix" values="0 0 0 0 0.371081 0 0 0 0 0.235903 0 0 0 0 0.658333 0 0 0 1 0"/>
<feBlend mode="normal" in2="BackgroundImageFix" result="effect1_dropShadow_126_3273"/>
<feColorMatrix in="SourceAlpha" type="matrix" values="0 0 0 0 0 0 0 0 0 0 0 0 0 0 0 0 0 0 127 0" result="hardAlpha"/>
<feOffset dy="-1.88235"/>
<feGaussianBlur stdDeviation="9.41174"/>
<feComposite in2="hardAlpha" operator="out"/>
<feColorMatrix type="matrix" values="0 0 0 0 0.48825 0 0 0 0 0.372778 0 0 0 0 0.733333 0 0 0 1 0"/>
<feBlend mode="normal" in2="effect1_dropShadow_126_3273" result="effect2_dropShadow_126_3273"/>
<feBlend mode="normal" in="SourceGraphic" in2="effect2_dropShadow_126_3273" result="shape"/>
</filter>
<filter id="filter2_d_126_3273" x="63.4056" y="141.438" width="241.708" height="158.454" filterUnits="userSpaceOnUse" color-interpolation-filters="sRGB">
<feFlood flood-opacity="0" result="BackgroundImageFix"/>
<feColorMatrix in="SourceAlpha" type="matrix" values="0 0 0 0 0 0 0 0 0 0 0 0 0 0 0 0 0 0 127 0" result="hardAlpha"/>
<feOffset dy="0.941174"/>
<feGaussianBlur stdDeviation="4.70587"/>
<feComposite in2="hardAlpha" operator="out"/>
<feColorMatrix type="matrix" values="0 0 0 0 0.440043 0 0 0 0 0.20092 0 0 0 0 0.679167 0 0 0 0.3 0"/>
<feBlend mode="normal" in2="BackgroundImageFix" result="effect1_dropShadow_126_3273"/>
<feBlend mode="normal" in="SourceGraphic" in2="effect1_dropShadow_126_3273" result="shape"/>
</filter>
<filter id="filter3_d_126_3273" x="42.7336" y="45.0379" width="283.049" height="167.4" filterUnits="userSpaceOnUse" color-interpolation-filters="sRGB">
<feFlood flood-opacity="0" result="BackgroundImageFix"/>
<feColorMatrix in="SourceAlpha" type="matrix" values="0 0 0 0 0 0 0 0 0 0 0 0 0 0 0 0 0 0 127 0" result="hardAlpha"/>
<feOffset dy="0.941174"/>
<feGaussianBlur stdDeviation="2.35293"/>
<feComposite in2="hardAlpha" operator="out"/>
<feColorMatrix type="matrix" values="0 0 0 0 0.369333 0 0 0 0 0.0916667 0 0 0 0 0.5 0 0 0 0.15 0"/>
<feBlend mode="normal" in2="BackgroundImageFix" result="effect1_dropShadow_126_3273"/>
<feBlend mode="normal" in="SourceGraphic" in2="effect1_dropShadow_126_3273" result="shape"/>
</filter>
<filter id="filter4_d_126_3273" x="71.9722" y="12.2641" width="226.452" height="151.365" filterUnits="userSpaceOnUse" color-interpolation-filters="sRGB">
<feFlood flood-opacity="0" result="BackgroundImageFix"/>
<feColorMatrix in="SourceAlpha" type="matrix" values="0 0 0 0 0 0 0 0 0 0 0 0 0 0 0 0 0 0 127 0" result="hardAlpha"/>
<feOffset dx="0.941174" dy="0.941174"/>
<feGaussianBlur stdDeviation="3.5294"/>
<feComposite in2="hardAlpha" operator="out"/>
<feColorMatrix type="matrix" values="0 0 0 0 0.440043 0 0 0 0 0.20092 0 0 0 0 0.679167 0 0 0 0.2 0"/>
<feBlend mode="normal" in2="BackgroundImageFix" result="effect1_dropShadow_126_3273"/>
<feBlend mode="normal" in="SourceGraphic" in2="effect1_dropShadow_126_3273" result="shape"/>
</filter>
<linearGradient id="paint0_linear_126_3273" x1="184.63" y1="368.68" x2="184.63" y2="455.569" gradientUnits="userSpaceOnUse">
<stop stop-color="white"/>
<stop offset="0.223958" stop-color="#6BE4FF"/>
<stop offset="0.623188" stop-color="#371B73" stop-opacity="0.6"/>
<stop offset="1" stop-color="#0A1153" stop-opacity="0.4"/>
</linearGradient>
<linearGradient id="paint1_linear_126_3273" x1="260.182" y1="298.859" x2="260.182" y2="363.14" gradientUnits="userSpaceOnUse">
<stop stop-color="white"/>
<stop offset="0.223958" stop-color="#6BE4FF"/>
<stop offset="0.623188" stop-color="#371B73" stop-opacity="0.6"/>
<stop offset="1" stop-color="#0A1153" stop-opacity="0.4"/>
</linearGradient>
<radialGradient id="paint2_radial_126_3273" cx="0" cy="0" r="1" gradientUnits="userSpaceOnUse" gradientTransform="translate(146 178) rotate(90) scale(186)">
<stop stop-color="#FF65C1"/>
<stop offset="1" stop-color="#FF65C1" stop-opacity="0"/>
</radialGradient>
<linearGradient id="paint3_linear_126_3273" x1="184.259" y1="149.909" x2="184.259" y2="289.54" gradientUnits="userSpaceOnUse">
<stop stop-color="#13154D"/>
<stop offset="1" stop-color="#8E92EE" stop-opacity="0"/>
</linearGradient>
<linearGradient id="paint4_linear_126_3273" x1="239.608" y1="228.526" x2="245.916" y2="298.959" gradientUnits="userSpaceOnUse">
<stop stop-color="white" stop-opacity="0"/>
<stop offset="1" stop-color="white"/>
</linearGradient>
<radialGradient id="paint5_radial_126_3273" cx="0" cy="0" r="1" gradientUnits="userSpaceOnUse" gradientTransform="translate(42.876 206.056) rotate(-19.6638) scale(300.275)">
<stop offset="0.249306" stop-color="white"/>
<stop offset="0.48315" stop-color="#FF8FED" stop-opacity="0.5"/>
<stop offset="0.627037" stop-color="#220C7A" stop-opacity="0.5"/>
</radialGradient>
<linearGradient id="paint6_linear_126_3273" x1="57.3126" y1="195.186" x2="319.299" y2="165.616" gradientUnits="userSpaceOnUse">
<stop stop-color="white"/>
<stop offset="1" stop-color="#12178E" stop-opacity="0.4"/>
</linearGradient>
<linearGradient id="paint7_linear_126_3273" x1="206.204" y1="293.135" x2="164.382" y2="193.358" gradientUnits="userSpaceOnUse">
<stop offset="0.0011346" stop-color="white"/>
<stop offset="1" stop-color="white" stop-opacity="0"/>
</linearGradient>
<radialGradient id="paint8_radial_126_3273" cx="0" cy="0" r="1" gradientUnits="userSpaceOnUse" gradientTransform="translate(105.049 207.803) rotate(-14.8494) scale(207.504)">
<stop offset="0.239373" stop-color="white"/>
<stop offset="0.410099" stop-color="#FFCEF1"/>
<stop offset="0.67492" stop-color="#B6B9FF"/>
<stop offset="0.861176" stop-color="#FFA8E7"/>
<stop offset="1" stop-color="white"/>
</radialGradient>
<radialGradient id="paint9_radial_126_3273" cx="0" cy="0" r="1" gradientUnits="userSpaceOnUse" gradientTransform="translate(283.472 235.571) rotate(-121.724) scale(119.316)">
<stop stop-color="#3F52FF"/>
<stop offset="1" stop-color="#3F52FF" stop-opacity="0"/>
</radialGradient>
<linearGradient id="paint10_linear_126_3273" x1="50.3857" y1="122.352" x2="321.076" y2="130.762" gradientUnits="userSpaceOnUse">
<stop stop-color="white"/>
<stop offset="1" stop-color="#5653FF" stop-opacity="0.2"/>
</linearGradient>
<linearGradient id="paint11_linear_126_3273" x1="166.241" y1="262.563" x2="157.735" y2="133.709" gradientUnits="userSpaceOnUse">
<stop stop-color="white"/>
<stop offset="1" stop-color="white" stop-opacity="0"/>
</linearGradient>
<linearGradient id="paint12_linear_126_3273" x1="184.257" y1="18.3818" x2="184.257" y2="155.629" gradientUnits="userSpaceOnUse">
<stop stop-color="#13154D" stop-opacity="0.5"/>
<stop offset="1" stop-color="#8E92EE" stop-opacity="0"/>
</linearGradient>
<linearGradient id="paint13_linear_126_3273" x1="202.813" y1="185.426" x2="216.895" y2="33.6598" gradientUnits="userSpaceOnUse">
<stop stop-color="white"/>
<stop offset="1" stop-color="white" stop-opacity="0"/>
</linearGradient>
<linearGradient id="paint14_linear_126_3273" x1="184.259" y1="18.3818" x2="184.259" y2="107.959" gradientUnits="userSpaceOnUse">
<stop stop-color="#13154D"/>
<stop offset="1" stop-color="#8E92EE" stop-opacity="0"/>
</linearGradient>
<linearGradient id="paint15_linear_126_3273" x1="210.699" y1="173.863" x2="184.259" y2="18.3818" gradientUnits="userSpaceOnUse">
<stop stop-color="white"/>
<stop offset="1" stop-color="white" stop-opacity="0"/>
</linearGradient>
<linearGradient id="paint16_linear_126_3273" x1="184.258" y1="21.5568" x2="184.258" y2="74.2044" gradientUnits="userSpaceOnUse">
<stop stop-color="#13154D"/>
<stop offset="1" stop-color="#8E92EE" stop-opacity="0"/>
</linearGradient>
<linearGradient id="paint17_linear_126_3273" x1="204.916" y1="129.711" x2="184.258" y2="21.5568" gradientUnits="userSpaceOnUse">
<stop stop-color="white"/>
<stop offset="1" stop-color="white" stop-opacity="0"/>
</linearGradient>
<radialGradient id="paint18_radial_126_3273" cx="0" cy="0" r="1" gradientUnits="userSpaceOnUse" gradientTransform="translate(42.876 206.055) rotate(-19.6638) scale(300.275)">
<stop offset="0.249306" stop-color="white"/>
<stop offset="0.48315" stop-color="#FF8FED" stop-opacity="0.5"/>
<stop offset="0.627037" stop-color="#220C7A" stop-opacity="0"/>
</radialGradient>
</defs>
</svg>
