<?xml version="1.0" encoding="UTF-8" standalone="no"?>
<svg
   width="578"
   height="457"
   viewBox="0 0 578 457"
   fill="none"
   version="1.1"
   id="svg648"
   sodipodi:docname="IllustrationMyVersion.svg"
   inkscape:version="1.2.2 (b0a84865, 2022-12-01)"
   xmlns:inkscape="http://www.inkscape.org/namespaces/inkscape"
   xmlns:sodipodi="http://sodipodi.sourceforge.net/DTD/sodipodi-0.dtd"
   xmlns="http://www.w3.org/2000/svg"
   xmlns:svg="http://www.w3.org/2000/svg">
  <sodipodi:namedview
     id="namedview650"
     pagecolor="#ffffff"
     bordercolor="#000000"
     borderopacity="0.25"
     inkscape:showpageshadow="2"
     inkscape:pageopacity="0.0"
     inkscape:pagecheckerboard="0"
     inkscape:deskcolor="#d1d1d1"
     showgrid="false"
     inkscape:zoom="0.8791156"
     inkscape:cx="253.09527"
     inkscape:cy="284.94546"
     inkscape:window-width="1680"
     inkscape:window-height="921"
     inkscape:window-x="0"
     inkscape:window-y="25"
     inkscape:window-maximized="0"
     inkscape:current-layer="svg648" />
  <g
     filter="url(#filter0_f_180_162)"
     id="g134">
    <circle
       cx="288.539"
       cy="288.97101"
       r="116.697"
       transform="rotate(23.5873,288.539,288.971)"
       fill="url(#paint0_radial_180_162)"
       fill-opacity="0.6"
       id="circle132"
       style="fill:url(#paint0_radial_180_162)" />
  </g>
  <g
     style="mix-blend-mode:overlay"
     id="g138"
     transform="matrix(2.2253236,0,0,2.2253236,-336.76066,-437.09805)">
    <path
       d="m 265.264,259.997 c -56.672,-6.324 -103.083,7.884 -109.62,36.114 -7.687,33.195 42.67,73.207 112.475,89.371 69.804,16.164 132.623,2.357 140.31,-30.838 6.748,-29.143 -31.244,-63.542 -87.857,-82.443"
       stroke="url(#paint1_angular_180_162)"
       stroke-width="1.70856"
       stroke-linecap="round"
       id="path136"
       style="stroke:url(#paint1_angular_180_162)" />
  </g>
  <g
     style="mix-blend-mode:overlay"
     id="g142"
     transform="matrix(2.2253236,0,0,2.2253236,-336.76066,-437.09805)">
    <path
       d="m 265.167,260.42 c -56.672,-6.323 -103.084,7.884 -109.62,36.114 -7.687,33.195 42.67,73.208 112.475,89.371 69.804,16.164 132.623,2.357 140.309,-30.837 6.749,-29.144 -31.243,-63.543 -87.857,-82.444"
       stroke="url(#paint2_angular_180_162)"
       stroke-width="1.70856"
       stroke-linecap="round"
       id="path140"
       style="stroke:url(#paint2_angular_180_162)" />
  </g>
  <g
     style="mix-blend-mode:overlay"
     id="g146"
     transform="matrix(2.2253236,0,0,2.2253236,-336.76066,-437.09805)">
    <path
       d="m 324.422,275.123 c 54.284,19.17 90.244,52.585 83.663,81.003 -7.686,33.195 -70.505,47.001 -140.309,30.838 -69.805,-16.164 -120.162,-56.176 -112.475,-89.371 6.429,-27.766 51.43,-41.966 106.829,-36.41"
       stroke="url(#paint3_angular_180_162)"
       stroke-width="1.70856"
       stroke-linecap="round"
       id="path144"
       style="stroke:url(#paint3_angular_180_162)" />
  </g>
  <g
     style="mix-blend-mode:overlay"
     id="g150"
     transform="matrix(2.2253236,0,0,2.2253236,-336.76066,-437.09805)">
    <path
       d="m 257.305,262.472 c -53.351,-4.381 -96.139,9.793 -102.396,36.814 -7.686,33.195 42.67,73.208 112.475,89.371 69.804,16.164 132.623,2.357 140.31,-30.838 6.459,-27.896 -28.075,-60.608 -80.695,-79.933"
       stroke="url(#paint4_angular_180_162)"
       stroke-width="1.70856"
       stroke-linecap="round"
       id="path148"
       style="stroke:url(#paint4_angular_180_162)" />
  </g>
  <g
     style="mix-blend-mode:overlay"
     id="g154"
     transform="matrix(2.2253236,0,0,2.2253236,-336.76066,-437.09805)">
    <path
       d="m 330.95,281.912 c 50.081,19.503 82.478,51.141 76.204,78.236 -7.686,33.194 -70.505,47.001 -140.309,30.837 -69.805,-16.163 -120.162,-56.176 -112.475,-89.371 6.068,-26.205 46.494,-40.327 97.592,-37.16"
       stroke="url(#paint5_angular_180_162)"
       stroke-width="1.70856"
       stroke-linecap="round"
       id="path152"
       style="stroke:url(#paint5_angular_180_162)" />
  </g>
  <ellipse
     cx="309.58456"
     cy="200.85545"
     rx="201.78989"
     ry="199.21095"
     fill="url(#paint6_linear_180_162)"
     id="ellipse156"
     style="fill:url(#paint6_linear_180_162);stroke-width:2.22533" />
  <g
     clip-path="url(#clip0_180_162)"
     id="g236"
     transform="matrix(2.2253236,0,0,2.2253236,-336.76066,-437.09805)">
    <path
       d="m 257.199,330.885 c 0.027,-0.882 0.558,-1.663 1.294,-2.15 11.503,-7.613 20.17,-24.484 21.044,-38.767 0.024,-0.814 0.049,-1.639 0.076,-2.471 0,-0.003 0,-0.007 0,-0.01 0.665,-20.423 3.673,-45.192 6.372,-51.794 4.987,-12.195 21.876,-13.341 21.876,-13.341 22.421,-1.604 26.425,15.624 28.689,31.316 1.407,9.758 6.83,44.617 6.83,44.617 l -4.121,1.595 c -4.856,14.386 -15.788,26.021 -29.998,31.372 -4.133,1.557 -7.632,2.181 -9.274,0.842 -6.528,6.617 -14.698,11.618 -23.594,14.324 -3.621,1.101 -7.416,1.837 -11.185,1.485 -2.447,-0.229 -5.027,-1.037 -6.486,-3.015 -1.257,-1.704 -1.43,-4.14 -0.425,-6.005 1.003,-1.864 3.133,-3.06 5.247,-2.949 -0.849,-2.756 -6.441,-1.945 -6.345,-5.049 z"
       fill="#28170b"
       id="path158" />
    <path
       d="m 304.878,228.694 1.403,-1.337 15.159,6.109 c 2.193,0.121 3.929,1.901 3.995,4.096 l -0.133,49.39 c 0.019,3.349 -0.652,6.25 -2.674,8.919 l -2.129,2.811 c -4.855,6.408 -14.84,5.881 -18.683,-1.18 -0.268,-0.493 -0.455,-0.926 -0.536,-1.277 -0.081,-0.44 -0.201,-0.73 -0.225,-1.104 -0.452,-3.974 -0.477,-7.419 -0.477,-7.419 0.75,-4.172 0.486,-8.295 0.469,-8.257 0,0 -4.47,0.31 -8.101,-5.462 -0.951,-1.512 -3.055,-6.472 -3.576,-8.945 -0.869,-4.125 -1.477,-7.6 -1.649,-12.036 3.221,-8.484 10.843,-19.834 17.157,-24.308 z"
       fill="#d9976c"
       id="path160" />
    <path
       d="m 307.986,253.152 c 0.011,0.815 0.712,1.477 1.563,1.48 0.85,0.004 1.531,-0.653 1.519,-1.468 -0.013,-0.815 -0.712,-1.478 -1.562,-1.481 -0.852,-0.003 -1.532,0.654 -1.52,1.469 z"
       fill="#28170b"
       id="path162" />
    <path
       d="m 292.316,253.574 c 0.012,0.815 0.712,1.477 1.564,1.48 0.849,0.003 1.53,-0.654 1.518,-1.469 -0.012,-0.815 -0.712,-1.478 -1.561,-1.48 -0.852,-0.004 -1.533,0.654 -1.521,1.469 z"
       fill="#28170b"
       id="path164" />
    <path
       d="m 289.348,249.673 c 0.201,0.191 1.325,-0.731 2.983,-0.81 1.655,-0.102 2.915,0.69 3.084,0.478 0.084,-0.095 -0.129,-0.447 -0.678,-0.807 -0.54,-0.357 -1.449,-0.686 -2.482,-0.631 -1.032,0.058 -1.882,0.482 -2.362,0.896 -0.49,0.416 -0.644,0.788 -0.545,0.874 z"
       fill="#28170b"
       id="path166" />
    <path
       d="m 306.172,249.844 c 0.22,0.17 1.245,-0.863 2.885,-1.111 1.635,-0.273 2.97,0.386 3.116,0.158 0.074,-0.103 -0.172,-0.432 -0.757,-0.733 -0.575,-0.3 -1.512,-0.534 -2.533,-0.372 -1.021,0.163 -1.823,0.672 -2.258,1.133 -0.443,0.465 -0.559,0.851 -0.453,0.925 z"
       fill="#28170b"
       id="path168" />
    <path
       d="m 300.38,261.913 c 0.003,-0.095 -1.037,-0.221 -2.717,-0.351 -0.426,-0.022 -0.831,-0.086 -0.917,-0.372 -0.115,-0.301 0.04,-0.766 0.22,-1.268 0.347,-1.045 0.709,-2.14 1.09,-3.287 1.508,-4.677 2.578,-8.514 2.389,-8.573 -0.189,-0.059 -1.565,3.684 -3.073,8.361 -0.362,1.152 -0.708,2.251 -1.037,3.303 -0.136,0.489 -0.385,1.049 -0.136,1.673 0.13,0.31 0.452,0.524 0.727,0.584 0.275,0.069 0.514,0.061 0.723,0.063 1.686,0.006 2.729,-0.038 2.731,-0.133 z"
       fill="#28170b"
       id="path170" />
    <path
       d="m 301.023,279.441 c 0,0 8.108,0.116 15.874,-5.098 0,0 -3.735,8.518 -15.815,7.997 z"
       fill="#8d4f27"
       id="path172" />
    <path
       d="m 301.701,267.637 c 0.557,-0.818 1.58,-1.303 2.623,-1.244 0.723,0.042 1.468,0.352 1.934,0.916 0.466,0.564 0.6,1.391 0.23,1.97 -0.416,0.651 -1.344,0.844 -2.146,0.658 -0.802,-0.185 -1.509,-0.672 -2.182,-1.158 -0.186,-0.135 -0.377,-0.276 -0.499,-0.467 -0.121,-0.19 -0.158,-0.447 -0.028,-0.617"
       fill="#953448"
       id="path174" />
    <path
       d="m 305.736,264.579 c -0.27,-0.002 -0.183,1.798 -1.66,3.153 -1.473,1.358 -3.402,1.252 -3.403,1.504 -0.02,0.115 0.445,0.329 1.255,0.31 0.796,-0.012 1.943,-0.326 2.846,-1.154 0.901,-0.831 1.252,-1.896 1.277,-2.638 0.031,-0.755 -0.192,-1.191 -0.315,-1.175 z"
       fill="#28170b"
       id="path176" />
    <path
       d="m 304.584,243.382 c 0.23,0.421 1.836,-0.041 3.797,-0.105 1.96,-0.102 3.598,0.223 3.792,-0.216 0.085,-0.209 -0.25,-0.587 -0.944,-0.923 -0.688,-0.335 -1.744,-0.593 -2.919,-0.545 -1.175,0.051 -2.205,0.397 -2.862,0.79 -0.663,0.392 -0.966,0.797 -0.864,0.999 z"
       fill="#28170b"
       id="path178" />
    <path
       d="m 289.586,242.55 c 0.31,0.362 1.433,-0.086 2.806,-0.174 1.369,-0.135 2.549,0.126 2.797,-0.281 0.108,-0.198 -0.095,-0.565 -0.62,-0.897 -0.519,-0.33 -1.371,-0.578 -2.314,-0.502 -0.942,0.077 -1.742,0.459 -2.2,0.869 -0.467,0.412 -0.606,0.807 -0.469,0.985 z"
       fill="#28170b"
       id="path180" />
    <path
       d="m 325.132,258.64 c 0,0 -8.492,2.643 -13.297,-18.314 -1.643,-7.166 -8.286,-12.97 -8.286,-12.97 l 2.694,-0.81 c 0,0 16.745,4.717 17.027,4.929 0.282,0.211 4.224,8.66 4.224,8.66 z"
       fill="#28170b"
       id="path182" />
    <path
       d="m 323.04,257.86 c -0.043,-0.895 0.886,-3.056 1.762,-3.238 2.341,-0.486 6.603,-0.51 6.943,5.48 0.465,8.188 -7.852,6.966 -7.879,6.731 -0.022,-0.182 -0.678,-5.884 -0.826,-8.973 z"
       fill="#d9976c"
       id="path184" />
    <path
       d="m 326.19,263.59 c 0.035,-0.029 0.149,0.091 0.396,0.188 0.241,0.094 0.65,0.146 1.068,-0.039 0.847,-0.367 1.497,-1.781 1.453,-3.259 -0.021,-0.747 -0.218,-1.447 -0.515,-2.02 -0.284,-0.585 -0.695,-0.982 -1.135,-1.034 -0.439,-0.076 -0.733,0.203 -0.82,0.439 -0.097,0.235 -0.035,0.396 -0.078,0.412 -0.021,0.022 -0.184,-0.127 -0.137,-0.469 0.025,-0.165 0.11,-0.363 0.293,-0.532 0.188,-0.17 0.472,-0.268 0.777,-0.253 0.634,0.008 1.235,0.557 1.562,1.185 0.362,0.63 0.6,1.416 0.624,2.254 0.041,1.653 -0.716,3.245 -1.88,3.654 -0.567,0.183 -1.058,0.037 -1.317,-0.143 -0.264,-0.186 -0.318,-0.367 -0.291,-0.383 z"
       fill="#8d4f27"
       id="path186" />
    <path
       d="m 319.373,254.632 c 0.003,-0.027 -0.452,-0.029 -1.227,-0.247 -0.77,-0.216 -1.854,-0.72 -2.916,-1.692 -0.528,-0.487 -1.048,-1.083 -1.521,-1.782 -0.464,-0.705 -0.88,-1.511 -1.237,-2.393 -0.725,-1.764 -1.19,-3.82 -1.764,-5.955 -0.575,-2.136 -1.199,-4.152 -1.883,-5.946 -0.676,-1.796 -1.425,-3.36 -2.134,-4.626 -0.712,-1.266 -1.382,-2.234 -1.875,-2.877 -0.242,-0.326 -0.453,-0.561 -0.587,-0.727 -0.138,-0.163 -0.213,-0.246 -0.219,-0.241 -0.006,0.005 0.058,0.098 0.184,0.269 0.123,0.174 0.323,0.417 0.553,0.749 0.471,0.657 1.118,1.633 1.809,2.901 0.688,1.27 1.418,2.831 2.081,4.623 0.671,1.789 1.287,3.8 1.861,5.932 0.573,2.127 1.045,4.193 1.788,5.973 0.366,0.891 0.794,1.705 1.273,2.418 0.488,0.707 1.024,1.308 1.568,1.795 1.094,0.975 2.208,1.466 2.996,1.66 0.794,0.197 1.25,0.166 1.25,0.166 z"
       fill="#263238"
       id="path188" />
    <path
       d="m 330.564,289.57 c 0.009,0.001 0.039,-0.133 0.089,-0.396 0.051,-0.288 0.119,-0.674 0.206,-1.164 0.174,-1.051 0.422,-2.547 0.737,-4.446 l -0.198,-0.028 c -0.042,0.297 -0.087,0.627 -0.134,0.967 l 0.008,-0.031 c -0.051,0.111 -0.111,0.238 -0.171,0.368 l 0.206,0.076 c 0.97,-3.35 2.033,-7.856 2.625,-13.182 0.306,-2.66 0.48,-5.523 0.501,-8.526 -0.029,-2.993 -0.008,-6.172 -0.809,-9.348 -0.331,-1.312 -0.834,-2.57 -1.49,-3.716 -0.655,-1.147 -1.436,-2.191 -2.264,-3.153 -1.666,-1.924 -3.459,-3.578 -5.097,-5.221 -3.304,-3.251 -6.282,-6.181 -8.791,-8.649 -2.496,-2.437 -4.524,-4.416 -5.949,-5.808 -0.693,-0.665 -1.238,-1.188 -1.631,-1.565 -0.177,-0.164 -0.318,-0.296 -0.431,-0.401 -0.098,-0.089 -0.151,-0.132 -0.156,-0.127 -0.004,0.005 0.039,0.057 0.129,0.154 0.106,0.112 0.239,0.252 0.405,0.427 0.381,0.389 0.91,0.93 1.581,1.616 1.405,1.411 3.404,3.419 5.866,5.892 2.492,2.484 5.451,5.433 8.734,8.705 1.632,1.65 3.422,3.313 5.061,5.214 1.639,1.893 3.05,4.134 3.67,6.726 0.786,3.105 0.774,6.271 0.808,9.252 -0.014,2.99 -0.176,5.841 -0.467,8.492 -0.563,5.307 -1.584,9.804 -2.507,13.157 l 0.205,0.076 c 0.059,-0.13 0.117,-0.259 0.167,-0.37 l 0.007,-0.015 0.002,-0.015 c 0.042,-0.341 0.083,-0.671 0.12,-0.969 l -0.198,-0.028 c -0.274,1.904 -0.491,3.405 -0.643,4.46 -0.066,0.493 -0.118,0.881 -0.156,1.172 -0.032,0.265 -0.044,0.402 -0.035,0.404 z"
       fill="#552200"
       id="path190" />
    <path
       d="m 337.011,251.715 c 0.011,-0.005 -0.038,-0.125 -0.144,-0.346 -0.128,-0.258 -0.286,-0.576 -0.478,-0.961 -0.414,-0.835 -1.07,-2.015 -1.928,-3.444 -0.854,-1.433 -1.949,-3.091 -3.239,-4.88 -1.307,-1.777 -2.818,-3.677 -4.514,-5.575 -1.708,-1.89 -3.438,-3.594 -5.066,-5.083 -1.642,-1.473 -3.174,-2.739 -4.508,-3.739 -1.33,-1.006 -2.434,-1.783 -3.22,-2.284 -0.363,-0.231 -0.662,-0.422 -0.905,-0.577 -0.208,-0.128 -0.322,-0.191 -0.329,-0.18 -0.007,0.011 0.092,0.095 0.287,0.243 0.232,0.17 0.518,0.379 0.864,0.634 0.759,0.536 1.836,1.344 3.14,2.373 1.309,1.023 2.817,2.304 4.438,3.784 1.608,1.496 3.321,3.198 5.02,5.078 1.688,1.889 3.199,3.773 4.514,5.53 1.3,1.769 2.413,3.405 3.293,4.814 0.884,1.406 1.572,2.563 2.025,3.375 0.216,0.372 0.394,0.678 0.539,0.926 0.127,0.211 0.199,0.318 0.211,0.312 z"
       fill="#552200"
       id="path192" />
    <path
       d="m 326.098,317.714 c 0.023,0.013 0.222,-0.28 0.562,-0.817 0.345,-0.536 0.835,-1.315 1.468,-2.26 1.255,-1.896 3.064,-4.469 5.278,-7.135 2.225,-2.657 4.465,-4.872 6.283,-6.226 1.8,-1.382 3.114,-1.922 3.08,-1.993 -0.01,-0.023 -0.336,0.11 -0.92,0.375 -0.3,0.119 -0.63,0.33 -1.025,0.558 -0.402,0.218 -0.826,0.515 -1.292,0.848 -1.881,1.316 -4.174,3.525 -6.413,6.198 -2.228,2.683 -4.012,5.293 -5.213,7.232 -0.607,0.967 -1.065,1.769 -1.371,2.329 -0.303,0.562 -0.459,0.878 -0.437,0.891 z"
       fill="#263238"
       id="path194" />
    <path
       d="m 331.778,358.92 13.434,-59.331 c -0.95,-2.752 -3.893,-5.668 -12.609,-9.06 -0.23,-0.331 -5.179,-2.079 -6.985,-3.343 -0.445,-0.311 -0.316,-2.323 -0.316,-2.323 -9.591,4.951 -13.125,-0.773 -24.319,0.435 l -0.135,0.18 c -0.03,0.491 -0.252,1.741 -0.388,2.098 -0.277,0.729 -0.757,1.202 -1.358,1.51 -1.7,0.872 -4.375,0.43 -6.207,0.775 l -14.844,2.561 c 0,0 -12.087,31.5 -10.486,43.824 1.6,12.325 1.297,33.648 1.297,33.648 l -1.297,3.118 11.297,2.317 10.243,0.635 c 2.523,0.156 5.054,0.121 7.572,-0.106 l 5.722,-0.515 c 4.376,-0.393 8.681,-1.362 12.804,-2.881 l 15.807,-5.824 c 0,-2.897 0.768,-7.718 0.768,-7.718 z"
       fill="#ffffff"
       id="path196" />
    <path
       d="m 257.366,363.48 c -4.863,0.18 -9.546,-2.256 -11.906,-6.512 -0.754,-1.36 -1.256,-2.881 -1.256,-4.522 0,-6.563 4.085,-15.979 5.442,-19.368 1.956,-4.886 20.595,-38.713 22.836,-38.232 2.241,0.48 3.46,0.654 3.46,0.654 l -10.61,48.142 33.753,5.538 -3.704,12.897 z"
       fill="#d9976c"
       id="path198" />
    <path
       d="m 256.49,312.538 17.155,9.102 5.668,-29.219 c 0,0 -7.268,0.651 -9.665,3.702 -2.396,3.05 -13.158,16.415 -13.158,16.415 z"
       fill="#ffffff"
       id="path200" />
    <path
       d="m 277.289,345.604 -4.619,-10.034 -2.02,-7.421 -6.139,-4.762 c 0,0 -2.039,0.237 -1.407,1.818 0.633,1.581 3.716,4.427 3.716,4.427 l 1.818,5.073 -2.956,-5.152 -4.317,-2.135 -4.268,0.316 c 0,0 -0.791,1.898 1.186,1.977 h 2.134 l 3.241,2.608 2.025,4.901 -3.052,-4.743 -4.506,-1.601 -2.846,0.732 c 0,0 -0.791,1.265 0.633,1.423 1.423,0.158 2.371,0.158 2.371,0.158 l 2.609,1.516 2.292,4.808 -4.031,-3.319 -5.218,-0.624 c 0,0 -0.87,1.255 0.474,1.73 1.344,0.474 4.032,1.897 4.032,1.897 l 2.904,4.012 z"
       fill="#d9976c"
       id="path202" />
    <path
       d="m 277.289,345.604 c -0.602,-0.088 -6.026,-0.874 -15.956,-2.316 l -0.033,-0.004 -0.02,-0.028 c -0.908,-1.249 -1.884,-2.591 -2.912,-4.006 l 0.03,0.027 c -0.91,-0.474 -1.864,-0.954 -2.864,-1.408 -0.251,-0.112 -0.504,-0.224 -0.762,-0.327 -0.25,-0.109 -0.532,-0.171 -0.792,-0.351 -0.262,-0.165 -0.432,-0.493 -0.42,-0.81 0.012,-0.317 0.124,-0.604 0.292,-0.868 l 0.031,-0.05 0.063,0.007 c 1.635,0.193 3.397,0.402 5.218,0.617 l 0.031,0.004 0.024,0.02 c 1.263,1.038 2.631,2.162 4.035,3.316 l -0.172,0.135 c -0.719,-1.506 -1.499,-3.138 -2.296,-4.806 l 0.046,0.05 c -0.811,-0.471 -1.705,-0.99 -2.609,-1.515 l 0.059,0.017 c -0.691,-0.008 -1.404,-0.058 -2.135,-0.131 -0.34,-0.04 -0.811,-0.053 -1.085,-0.439 -0.128,-0.19 -0.141,-0.427 -0.104,-0.627 0.041,-0.204 0.113,-0.387 0.218,-0.567 l 0.023,-0.04 0.049,-0.013 c 0.89,-0.229 1.863,-0.48 2.845,-0.733 l 0.036,-0.009 0.035,0.013 c 1.422,0.505 2.956,1.049 4.507,1.599 l 0.039,0.014 0.023,0.035 c 0.97,1.506 2.006,3.116 3.053,4.743 l -0.219,0.115 c -0.344,-0.833 -0.714,-1.728 -1.086,-2.628 -0.314,-0.762 -0.627,-1.52 -0.938,-2.274 l 0.036,0.05 c -1.09,-0.878 -2.17,-1.748 -3.24,-2.609 l 0.077,0.027 c -0.419,0 -0.838,0 -1.255,-10e-4 -0.422,-0.012 -0.822,0.031 -1.266,-0.044 -0.419,-0.069 -0.894,-0.349 -1.011,-0.814 -0.13,-0.443 -0.05,-0.883 0.099,-1.289 l 0.026,-0.069 0.078,-0.006 c 1.442,-0.106 2.865,-0.211 4.269,-0.314 l 0.033,-0.003 0.03,0.015 c 1.462,0.724 2.901,1.436 4.316,2.137 l 0.032,0.016 0.018,0.031 c 1.008,1.761 1.992,3.48 2.952,5.155 l -0.207,0.095 c -0.623,-1.745 -1.227,-3.433 -1.813,-5.075 l 0.028,0.044 c -1.094,-1.041 -2.123,-2.093 -2.992,-3.24 -0.218,-0.285 -0.412,-0.588 -0.589,-0.9 -0.162,-0.318 -0.308,-0.673 -0.272,-1.056 0.025,-0.391 0.309,-0.708 0.611,-0.89 0.312,-0.183 0.647,-0.286 0.996,-0.338 l 0.038,-0.006 0.034,0.026 c 2.214,1.723 4.25,3.309 6.131,4.773 l 0.023,0.018 0.008,0.027 c 0.756,2.804 1.419,5.262 2.002,7.426 l -0.004,-0.011 c 2.854,6.301 4.353,9.61 4.558,10.063 -0.211,-0.45 -1.75,-3.741 -4.681,-10.006 l -0.003,-0.004 -0.001,-0.006 c -0.593,-2.16 -1.268,-4.616 -2.037,-7.416 l 0.03,0.046 c -1.885,-1.458 -3.927,-3.037 -6.147,-4.753 l 0.073,0.02 c -0.314,0.048 -0.639,0.148 -0.913,0.313 -0.271,0.168 -0.496,0.423 -0.514,0.741 -0.037,0.64 0.427,1.25 0.826,1.809 0.856,1.125 1.886,2.175 2.973,3.203 l 0.02,0.019 0.009,0.025 c 0.59,1.641 1.196,3.328 1.822,5.072 l -0.206,0.096 c -0.962,-1.674 -1.949,-3.392 -2.959,-5.15 l 0.05,0.047 c -1.415,-0.699 -2.855,-1.41 -4.318,-2.132 l 0.062,0.012 c -1.404,0.105 -2.827,0.21 -4.268,0.318 l 0.104,-0.075 c -0.132,0.352 -0.199,0.77 -0.091,1.121 0.094,0.364 0.446,0.574 0.824,0.645 0.375,0.066 0.811,0.029 1.222,0.039 0.416,0 0.834,0 1.252,0 h 0.044 l 0.034,0.027 c 1.07,0.861 2.151,1.731 3.241,2.608 l 0.025,0.02 0.012,0.03 c 0.311,0.753 0.625,1.512 0.939,2.273 0.372,0.9 0.742,1.796 1.086,2.627 l -0.219,0.115 c -1.047,-1.627 -2.083,-3.237 -3.052,-4.743 l 0.062,0.049 c -1.55,-0.551 -3.083,-1.096 -4.505,-1.602 l 0.071,0.003 c -0.982,0.252 -1.956,0.502 -2.846,0.73 l 0.072,-0.053 c -0.167,0.291 -0.287,0.685 -0.118,0.934 0.083,0.12 0.223,0.209 0.388,0.25 0.16,0.046 0.337,0.064 0.521,0.083 0.724,0.073 1.436,0.123 2.111,0.132 l 0.033,10e-4 0.027,0.015 c 0.903,0.526 1.797,1.047 2.607,1.518 l 0.031,0.018 0.016,0.033 c 0.794,1.669 1.571,3.302 2.288,4.809 l 0.217,0.456 -0.389,-0.322 c -1.402,-1.156 -2.767,-2.284 -4.028,-3.324 l 0.055,0.024 c -1.82,-0.22 -3.582,-0.432 -5.217,-0.63 l 0.095,-0.042 c -0.146,0.225 -0.251,0.498 -0.26,0.757 -0.005,0.261 0.115,0.503 0.336,0.647 0.207,0.15 0.489,0.218 0.75,0.331 0.262,0.105 0.516,0.219 0.769,0.332 1.005,0.46 1.958,0.944 2.87,1.423 l 0.018,0.01 0.013,0.017 c 1.023,1.419 1.994,2.765 2.897,4.017 l -0.053,-0.032 c 9.913,1.54 15.329,2.382 15.93,2.475 z"
       fill="#8d4f27"
       id="path204" />
    <g
       opacity="0.3"
       id="g208">
      <path
         d="m 334.534,349.227 c 0,0 -4.839,14.832 -11.057,19.905 -3.338,2.723 -6.762,4.09 -12.39,3.683 -2.748,-0.199 -14.497,-3.219 -17.739,-4.149 l -19.336,-6.765 45.902,7.231 z"
         fill="#000000"
         id="path206" />
    </g>
    <path
       d="m 337.802,299.383 c 0,0 8.763,-2.082 8.923,16.326 0.16,18.407 -21.552,49.3 -24.821,51.928 -3.721,2.992 -3.386,5.031 -14.48,3.387 -13.915,-2.063 -32.703,-8.156 -32.703,-8.156 l 12.22,-11.383 24.81,-1.12 20.168,-41.457 c 0,0 -1,-10.325 5.883,-9.525 z"
       fill="#d9976c"
       id="path210" />
    <path
       d="m 295.381,362.077 c 0,0 6.151,3.87 13.096,3.671 6.944,-0.198 13.096,2.046 13.989,1.42 0.893,-0.626 0.992,-1.717 0,-2.213 -0.992,-0.497 -5.198,-1.092 -5.198,-1.092 l -3.632,-1.488 c 0,0 12.401,1.092 13.393,0.595 0.993,-0.496 1.985,-1.19 1.588,-2.281 -0.397,-1.092 -1.389,-1.092 -1.389,-1.092 0,0 2.679,0.099 2.579,-0.992 -0.099,-1.091 -1.091,-2.083 -1.488,-2.282 -0.397,-0.198 -5.6,-2.313 -5.6,-2.313 l -6.689,-1.33 6.426,-0.257 5.613,1.563 c 0,0 2.24,0.254 1.741,-1.631 -0.499,-1.885 -7.344,-3.969 -7.344,-3.969 l -8.731,-0.601 c 0,0 6.746,-0.986 7.441,-3.069 0.694,-2.084 -0.496,-3.274 -0.496,-3.274 0,0 -4.762,1.884 -7.044,2.281 -2.282,0.397 -5.06,1.29 -8.731,2.778 -3.671,1.488 -5.82,2.679 -5.82,2.679"
       fill="#d9976c"
       id="path212" />
    <path
       d="m 299.086,349.18 c 0,0 0.115,-0.075 0.351,-0.202 0.236,-0.128 0.588,-0.314 1.057,-0.547 0.936,-0.466 2.333,-1.125 4.17,-1.885 1.839,-0.749 4.099,-1.666 6.828,-2.417 0.683,-0.184 1.396,-0.351 2.141,-0.484 0.735,-0.138 1.483,-0.352 2.245,-0.588 1.524,-0.477 3.116,-1.054 4.768,-1.7 l 0.06,-0.024 0.038,0.044 c 0.614,0.698 0.846,1.686 0.7,2.631 l -0.068,0.353 -0.099,0.347 c -0.077,0.241 -0.22,0.458 -0.387,0.642 -0.347,0.362 -0.77,0.63 -1.212,0.855 -0.889,0.449 -1.855,0.764 -2.848,1.033 -0.996,0.265 -2.022,0.484 -3.08,0.652 l -0.008,-0.212 c 2.776,0.189 5.699,0.388 8.731,0.593 l 0.014,10e-4 0.012,0.004 c 1.754,0.561 3.526,1.205 5.232,2.104 0.424,0.229 0.842,0.479 1.236,0.775 0.195,0.15 0.386,0.309 0.555,0.498 0.167,0.188 0.329,0.399 0.402,0.667 0.054,0.248 0.104,0.507 0.051,0.776 -0.038,0.264 -0.188,0.532 -0.415,0.688 -0.455,0.314 -0.991,0.354 -1.505,0.32 h -0.008 l -0.011,-0.003 c -1.772,-0.493 -3.679,-1.024 -5.614,-1.562 l 0.038,0.004 c -2.039,0.082 -4.219,0.17 -6.426,0.258 l 0.019,-0.245 c 1.519,0.301 3.143,0.624 4.781,0.95 0.638,0.127 1.275,0.253 1.908,0.38 l 0.012,0.002 0.01,0.004 c 1.881,0.777 3.741,1.547 5.578,2.306 0.478,0.264 0.797,0.663 1.087,1.08 0.272,0.43 0.5,0.894 0.491,1.451 -0.026,0.309 -0.275,0.526 -0.502,0.639 -0.233,0.124 -0.48,0.189 -0.724,0.237 -0.492,0.096 -0.98,0.119 -1.473,0.111 l 0.005,-0.244 c 0.455,0.025 0.865,0.237 1.153,0.569 0.277,0.332 0.457,0.745 0.443,1.193 -0.024,0.45 -0.292,0.839 -0.601,1.108 -0.31,0.28 -0.664,0.485 -1.019,0.671 -0.079,0.045 -0.191,0.096 -0.304,0.119 -0.104,0.02 -0.207,0.036 -0.307,0.043 -0.201,0.02 -0.4,0.029 -0.598,0.034 -0.396,0.011 -0.789,0.008 -1.18,0 -0.782,-0.016 -1.556,-0.049 -2.323,-0.087 -3.068,-0.162 -6.027,-0.395 -8.865,-0.639 l 0.052,-0.213 c 1.236,0.508 2.446,1.005 3.63,1.491 l -0.026,-0.007 c 1.337,0.199 2.64,0.415 3.905,0.702 0.315,0.075 0.629,0.152 0.937,0.255 0.308,0.097 0.626,0.246 0.855,0.503 0.23,0.256 0.335,0.619 0.277,0.954 -0.059,0.333 -0.235,0.631 -0.468,0.854 -0.058,0.056 -0.116,0.111 -0.182,0.158 -0.056,0.049 -0.136,0.101 -0.224,0.132 -0.167,0.057 -0.326,0.055 -0.483,0.061 -0.312,-0.002 -0.614,-0.041 -0.912,-0.082 -0.597,-0.084 -1.177,-0.196 -1.75,-0.302 -1.144,-0.216 -2.254,-0.427 -3.335,-0.598 -2.16,-0.347 -4.201,-0.548 -6.094,-0.578 -0.473,-0.008 -0.936,-10e-4 -1.39,0.005 -0.456,-0.007 -0.903,-10e-4 -1.338,-0.019 -0.435,-0.035 -0.861,-0.058 -1.274,-0.103 -0.411,-0.057 -0.812,-0.113 -1.203,-0.168 -3.116,-0.54 -5.421,-1.523 -6.95,-2.222 -0.762,-0.361 -1.331,-0.67 -1.71,-0.885 -0.378,-0.217 -0.563,-0.346 -0.563,-0.346 0,0 0.051,0.025 0.148,0.078 0.102,0.057 0.245,0.136 0.431,0.238 0.384,0.206 0.957,0.504 1.722,0.855 1.534,0.678 3.84,1.639 6.942,2.158 0.389,0.052 0.788,0.106 1.197,0.161 0.411,0.041 0.834,0.062 1.266,0.095 0.432,0.015 0.875,0.007 1.328,0.012 0.455,-0.008 0.921,-0.018 1.396,-0.012 1.901,0.022 3.952,0.215 6.12,0.557 1.084,0.167 2.197,0.375 3.341,0.588 0.572,0.104 1.153,0.214 1.741,0.295 0.294,0.04 0.593,0.076 0.887,0.077 0.144,-0.005 0.296,-0.006 0.419,-0.05 0.103,-0.035 0.232,-0.15 0.331,-0.246 0.21,-0.201 0.361,-0.464 0.409,-0.745 0.046,-0.282 -0.038,-0.573 -0.231,-0.789 -0.196,-0.217 -0.47,-0.349 -0.768,-0.443 -0.297,-0.099 -0.607,-0.175 -0.919,-0.248 -1.254,-0.281 -2.558,-0.494 -3.889,-0.689 l -0.014,-0.002 -0.012,-0.005 c -1.184,-0.484 -2.396,-0.979 -3.633,-1.485 l -0.672,-0.275 0.724,0.061 c 2.836,0.239 5.795,0.468 8.858,0.625 0.766,0.038 1.538,0.07 2.316,0.084 0.389,0.008 0.779,0.01 1.169,-0.001 0.194,-0.004 0.39,-0.013 0.581,-0.033 0.097,-0.007 0.189,-0.022 0.279,-0.039 0.081,-0.017 0.151,-0.046 0.245,-0.098 0.345,-0.18 0.684,-0.38 0.967,-0.637 0.287,-0.25 0.502,-0.579 0.521,-0.941 0.015,-0.358 -0.146,-0.739 -0.384,-1.021 -0.238,-0.282 -0.611,-0.463 -0.97,-0.483 l 0.005,-0.244 c 0.469,0.006 0.954,-0.017 1.416,-0.109 0.231,-0.044 0.46,-0.107 0.658,-0.213 0.198,-0.101 0.358,-0.255 0.371,-0.447 0.01,-0.426 -0.196,-0.902 -0.453,-1.291 -0.263,-0.386 -0.596,-0.781 -0.991,-0.994 -1.831,-0.756 -3.686,-1.522 -5.561,-2.296 l 0.023,0.006 c -0.634,-0.126 -1.27,-0.252 -1.909,-0.379 -1.637,-0.326 -3.262,-0.649 -4.78,-0.951 l -1.027,-0.204 1.047,-0.042 c 2.207,-0.088 4.386,-0.174 6.425,-0.255 l 0.02,-10e-4 0.019,0.005 c 1.934,0.54 3.84,1.071 5.612,1.565 l -0.019,-0.003 c 0.461,0.033 0.975,-0.018 1.336,-0.273 0.371,-0.259 0.397,-0.77 0.275,-1.211 -0.128,-0.416 -0.503,-0.754 -0.87,-1.038 -0.377,-0.285 -0.786,-0.53 -1.203,-0.756 -1.68,-0.887 -3.45,-1.534 -5.188,-2.093 l 0.026,0.005 c -3.032,-0.211 -5.955,-0.415 -8.73,-0.608 l -0.942,-0.066 0.934,-0.146 c 1.046,-0.163 2.07,-0.379 3.057,-0.64 0.986,-0.264 1.943,-0.574 2.811,-1.01 0.432,-0.218 0.84,-0.478 1.16,-0.81 0.154,-0.171 0.278,-0.358 0.347,-0.57 l 0.096,-0.332 0.066,-0.337 c 0.145,-0.895 -0.087,-1.84 -0.641,-2.475 l 0.097,0.02 c -1.659,0.643 -3.254,1.215 -4.787,1.689 -0.767,0.233 -1.518,0.446 -2.266,0.582 -0.74,0.129 -1.451,0.292 -2.132,0.472 -2.72,0.734 -4.984,1.637 -6.827,2.371 -1.84,0.744 -3.242,1.388 -4.185,1.838 -0.464,0.228 -0.82,0.402 -1.067,0.524 -0.238,0.122 -0.362,0.18 -0.362,0.18 z"
       fill="#8d4f27"
       id="path214" />
    <path
       d="m 313.955,357.642 c 0.001,0.056 0.799,0.081 2.083,0.159 1.285,0.078 3.055,0.228 4.994,0.521 1.939,0.295 3.674,0.676 4.924,0.983 1.249,0.306 2.019,0.518 2.037,0.464 0.015,-0.044 -0.728,-0.346 -1.968,-0.719 -1.239,-0.374 -2.981,-0.8 -4.937,-1.098 -1.955,-0.295 -3.746,-0.405 -5.04,-0.415 -1.295,-0.01 -2.094,0.058 -2.093,0.105 z"
       fill="#8d4f27"
       id="path216" />
    <path
       d="m 323.349,319.253 21.212,10.3 c 0,0 10.345,-29.484 -5.506,-34.834 l -9.716,4.737 z"
       fill="#ffffff"
       id="path218" />
    <path
       d="m 270.594,320.027 c 0,0 1.374,-3.155 2.436,-4.482 1.079,-1.348 3.898,-3.411 3.898,-3.411"
       stroke="#303f46"
       stroke-width="0.609074"
       stroke-linecap="round"
       id="path220" />
    <path
       d="m 326.113,266.081 c 0.276,0 0.5,-0.224 0.5,-0.5 0,-0.276 -0.224,-0.499 -0.5,-0.499 -0.276,0 -0.5,0.223 -0.5,0.499 0,0.276 0.224,0.5 0.5,0.5 z"
       fill="#e3e2db"
       id="path222" />
    <path
       d="m 300.151,287.909 c -3.794,9.561 -7.12,19.01 -4.7,28.26 13.334,-4.011 22.75,-14.827 30.094,-28.926"
       stroke="#000000"
       stroke-width="0.95"
       stroke-linecap="square"
       id="path224" />
    <path
       d="m 294.025,320.868 c 1.343,0 2.432,-1.12 2.432,-2.501 0,-1.381 -1.089,-2.501 -2.432,-2.501 -1.343,0 -2.432,1.12 -2.432,2.501 0,1.381 1.089,2.501 2.432,2.501 z"
       fill="#c961de"
       stroke="#000000"
       stroke-width="1.048"
       stroke-linecap="round"
       id="path226" />
    <path
       d="m 295.38,362.078 c 0.003,0.068 -8.505,0.438 -19.001,0.826 -10.5,0.387 -19.011,0.645 -19.013,0.576 -0.003,-0.068 8.504,-0.438 19.004,-0.826 10.495,-0.387 19.008,-0.645 19.01,-0.576 z"
       fill="#8d4f27"
       id="path228" />
    <path
       d="m 261.345,343.209 c 0.004,0.045 -0.545,0.096 -1.402,0.307 -0.85,0.221 -2.013,0.628 -3.133,1.367 -1.128,0.726 -1.968,1.633 -2.447,2.365 -0.488,0.732 -0.661,1.259 -0.705,1.243 -0.017,-0.006 0.018,-0.139 0.096,-0.379 0.082,-0.236 0.225,-0.574 0.46,-0.958 0.453,-0.776 1.301,-1.735 2.46,-2.479 1.15,-0.761 2.355,-1.151 3.23,-1.331 0.442,-0.081 0.8,-0.133 1.051,-0.139 0.251,-0.014 0.389,-0.013 0.39,0.004 z"
       fill="#8d4f27"
       id="path230" />
    <path
       d="m 326.615,319.443 c 0.008,0.003 -0.02,0.092 -0.081,0.259 -0.074,0.192 -0.166,0.432 -0.278,0.727 -0.244,0.63 -0.617,1.534 -1.091,2.645 -0.948,2.222 -2.334,5.26 -3.968,8.564 -1.636,3.304 -3.197,6.255 -4.348,8.378 -0.576,1.061 -1.048,1.917 -1.382,2.504 -0.157,0.273 -0.285,0.496 -0.388,0.674 -0.091,0.153 -0.143,0.231 -0.151,0.227 -0.007,-0.004 0.029,-0.091 0.106,-0.251 0.092,-0.183 0.207,-0.414 0.348,-0.696 0.325,-0.63 0.769,-1.491 1.312,-2.541 1.111,-2.143 2.645,-5.104 4.28,-8.406 1.632,-3.3 3.041,-6.322 4.029,-8.524 0.48,-1.079 0.874,-1.963 1.163,-2.612 0.13,-0.286 0.236,-0.521 0.321,-0.708 0.076,-0.161 0.12,-0.243 0.128,-0.24 z"
       fill="#263238"
       id="path232" />
    <path
       d="m 329.665,260.181 c 0.004,0.085 0.011,0.16 0.012,0.26 l 2.072,-0.236 c -0.002,-0.128 -0.007,-0.196 -0.014,-0.246 z"
       fill="#e3e2db"
       id="path234" />
  </g>
  <path
     d="m 507.27785,202.14394 c 0,108.39107 -89.00626,196.40261 -198.98174,196.40261 -109.97327,0 -198.98176,-88.01154 -198.98176,-196.40261 0,-108.391042 89.00849,-196.4025953 198.98176,-196.4025953 109.97548,0 198.98174,88.0115533 198.98174,196.4025953 z"
     stroke="#000000"
     stroke-width="8.79285"
     id="path238" />
  <mask
     id="mask0_180_162"
     maskUnits="userSpaceOnUse"
     x="196"
     y="374"
     width="65"
     height="74">
    <rect
       x="196.345"
       y="374.25201"
       width="63.683201"
       height="73.055801"
       fill="url(#paint7_linear_180_162)"
       id="rect240" />
  </mask>
  <g
     mask="url(#mask0_180_162)"
     id="g281"
     transform="matrix(2.2253236,0,0,2.2253236,-336.76066,-437.09805)">
    <g
       opacity="0.8"
       id="g279">
      <path
         d="m 229.886,378.598 15.735,8.53 7.522,12.485 -11.305,40.993 -11.952,-6.912 z"
         fill="url(#paint8_linear_180_162)"
         id="path243"
         style="fill:url(#paint8_linear_180_162)" />
      <path
         opacity="0.8"
         d="m 229.886,378.598 v 28.311 l 13.897,-8.185 1.838,-11.596 z"
         fill="url(#paint9_linear_180_162)"
         fill-opacity="0.7"
         id="path245"
         style="fill:url(#paint9_linear_180_162)" />
      <g
         opacity="0.8"
         id="g251">
        <path
           d="m 229.886,378.598 -15.737,8.532 -7.52,12.483 11.306,40.993 11.951,-6.912 z"
           fill="url(#paint10_linear_180_162)"
           fill-opacity="0.7"
           id="path247"
           style="fill:url(#paint10_linear_180_162)" />
        <path
           d="m 229.886,378.598 -15.737,8.532 -7.52,12.483 11.306,40.993 11.951,-6.912 z"
           fill="url(#paint11_linear_180_162)"
           fill-opacity="0.5"
           id="path249"
           style="fill:url(#paint11_linear_180_162)" />
      </g>
      <path
         d="m 241.838,440.606 -11.952,-6.912 v 13.824 z"
         fill="url(#paint12_linear_180_162)"
         id="path253"
         style="fill:url(#paint12_linear_180_162)" />
      <path
         d="m 229.886,400.367 -7.914,-4.577 7.914,-4.577 7.914,4.577 z"
         fill="url(#paint13_linear_180_162)"
         fill-opacity="0.5"
         id="path255"
         style="fill:url(#paint13_linear_180_162)" />
      <path
         d="m 217.934,440.606 11.953,6.912 v -13.824 z"
         fill="url(#paint14_linear_180_162)"
         fill-opacity="0.8"
         id="path257"
         style="fill:url(#paint14_linear_180_162)" />
      <path
         d="m 229.886,444.605 -6.41,-3.708 6.41,-3.707 6.411,3.707 z"
         fill="url(#paint15_linear_180_162)"
         fill-opacity="0.6"
         id="path259"
         style="fill:url(#paint15_linear_180_162)" />
      <path
         opacity="0.8"
         d="m 229.886,378.598 v 28.311 l -13.897,-8.185 -1.838,-11.596 z"
         fill="url(#paint16_linear_180_162)"
         id="path261"
         style="fill:url(#paint16_linear_180_162)" />
      <path
         d="m 206.629,399.613 7.522,-12.485 1.838,11.596 z"
         fill="url(#paint17_linear_180_162)"
         fill-opacity="0.7"
         id="path263"
         style="fill:url(#paint17_linear_180_162)" />
      <path
         d="m 229.886,411.152 -12.88,-7.449 12.88,-7.449 12.88,7.449 z"
         fill="url(#paint18_linear_180_162)"
         fill-opacity="0.7"
         id="path265"
         style="fill:url(#paint18_linear_180_162)" />
      <path
         d="m 229.886,411.152 -12.88,-7.449 12.88,-7.449 12.88,7.449 z"
         fill="url(#paint19_linear_180_162)"
         fill-opacity="0.7"
         id="path267"
         style="fill:url(#paint19_linear_180_162)" />
      <path
         d="m 229.887,396.255 -12.88,7.448 4.966,-7.914 7.914,-4.576 z"
         fill="url(#paint20_linear_180_162)"
         fill-opacity="0.9"
         id="path269"
         style="fill:url(#paint20_linear_180_162)" />
      <path
         d="m 229.886,396.252 12.88,7.449 -6.469,37.196 -6.411,-3.707 z"
         fill="url(#paint21_linear_180_162)"
         fill-opacity="0.6"
         id="path271"
         style="fill:url(#paint21_linear_180_162)" />
      <path
         d="m 229.886,396.252 -12.879,7.449 6.469,37.196 6.41,-3.707 z"
         fill="url(#paint22_linear_180_162)"
         fill-opacity="0.9"
         id="path273"
         style="fill:url(#paint22_linear_180_162)" />
      <path
         d="m 229.887,396.255 12.879,7.448 -4.966,-7.914 -7.913,-4.576 z"
         fill="url(#paint23_linear_180_162)"
         fill-opacity="0.9"
         id="path275"
         style="fill:url(#paint23_linear_180_162)" />
      <path
         d="m 253.143,399.613 -7.522,-12.485 -1.838,11.596 z"
         fill="url(#paint24_linear_180_162)"
         fill-opacity="0.7"
         id="path277"
         style="fill:url(#paint24_linear_180_162)" />
    </g>
  </g>
  <g
     filter="url(#filter1_f_180_162)"
     id="g285"
     transform="matrix(2.2253236,0,0,2.2253236,-336.76066,-437.09805)">
    <ellipse
       cx="229.886"
       cy="385.591"
       rx="43.885399"
       ry="19.1656"
       fill="url(#paint25_radial_180_162)"
       fill-opacity="0.6"
       id="ellipse283"
       style="fill:url(#paint25_radial_180_162)" />
  </g>
  <g
     filter="url(#filter2_f_180_162)"
     id="g289"
     transform="matrix(2.2253236,0,0,2.2253236,-336.76066,-437.09805)">
    <ellipse
       cx="229.886"
       cy="385.591"
       rx="31.1723"
       ry="13.6135"
       fill="url(#paint26_radial_180_162)"
       fill-opacity="0.6"
       id="ellipse287"
       style="fill:url(#paint26_radial_180_162)" />
  </g>
  <path
     d="m 174.81008,385.83328 50.83083,29.39653 -50.83083,29.39875 -50.83085,-29.39875 z"
     fill="url(#paint27_linear_180_162)"
     fill-opacity="0.5"
     id="path291"
     style="fill:url(#paint27_linear_180_162);stroke-width:2.22533" />
  <path
     d="m 174.81008,425.08353 -35.01548,-18.98422 -16.73888,-27.78318 25.15951,-91.22268 26.59485,15.38366 z"
     fill="url(#paint28_linear_180_162)"
     id="path293"
     style="fill:url(#paint28_linear_180_162);stroke-width:2.22533" />
  <path
     opacity="0.8"
     d="m 174.81008,425.08131 v -63.00114 l -30.92534,18.21428 -4.09014,25.80486 z"
     fill="url(#paint29_linear_180_162)"
     fill-opacity="0.7"
     id="path295"
     style="fill:url(#paint29_linear_180_162);stroke-width:2.22533" />
  <g
     opacity="0.8"
     id="g301"
     transform="matrix(2.2253236,0,0,2.2253236,-336.76066,-437.09805)">
    <path
       d="m 229.886,387.44 15.738,-8.531 7.519,-12.484 -11.305,-40.993 -11.952,6.913 z"
       fill="url(#paint30_linear_180_162)"
       fill-opacity="0.7"
       id="path297"
       style="fill:url(#paint30_linear_180_162)" />
    <path
       d="m 229.886,387.44 15.738,-8.531 7.519,-12.484 -11.305,-40.993 -11.952,6.913 z"
       fill="url(#paint31_linear_180_162)"
       fill-opacity="0.5"
       id="path299"
       style="fill:url(#paint31_linear_180_162)" />
  </g>
  <path
     d="m 148.213,287.09345 26.59929,15.38144 v -30.76288 z"
     fill="url(#paint32_linear_180_162)"
     id="path303"
     style="fill:url(#paint32_linear_180_162);stroke-width:2.22533" />
  <path
     d="m 174.81008,376.64046 17.6112,10.18531 -17.6112,10.18532 -17.61122,-10.18532 z"
     fill="url(#paint33_linear_180_162)"
     fill-opacity="0.5"
     id="path305"
     style="fill:url(#paint33_linear_180_162);stroke-width:2.22533" />
  <path
     d="m 201.40714,287.09345 -26.59706,-15.38144 v 30.76288 z"
     fill="url(#paint34_linear_180_162)"
     fill-opacity="0.8"
     id="path307"
     style="fill:url(#paint34_linear_180_162);stroke-width:2.22533" />
  <path
     d="m 174.81008,278.19438 14.26653,8.24928 -14.26653,8.25149 -14.26433,-8.25149 z"
     fill="url(#paint35_linear_180_162)"
     fill-opacity="0.6"
     id="path309"
     style="fill:url(#paint35_linear_180_162);stroke-width:2.22533" />
  <path
     opacity="0.8"
     d="m 174.81008,425.08131 v -63.00114 l 30.92532,18.21428 4.09014,25.80486 z"
     fill="url(#paint36_linear_180_162)"
     id="path311"
     style="fill:url(#paint36_linear_180_162);stroke-width:2.22533" />
  <path
     d="m 226.56665,378.31613 -16.74111,27.78318 -4.08792,-25.80486 z"
     fill="url(#paint37_linear_180_162)"
     fill-opacity="0.7"
     id="path313"
     style="fill:url(#paint37_linear_180_162);stroke-width:2.22533" />
  <path
     d="m 174.81008,352.63813 28.66215,16.57421 -28.66215,16.57644 -28.66218,-16.57644 z"
     fill="url(#paint38_linear_180_162)"
     fill-opacity="0.7"
     id="path315"
     style="fill:url(#paint38_linear_180_162);stroke-width:2.22533" />
  <path
     d="m 174.81008,352.63813 28.66215,16.57421 -28.66215,16.57644 -28.66218,-16.57644 z"
     fill="url(#paint39_linear_180_162)"
     fill-opacity="0.7"
     id="path317"
     style="fill:url(#paint39_linear_180_162);stroke-width:2.22533" />
  <path
     d="m 174.81008,385.79099 28.65994,-16.57642 -11.05096,17.6112 -17.60898,10.18532 z"
     fill="url(#paint40_linear_180_162)"
     fill-opacity="0.9"
     id="path319"
     style="fill:url(#paint40_linear_180_162);stroke-width:2.22533" />
  <path
     d="m 174.81008,385.79545 -28.65995,-16.57644 14.39562,-82.77312 14.26433,8.24926 z"
     fill="url(#paint41_linear_180_162)"
     fill-opacity="0.6"
     id="path321"
     style="fill:url(#paint41_linear_180_162);stroke-width:2.22533" />
  <path
     d="m 174.81008,385.79545 28.66215,-16.57644 -14.39562,-82.77312 -14.26653,8.24926 z"
     fill="url(#paint42_linear_180_162)"
     fill-opacity="0.9"
     id="path323"
     style="fill:url(#paint42_linear_180_162);stroke-width:2.22533" />
  <path
     d="m 174.81008,385.79099 -28.66218,-16.57642 11.05096,17.6112 17.61122,10.18532 z"
     fill="url(#paint43_linear_180_162)"
     fill-opacity="0.9"
     id="path325"
     style="fill:url(#paint43_linear_180_162);stroke-width:2.22533" />
  <path
     d="m 123.05572,378.31613 16.73888,27.78318 4.09014,-25.80486 z"
     fill="url(#paint44_linear_180_162)"
     fill-opacity="0.7"
     id="path327"
     style="fill:url(#paint44_linear_180_162);stroke-width:2.22533" />
  <defs
     id="defs646">
    <filter
       id="filter0_f_180_162"
       x="0.0124969"
       y="0.44426"
       width="577.05298"
       height="577.05298"
       filterUnits="userSpaceOnUse"
       color-interpolation-filters="sRGB">
      <feFlood
         flood-opacity="0"
         result="BackgroundImageFix"
         id="feFlood329" />
      <feBlend
         mode="normal"
         in="SourceGraphic"
         in2="BackgroundImageFix"
         result="shape"
         id="feBlend331" />
      <feGaussianBlur
         stdDeviation="85.9"
         result="effect1_foregroundBlur_180_162"
         id="feGaussianBlur333" />
    </filter>
    <filter
       id="filter1_f_180_162"
       x="178.592"
       y="359.017"
       width="102.587"
       height="53.147499"
       filterUnits="userSpaceOnUse"
       color-interpolation-filters="sRGB">
      <feFlood
         flood-opacity="0"
         result="BackgroundImageFix"
         id="feFlood336" />
      <feBlend
         mode="normal"
         in="SourceGraphic"
         in2="BackgroundImageFix"
         result="shape"
         id="feBlend338" />
      <feGaussianBlur
         stdDeviation="3.70408"
         result="effect1_foregroundBlur_180_162"
         id="feGaussianBlur340" />
    </filter>
    <filter
       id="filter2_f_180_162"
       x="191.306"
       y="364.569"
       width="77.161003"
       height="42.043301"
       filterUnits="userSpaceOnUse"
       color-interpolation-filters="sRGB">
      <feFlood
         flood-opacity="0"
         result="BackgroundImageFix"
         id="feFlood343" />
      <feBlend
         mode="normal"
         in="SourceGraphic"
         in2="BackgroundImageFix"
         result="shape"
         id="feBlend345" />
      <feGaussianBlur
         stdDeviation="3.70408"
         result="effect1_foregroundBlur_180_162"
         id="feGaussianBlur347" />
    </filter>
    <radialGradient
       id="paint0_radial_180_162"
       cx="0"
       cy="0"
       r="1"
       gradientUnits="userSpaceOnUse"
       gradientTransform="matrix(1.4004212,131.16752,-131.16752,1.4004212,276.169,285.47)">
      <stop
         stop-color="#2954A3"
         id="stop350" />
      <stop
         offset="1"
         stop-color="#101241"
         id="stop352" />
    </radialGradient>
    <radialGradient
       id="paint1_angular_180_162"
       cx="0"
       cy="0"
       r="1"
       gradientUnits="userSpaceOnUse"
       gradientTransform="matrix(134.6708,31.183562,-14.581745,62.973412,282.524,331.569)">
      <stop
         offset="0.458333"
         stop-color="white"
         id="stop355" />
      <stop
         offset="0.717799"
         stop-color="white"
         stop-opacity="0"
         id="stop357" />
      <stop
         offset="0.782437"
         stop-color="white"
         stop-opacity="0"
         id="stop359" />
      <stop
         offset="1"
         stop-color="white"
         stop-opacity="0.4"
         id="stop361" />
    </radialGradient>
    <radialGradient
       id="paint2_angular_180_162"
       cx="0"
       cy="0"
       r="1"
       gradientUnits="userSpaceOnUse"
       gradientTransform="matrix(134.6708,31.183562,-14.581745,62.973412,282.427,331.992)">
      <stop
         offset="0.458333"
         stop-color="white"
         id="stop364" />
      <stop
         offset="0.717799"
         stop-color="white"
         stop-opacity="0"
         id="stop366" />
      <stop
         offset="0.782437"
         stop-color="white"
         stop-opacity="0"
         id="stop368" />
      <stop
         offset="1"
         stop-color="white"
         stop-opacity="0.4"
         id="stop370" />
    </radialGradient>
    <radialGradient
       id="paint3_angular_180_162"
       cx="0"
       cy="0"
       r="1"
       gradientUnits="userSpaceOnUse"
       gradientTransform="matrix(134.6708,31.183562,-14.527199,62.737845,282.134,333.254)">
      <stop
         offset="0.458333"
         stop-color="white"
         id="stop373" />
      <stop
         offset="0.717799"
         stop-color="white"
         stop-opacity="0"
         id="stop375" />
      <stop
         offset="0.782437"
         stop-color="white"
         stop-opacity="0"
         id="stop377" />
      <stop
         offset="1"
         stop-color="white"
         stop-opacity="0.4"
         id="stop379" />
    </radialGradient>
    <radialGradient
       id="paint4_angular_180_162"
       cx="0"
       cy="0"
       r="1"
       gradientUnits="userSpaceOnUse"
       gradientTransform="matrix(134.6708,31.183562,-14.482804,62.546117,281.704,335.113)">
      <stop
         offset="0.458333"
         stop-color="white"
         id="stop382" />
      <stop
         offset="0.717799"
         stop-color="white"
         stop-opacity="0"
         id="stop384" />
      <stop
         offset="0.782437"
         stop-color="white"
         stop-opacity="0"
         id="stop386" />
      <stop
         offset="1"
         stop-color="white"
         stop-opacity="0.4"
         id="stop388" />
    </radialGradient>
    <radialGradient
       id="paint5_angular_180_162"
       cx="0"
       cy="0"
       r="1"
       gradientUnits="userSpaceOnUse"
       gradientTransform="matrix(134.6708,31.183562,-14.406217,62.215369,281.098,337.726)">
      <stop
         offset="0.458333"
         stop-color="white"
         id="stop391" />
      <stop
         offset="0.717799"
         stop-color="white"
         stop-opacity="0"
         id="stop393" />
      <stop
         offset="0.782437"
         stop-color="white"
         stop-opacity="0"
         id="stop395" />
      <stop
         offset="1"
         stop-color="white"
         stop-opacity="0.4"
         id="stop397" />
    </radialGradient>
    <linearGradient
       id="paint6_linear_180_162"
       x1="318.26199"
       y1="314.20099"
       x2="236.27499"
       y2="228.157"
       gradientUnits="userSpaceOnUse"
       gradientTransform="matrix(2.2253235,0,0,2.2253235,-336.76066,-437.09804)">
      <stop
         stop-color="#5858B5"
         id="stop400" />
      <stop
         offset="1"
         stop-color="#C261DC"
         id="stop402" />
    </linearGradient>
    <linearGradient
       id="paint7_linear_180_162"
       x1="228.187"
       y1="345.39401"
       x2="228.187"
       y2="424.362"
       gradientUnits="userSpaceOnUse">
      <stop
         id="stop405" />
      <stop
         offset="1"
         stop-opacity="0"
         id="stop407" />
    </linearGradient>
    <linearGradient
       id="paint8_linear_180_162"
       x1="184.10899"
       y1="444.94501"
       x2="180.754"
       y2="398.59"
       gradientUnits="userSpaceOnUse">
      <stop
         stop-color="#3D79ED"
         id="stop410" />
      <stop
         offset="0.265625"
         stop-color="#3458C1"
         stop-opacity="0.7"
         id="stop412" />
      <stop
         offset="0.618879"
         stop-color="#3753B8"
         stop-opacity="0.7"
         id="stop414" />
      <stop
         offset="0.895833"
         stop-color="#5BB0FF"
         stop-opacity="0.9"
         id="stop416" />
      <stop
         offset="1"
         stop-color="#5BB0FF"
         stop-opacity="0.6"
         id="stop418" />
    </linearGradient>
    <linearGradient
       id="paint9_linear_180_162"
       x1="231.74699"
       y1="382.33401"
       x2="239.842"
       y2="400.28601"
       gradientUnits="userSpaceOnUse">
      <stop
         offset="0.046875"
         stop-color="white"
         id="stop421" />
      <stop
         offset="0.427083"
         stop-color="#DFF4FF"
         id="stop423" />
      <stop
         offset="0.994792"
         stop-color="#0E42C8"
         id="stop425" />
    </linearGradient>
    <linearGradient
       id="paint10_linear_180_162"
       x1="206.629"
       y1="376.89001"
       x2="233.56799"
       y2="397.44299"
       gradientUnits="userSpaceOnUse">
      <stop
         offset="0.280479"
         stop-color="white"
         id="stop428" />
      <stop
         offset="0.469567"
         stop-color="#FF79DA"
         id="stop430" />
      <stop
         offset="0.692708"
         stop-color="#3D3AE3"
         stop-opacity="0.9"
         id="stop432" />
    </linearGradient>
    <linearGradient
       id="paint11_linear_180_162"
       x1="206.629"
       y1="379.763"
       x2="233.25999"
       y2="405.32199"
       gradientUnits="userSpaceOnUse">
      <stop
         offset="0.161458"
         stop-color="white"
         id="stop435" />
      <stop
         offset="1"
         stop-color="white"
         stop-opacity="0"
         id="stop437" />
    </linearGradient>
    <linearGradient
       id="paint12_linear_180_162"
       x1="229.856"
       y1="447.289"
       x2="236.133"
       y2="437.005"
       gradientUnits="userSpaceOnUse">
      <stop
         stop-color="#1AD6FF"
         id="stop440" />
      <stop
         offset="1"
         stop-color="#496BE4"
         stop-opacity="0.6"
         id="stop442" />
      <stop
         offset="1"
         stop-color="#1F3CA3"
         id="stop444" />
    </linearGradient>
    <linearGradient
       id="paint13_linear_180_162"
       x1="225.34399"
       y1="393.20801"
       x2="236.23399"
       y2="395.79001"
       gradientUnits="userSpaceOnUse">
      <stop
         stop-color="#81FF6C"
         id="stop447" />
      <stop
         offset="1"
         stop-color="#31F3FF"
         id="stop449" />
    </linearGradient>
    <linearGradient
       id="paint14_linear_180_162"
       x1="217.93401"
       y1="441.315"
       x2="229.328"
       y2="442.37399"
       gradientUnits="userSpaceOnUse">
      <stop
         stop-color="#FF79C9"
         id="stop452" />
      <stop
         offset="1"
         stop-color="#1F3CA3"
         id="stop454" />
    </linearGradient>
    <linearGradient
       id="paint15_linear_180_162"
       x1="224.715"
       y1="440.02899"
       x2="232.276"
       y2="440.897"
       gradientUnits="userSpaceOnUse">
      <stop
         stop-color="#52FF6E"
         id="stop457" />
      <stop
         offset="1"
         stop-color="#31FFFF"
         id="stop459" />
    </linearGradient>
    <linearGradient
       id="paint16_linear_180_162"
       x1="217.228"
       y1="383.09"
       x2="223.114"
       y2="403.979"
       gradientUnits="userSpaceOnUse">
      <stop
         offset="0.103809"
         stop-color="white"
         id="stop462" />
      <stop
         offset="0.436548"
         stop-color="#FFAACE"
         stop-opacity="0.8"
         id="stop464" />
      <stop
         offset="0.71875"
         stop-color="#6F97FF"
         stop-opacity="0.8"
         id="stop466" />
    </linearGradient>
    <linearGradient
       id="paint17_linear_180_162"
       x1="211.30901"
       y1="390.349"
       x2="215.989"
       y2="399.61301"
       gradientUnits="userSpaceOnUse">
      <stop
         stop-color="white"
         id="stop469" />
      <stop
         offset="0.591466"
         stop-color="#FF94D4"
         id="stop471" />
      <stop
         offset="1"
         stop-color="#C994FF"
         id="stop473" />
    </linearGradient>
    <linearGradient
       id="paint18_linear_180_162"
       x1="222.494"
       y1="399.50101"
       x2="240.218"
       y2="403.703"
       gradientUnits="userSpaceOnUse">
      <stop
         stop-color="#81FF6C"
         id="stop476" />
      <stop
         offset="1"
         stop-color="#31F3FF"
         id="stop478" />
    </linearGradient>
    <linearGradient
       id="paint19_linear_180_162"
       x1="229.886"
       y1="396.789"
       x2="229.886"
       y2="411.492"
       gradientUnits="userSpaceOnUse">
      <stop
         stop-color="white"
         id="stop481" />
      <stop
         offset="1"
         stop-color="white"
         stop-opacity="0"
         id="stop483" />
    </linearGradient>
    <linearGradient
       id="paint20_linear_180_162"
       x1="216.379"
       y1="403.703"
       x2="229.56"
       y2="391.80099"
       gradientUnits="userSpaceOnUse">
      <stop
         offset="0.149863"
         stop-color="white"
         id="stop486" />
      <stop
         offset="0.300261"
         stop-color="#8CFF31"
         id="stop488" />
      <stop
         offset="0.449118"
         stop-color="#45C3EB"
         id="stop490" />
      <stop
         offset="1"
         stop-color="#72E6FF"
         id="stop492" />
    </linearGradient>
    <linearGradient
       id="paint21_linear_180_162"
       x1="235.63699"
       y1="396.25201"
       x2="256.06699"
       y2="410.56799"
       gradientUnits="userSpaceOnUse">
      <stop
         stop-color="#6CFFED"
         id="stop495" />
      <stop
         offset="1"
         stop-color="#197F9F"
         id="stop497" />
    </linearGradient>
    <linearGradient
       id="paint22_linear_180_162"
       x1="184.875"
       y1="412.98999"
       x2="206.215"
       y2="435.33499"
       gradientUnits="userSpaceOnUse">
      <stop
         offset="0.464598"
         stop-color="white"
         id="stop500" />
      <stop
         offset="0.790313"
         stop-color="#6DF390"
         id="stop502" />
      <stop
         offset="1"
         stop-color="#21CAFF"
         stop-opacity="0.9"
         id="stop504" />
    </linearGradient>
    <linearGradient
       id="paint23_linear_180_162"
       x1="242.76601"
       y1="403.703"
       x2="230.21201"
       y2="391.819"
       gradientUnits="userSpaceOnUse">
      <stop
         offset="0.125"
         stop-color="white"
         id="stop507" />
      <stop
         offset="0.297772"
         stop-color="#8CFF31"
         id="stop509" />
      <stop
         offset="0.447917"
         stop-color="#5BF5FF"
         id="stop511" />
    </linearGradient>
    <linearGradient
       id="paint24_linear_180_162"
       x1="245.131"
       y1="386.11401"
       x2="246.946"
       y2="399.61301"
       gradientUnits="userSpaceOnUse">
      <stop
         stop-color="#DFF4FF"
         id="stop514" />
      <stop
         offset="0.994792"
         stop-color="#0E42C8"
         id="stop516" />
    </linearGradient>
    <radialGradient
       id="paint25_radial_180_162"
       cx="0"
       cy="0"
       r="1"
       gradientUnits="userSpaceOnUse"
       gradientTransform="matrix(0,19.1656,-43.8854,0,229.886,385.591)">
      <stop
         stop-color="#739AFF"
         id="stop519" />
      <stop
         offset="1"
         stop-color="#6978FF"
         stop-opacity="0"
         id="stop521" />
    </radialGradient>
    <radialGradient
       id="paint26_radial_180_162"
       cx="0"
       cy="0"
       r="1"
       gradientUnits="userSpaceOnUse"
       gradientTransform="matrix(0,13.6135,-31.1723,0,229.886,385.591)">
      <stop
         stop-color="#739AFF"
         id="stop524" />
      <stop
         offset="1"
         stop-color="#6978FF"
         stop-opacity="0"
         id="stop526" />
    </radialGradient>
    <linearGradient
       id="paint27_linear_180_162"
       x1="241.30701"
       y1="371.59299"
       x2="218.465"
       y2="394.43399"
       gradientUnits="userSpaceOnUse"
       gradientTransform="matrix(2.2253235,0,0,2.2253235,-336.76066,-437.09804)">
      <stop
         stop-color="#6C7BFF"
         id="stop529" />
      <stop
         offset="1"
         stop-color="#31B5FF"
         id="stop531" />
    </linearGradient>
    <linearGradient
       id="paint28_linear_180_162"
       x1="275.664"
       y1="321.09399"
       x2="279.01801"
       y2="367.448"
       gradientUnits="userSpaceOnUse"
       gradientTransform="matrix(2.2253235,0,0,2.2253235,-336.76066,-437.09804)">
      <stop
         stop-color="#3D79ED"
         id="stop534" />
      <stop
         offset="0.265625"
         stop-color="#3458C1"
         stop-opacity="0.7"
         id="stop536" />
      <stop
         offset="0.618879"
         stop-color="#3753B8"
         stop-opacity="0.7"
         id="stop538" />
      <stop
         offset="0.895833"
         stop-color="#5BB0FF"
         stop-opacity="0.9"
         id="stop540" />
      <stop
         offset="1"
         stop-color="#5BB0FF"
         stop-opacity="0.6"
         id="stop542" />
    </linearGradient>
    <linearGradient
       id="paint29_linear_180_162"
       x1="228.02499"
       y1="383.70401"
       x2="219.931"
       y2="365.75201"
       gradientUnits="userSpaceOnUse"
       gradientTransform="matrix(2.2253235,0,0,2.2253235,-336.76066,-437.09804)">
      <stop
         offset="0.046875"
         stop-color="white"
         id="stop545" />
      <stop
         offset="0.427083"
         stop-color="#DFF4FF"
         id="stop547" />
      <stop
         offset="0.994792"
         stop-color="#0E42C8"
         id="stop549" />
    </linearGradient>
    <linearGradient
       id="paint30_linear_180_162"
       x1="253.14301"
       y1="389.14899"
       x2="226.20399"
       y2="368.595"
       gradientUnits="userSpaceOnUse">
      <stop
         offset="0.280479"
         stop-color="white"
         id="stop552" />
      <stop
         offset="0.469567"
         stop-color="#FF79DA"
         id="stop554" />
      <stop
         offset="0.692708"
         stop-color="#3D3AE3"
         stop-opacity="0.9"
         id="stop556" />
    </linearGradient>
    <linearGradient
       id="paint31_linear_180_162"
       x1="253.14301"
       y1="386.27499"
       x2="226.513"
       y2="360.71701"
       gradientUnits="userSpaceOnUse">
      <stop
         offset="0.161458"
         stop-color="white"
         id="stop559" />
      <stop
         offset="1"
         stop-color="white"
         stop-opacity="0"
         id="stop561" />
    </linearGradient>
    <linearGradient
       id="paint32_linear_180_162"
       x1="229.916"
       y1="318.75"
       x2="223.64"
       y2="329.03299"
       gradientUnits="userSpaceOnUse"
       gradientTransform="matrix(2.2253235,0,0,2.2253235,-336.76066,-437.09804)">
      <stop
         stop-color="#1AD6FF"
         id="stop564" />
      <stop
         offset="1"
         stop-color="#496BE4"
         stop-opacity="0.6"
         id="stop566" />
      <stop
         offset="1"
         stop-color="#1F3CA3"
         id="stop568" />
    </linearGradient>
    <linearGradient
       id="paint33_linear_180_162"
       x1="234.429"
       y1="372.83099"
       x2="223.53799"
       y2="370.24899"
       gradientUnits="userSpaceOnUse"
       gradientTransform="matrix(2.2253235,0,0,2.2253235,-336.76066,-437.09804)">
      <stop
         stop-color="#81FF6C"
         id="stop571" />
      <stop
         offset="1"
         stop-color="#31F3FF"
         id="stop573" />
    </linearGradient>
    <linearGradient
       id="paint34_linear_180_162"
       x1="241.838"
       y1="324.72299"
       x2="230.44501"
       y2="323.66501"
       gradientUnits="userSpaceOnUse"
       gradientTransform="matrix(2.2253235,0,0,2.2253235,-336.76066,-437.09804)">
      <stop
         stop-color="#FF79C9"
         id="stop576" />
      <stop
         offset="1"
         stop-color="#1F3CA3"
         id="stop578" />
    </linearGradient>
    <linearGradient
       id="paint35_linear_180_162"
       x1="235.058"
       y1="326.009"
       x2="227.496"
       y2="325.14001"
       gradientUnits="userSpaceOnUse"
       gradientTransform="matrix(2.2253235,0,0,2.2253235,-336.76066,-437.09804)">
      <stop
         stop-color="#52FF6E"
         id="stop581" />
      <stop
         offset="1"
         stop-color="#31FFFF"
         id="stop583" />
    </linearGradient>
    <linearGradient
       id="paint36_linear_180_162"
       x1="242.54401"
       y1="382.948"
       x2="236.658"
       y2="362.05899"
       gradientUnits="userSpaceOnUse"
       gradientTransform="matrix(2.2253235,0,0,2.2253235,-336.76066,-437.09804)">
      <stop
         offset="0.103809"
         stop-color="white"
         id="stop586" />
      <stop
         offset="0.436548"
         stop-color="#FFAACE"
         stop-opacity="0.8"
         id="stop588" />
      <stop
         offset="0.71875"
         stop-color="#6F97FF"
         stop-opacity="0.8"
         id="stop590" />
    </linearGradient>
    <linearGradient
       id="paint37_linear_180_162"
       x1="248.464"
       y1="375.689"
       x2="243.784"
       y2="366.42499"
       gradientUnits="userSpaceOnUse"
       gradientTransform="matrix(2.2253235,0,0,2.2253235,-336.76066,-437.09804)">
      <stop
         stop-color="white"
         id="stop593" />
      <stop
         offset="0.591466"
         stop-color="#FF94D4"
         id="stop595" />
      <stop
         offset="1"
         stop-color="#C994FF"
         id="stop597" />
    </linearGradient>
    <linearGradient
       id="paint38_linear_180_162"
       x1="237.27901"
       y1="366.53601"
       x2="219.554"
       y2="362.33401"
       gradientUnits="userSpaceOnUse"
       gradientTransform="matrix(2.2253235,0,0,2.2253235,-336.76066,-437.09804)">
      <stop
         stop-color="#81FF6C"
         id="stop600" />
      <stop
         offset="1"
         stop-color="#31F3FF"
         id="stop602" />
    </linearGradient>
    <linearGradient
       id="paint39_linear_180_162"
       x1="229.886"
       y1="369.24799"
       x2="229.886"
       y2="354.54599"
       gradientUnits="userSpaceOnUse"
       gradientTransform="matrix(2.2253235,0,0,2.2253235,-336.76066,-437.09804)">
      <stop
         stop-color="white"
         id="stop605" />
      <stop
         offset="1"
         stop-color="white"
         stop-opacity="0"
         id="stop607" />
    </linearGradient>
    <linearGradient
       id="paint40_linear_180_162"
       x1="243.394"
       y1="362.33499"
       x2="230.21201"
       y2="374.237"
       gradientUnits="userSpaceOnUse"
       gradientTransform="matrix(2.2253235,0,0,2.2253235,-336.76066,-437.09804)">
      <stop
         offset="0.149863"
         stop-color="white"
         id="stop610" />
      <stop
         offset="0.300261"
         stop-color="#8CFF31"
         id="stop612" />
      <stop
         offset="0.449118"
         stop-color="#45C3EB"
         id="stop614" />
      <stop
         offset="1"
         stop-color="#72E6FF"
         id="stop616" />
    </linearGradient>
    <linearGradient
       id="paint41_linear_180_162"
       x1="224.136"
       y1="369.78601"
       x2="203.705"
       y2="355.47"
       gradientUnits="userSpaceOnUse"
       gradientTransform="matrix(2.2253235,0,0,2.2253235,-336.76066,-437.09804)">
      <stop
         stop-color="#6CFFED"
         id="stop619" />
      <stop
         offset="1"
         stop-color="#197F9F"
         id="stop621" />
    </linearGradient>
    <linearGradient
       id="paint42_linear_180_162"
       x1="274.89801"
       y1="353.047"
       x2="253.558"
       y2="330.703"
       gradientUnits="userSpaceOnUse"
       gradientTransform="matrix(2.2253235,0,0,2.2253235,-336.76066,-437.09804)">
      <stop
         offset="0.464598"
         stop-color="white"
         id="stop624" />
      <stop
         offset="0.790313"
         stop-color="#6DF390"
         id="stop626" />
      <stop
         offset="1"
         stop-color="#21CAFF"
         stop-opacity="0.9"
         id="stop628" />
    </linearGradient>
    <linearGradient
       id="paint43_linear_180_162"
       x1="217.006"
       y1="362.33499"
       x2="229.56"
       y2="374.22"
       gradientUnits="userSpaceOnUse"
       gradientTransform="matrix(2.2253235,0,0,2.2253235,-336.76066,-437.09804)">
      <stop
         offset="0.125"
         stop-color="white"
         id="stop631" />
      <stop
         offset="0.297772"
         stop-color="#8CFF31"
         id="stop633" />
      <stop
         offset="0.447917"
         stop-color="#5BF5FF"
         id="stop635" />
    </linearGradient>
    <linearGradient
       id="paint44_linear_180_162"
       x1="214.64101"
       y1="379.92401"
       x2="212.826"
       y2="366.42499"
       gradientUnits="userSpaceOnUse"
       gradientTransform="matrix(2.2253235,0,0,2.2253235,-336.76066,-437.09804)">
      <stop
         stop-color="#DFF4FF"
         id="stop638" />
      <stop
         offset="0.994792"
         stop-color="#0E42C8"
         id="stop640" />
    </linearGradient>
    <clipPath
       id="clip0_180_162">
      <rect
         width="160.49899"
         height="160.49899"
         fill="#ffffff"
         transform="translate(221.79,215.7)"
         id="rect643"
         x="0"
         y="0" />
    </clipPath>
  </defs>
  <rect
     style="opacity:0.840532;fill:#ff0000;fill-opacity:0;stroke-width:0.35;stroke-linecap:square"
     id="rect2333"
     width="32.987698"
     height="60.287861"
     x="-13.650082"
     y="-15.925096" />
</svg>
