<?xml version="1.0" encoding="UTF-8" standalone="no"?>
<!-- Generator: Adobe Illustrator 27.5.0, SVG Export Plug-In . SVG Version: 6.00 Build 0)  -->

<svg
   version="1.1"
   x="0px"
   y="0px"
   viewBox="0 0 224 474"
   xml:space="preserve"
   id="svg2088"
   sodipodi:docname="computer - copia.svg"
   inkscape:version="1.2.2 (b0a84865, 2022-12-01)"
   width="224"
   height="474"
   xmlns:inkscape="http://www.inkscape.org/namespaces/inkscape"
   xmlns:sodipodi="http://sodipodi.sourceforge.net/DTD/sodipodi-0.dtd"
   xmlns="http://www.w3.org/2000/svg"
   xmlns:svg="http://www.w3.org/2000/svg"><defs
   id="defs2092" /><sodipodi:namedview
   id="namedview2090"
   pagecolor="#ffffff"
   bordercolor="#000000"
   borderopacity="0.25"
   inkscape:showpageshadow="2"
   inkscape:pageopacity="0.0"
   inkscape:pagecheckerboard="0"
   inkscape:deskcolor="#d1d1d1"
   showgrid="false"
   inkscape:zoom="0.99494376"
   inkscape:cx="50.756638"
   inkscape:cy="217.60024"
   inkscape:window-width="1680"
   inkscape:window-height="921"
   inkscape:window-x="0"
   inkscape:window-y="25"
   inkscape:window-maximized="0"
   inkscape:current-layer="g2085" />

<g
   id="Background_Simple"
   style="display:none">
	<path
   style="display:inline;fill:#f5f5f5"
   d="m 428.95,101.581 -2.434,-4.01 C 406,63.763 368.907,43.383 329.799,45.856 c -5.027,0.318 -10.033,0.998 -14.971,2.056 -35.557,7.611 -66.496,34.5 -79.321,68.937 -7.542,20.253 -9.649,43.572 -23.962,59.647 -18.627,20.922 -50.251,21.579 -78.055,20.712 -27.804,-0.867 -59.449,-0.128 -77.985,20.877 -11.609,13.154 -15.299,31.861 -14.362,49.478 2.478,46.641 34.979,88.345 76.311,109.074 41.332,20.729 89.996,22.586 135.232,13.467 63.37,-12.774 123.634,-47.855 159.857,-102.038 36.221,-54.184 45.389,-128.003 16.407,-186.485 z"
   id="path593" />
</g>





<g
   id="Character"
   transform="matrix(1.3268924,0,0,1.3268924,-111.47686,-148.19538)">
	<g
   id="g2085">
		<g
   id="g1025"
   transform="translate(-109.83323,-15.906882)">
			<g
   id="g985">
				<path
   style="fill:#d9976c;fill-opacity:1"
   d="m 280.886,227.424 4.085,37.767 24.323,8.107 0.986,11.764 -34.331,-2.297 c 0,0 -10.576,0.259 -12.883,-13.684 l -0.56,-36.641 z"
   id="path983" />
			</g>
			<g
   id="g1005">
				<g
   id="g993">
					<g
   id="g991">
						<g
   id="g989">
							<path
   style="fill:#ffbe9d"
   d="m 331.365,284.863 c -0.453,0.511 -1.174,0.733 -1.817,0.501 -0.128,-0.046 -0.258,-0.108 -0.388,-0.191 -0.856,-0.547 -0.265,-2.429 -0.265,-2.429 l -4.29,-1.916 c 0,0 -6.823,2.219 -9.555,4.163 -2.732,1.944 -7.49,-1.472 -7.49,-1.472 l 0.69,-10.039 10.223,-5.282 c 0,0 -0.624,0.311 0.314,-0.935 0.938,-1.245 3.391,-0.032 3.391,-0.032 0.586,-0.584 2.345,-0.384 2.345,-0.384 l 7.017,2.746 c 1.446,0.566 2.558,1.756 3.024,3.237 l 1.781,5.653 c 0,0 0.695,3.915 0.221,4.657 -0.716,1.12 -1.938,0.506 -1.938,0.506 0,0 -0.962,2.199 -1.585,2.12 -0.624,-0.079 -1.678,-0.903 -1.678,-0.903 z"
   id="path987" />
						</g>
					</g>
				</g>
				<g
   id="g1003">
					<g
   id="g1001">
						<g
   id="g999">
							<g
   id="g997">
								<path
   style="fill:#eb996e"
   d="m 317.041,283.866 c 0.007,0.013 0.184,-0.061 0.517,-0.215 0.376,-0.167 0.863,-0.384 1.469,-0.653 1.288,-0.544 3.187,-1.301 5.622,-2.02 l -0.108,-0.007 c 1.277,0.581 2.717,1.236 4.276,1.945 l -0.104,-0.23 c -0.106,0.363 -0.18,0.727 -0.206,1.117 -0.021,0.384 -0.009,0.809 0.224,1.212 0.123,0.199 0.335,0.354 0.522,0.43 0.186,0.103 0.397,0.181 0.621,0.204 0.444,0.052 0.905,-0.067 1.278,-0.323 0.095,-0.062 0.181,-0.136 0.265,-0.214 l 0.06,-0.061 0.03,-0.031 0.015,-0.016 0.002,-0.002 c 0.064,-0.007 -0.548,0.05 -0.288,0.027 l 0.004,0.003 0.008,0.007 0.127,0.095 c 0.169,0.125 0.344,0.244 0.525,0.358 0.182,0.113 0.37,0.221 0.573,0.315 0.102,0.046 0.207,0.091 0.323,0.124 0.108,0.033 0.238,0.072 0.436,0.029 0.3,-0.113 0.447,-0.302 0.596,-0.477 0.143,-0.18 0.271,-0.366 0.385,-0.557 0.234,-0.383 0.434,-0.777 0.623,-1.192 l -0.31,0.112 c 0.554,0.256 1.276,0.297 1.82,-0.128 0.247,-0.199 0.476,-0.465 0.546,-0.821 0.068,-0.317 0.071,-0.611 0.07,-0.909 -0.023,-1.182 -0.188,-2.354 -0.384,-3.55 l -0.002,-0.014 -0.005,-0.016 c -0.302,-0.962 -0.624,-1.983 -0.949,-3.016 -0.202,-0.642 -0.403,-1.279 -0.603,-1.911 -0.206,-0.616 -0.358,-1.287 -0.716,-1.886 -0.341,-0.593 -0.802,-1.108 -1.339,-1.508 -0.529,-0.415 -1.176,-0.655 -1.745,-0.871 -2.327,-0.903 -4.546,-1.764 -6.62,-2.569 l -0.028,-0.011 -0.025,-0.002 c -0.438,-0.04 -0.856,-0.045 -1.28,-0.001 -0.415,0.052 -0.858,0.118 -1.231,0.452 l 0.272,-0.012 c -0.683,-0.517 -1.57,-0.755 -2.359,-0.484 -0.791,0.266 -1.291,0.899 -1.634,1.529 l 0.08,-0.08 c -2.933,1.505 -5.326,2.733 -7.038,3.611 -0.793,0.419 -1.426,0.754 -1.905,1.007 -0.433,0.235 -0.657,0.366 -0.649,0.382 0.008,0.016 0.247,-0.085 0.695,-0.291 0.489,-0.232 1.137,-0.538 1.947,-0.922 1.729,-0.844 4.146,-2.024 7.108,-3.471 l 0.048,-0.023 0.032,-0.057 c 0.309,-0.553 0.787,-1.126 1.434,-1.323 0.637,-0.222 1.411,-0.005 1.982,0.433 l 0.141,0.108 0.131,-0.12 c 0.219,-0.2 0.61,-0.291 0.988,-0.326 0.383,-0.037 0.793,-0.029 1.19,0.01 l -0.053,-0.013 c 2.07,0.816 4.283,1.69 6.606,2.606 0.594,0.229 1.149,0.436 1.633,0.815 0.485,0.364 0.902,0.831 1.209,1.368 0.318,0.525 0.462,1.156 0.673,1.794 0.199,0.632 0.399,1.27 0.601,1.912 0.326,1.033 0.648,2.054 0.951,3.015 l -0.007,-0.03 c 0.195,1.17 0.36,2.345 0.385,3.47 0.003,0.278 -0.004,0.563 -0.056,0.803 -0.03,0.212 -0.193,0.407 -0.375,0.558 -0.357,0.299 -0.913,0.276 -1.335,0.087 l -0.216,-0.096 -0.094,0.208 c -0.176,0.392 -0.372,0.783 -0.589,1.142 -0.205,0.341 -0.486,0.747 -0.724,0.845 -0.012,0.003 -0.095,0.006 -0.188,-0.028 -0.087,-0.024 -0.178,-0.061 -0.267,-0.101 -0.179,-0.081 -0.354,-0.18 -0.526,-0.285 -0.171,-0.106 -0.339,-0.218 -0.5,-0.336 l -0.119,-0.089 -0.007,-0.005 -0.003,-0.003 c 0.259,-0.024 -0.354,0.031 -0.292,0.026 l -10e-4,0.001 -0.012,0.012 -0.023,0.025 -0.047,0.048 c -0.066,0.061 -0.133,0.121 -0.208,0.17 -0.293,0.205 -0.654,0.298 -0.993,0.262 -0.171,-0.016 -0.331,-0.073 -0.485,-0.159 -0.172,-0.072 -0.278,-0.154 -0.364,-0.28 -0.309,-0.557 -0.161,-1.368 0.004,-2.001 l 0.043,-0.166 -0.147,-0.064 c -1.569,-0.688 -3.018,-1.323 -4.303,-1.887 l -0.055,-0.024 -0.053,0.017 c -2.448,0.767 -4.331,1.57 -5.605,2.166 -0.635,0.302 -1.118,0.552 -1.439,0.731 -0.32,0.183 -0.483,0.283 -0.476,0.296 z"
   id="path995" />
							</g>
						</g>
					</g>
				</g>
			</g>
			<g
   id="g1011">
				<g
   id="g1009">
					<path
   style="fill:#eb996e"
   d="m 322.733,270.104 c -0.029,0.046 0.742,0.604 2.139,1.307 1.393,0.703 3.438,1.514 5.855,2.01 l -0.196,-0.225 c 0.028,0.389 0.059,0.799 0.112,1.213 0.336,2.745 1.29,5.099 2.171,6.662 0.44,0.785 0.857,1.383 1.16,1.783 0.31,0.395 0.5,0.598 0.526,0.578 0.066,-0.048 -0.586,-0.942 -1.378,-2.524 -0.788,-1.577 -1.663,-3.887 -1.99,-6.56 -0.052,-0.403 -0.084,-0.803 -0.113,-1.181 l -0.015,-0.189 -0.181,-0.036 c -2.373,-0.472 -4.4,-1.212 -5.814,-1.828 -1.414,-0.615 -2.24,-1.072 -2.276,-1.01 z"
   id="path1007" />
				</g>
			</g>
			<g
   id="g1017">
				<g
   id="g1015">
					<path
   style="fill:#eb996e"
   d="m 328.487,276.136 c -0.122,-0.008 -0.177,2.113 0.717,4.531 0.876,2.426 2.286,4.012 2.374,3.926 0.123,-0.087 -1.067,-1.754 -1.91,-4.096 -0.865,-2.332 -1.03,-4.373 -1.181,-4.361 z"
   id="path1013" />
				</g>
			</g>
			<g
   id="g1023">
				<g
   id="g1021">
					<path
   style="fill:#eb996e"
   d="m 306.901,280.232 c -0.009,0.011 0.058,0.077 0.195,0.194 0.136,0.119 0.35,0.279 0.642,0.465 0.583,0.367 1.504,0.838 2.763,1.081 1.246,0.24 2.855,0.242 4.495,-0.401 1.626,-0.629 3.266,-1.888 4.302,-3.734 l -0.31,0.1 c 1.534,0.737 3.295,1.323 5.172,1.631 0.673,0.111 1.344,0.184 2.007,0.221 0.656,0.031 1.334,0.073 2.006,-0.119 0.313,-0.087 0.701,-0.265 0.905,-0.606 0.209,-0.327 0.249,-0.725 0.158,-1.078 -0.093,-0.355 -0.331,-0.667 -0.645,-0.845 -0.263,-0.145 -0.523,-0.287 -0.78,-0.429 -2.058,-1.113 -3.96,-2.023 -5.579,-2.735 -1.619,-0.711 -2.953,-1.23 -3.883,-1.566 -0.93,-0.335 -1.454,-0.492 -1.465,-0.462 -0.013,0.034 0.488,0.251 1.395,0.641 0.906,0.39 2.215,0.957 3.809,1.705 1.594,0.749 3.47,1.687 5.505,2.816 0.253,0.142 0.509,0.286 0.768,0.432 0.206,0.121 0.359,0.323 0.42,0.562 0.059,0.238 0.027,0.502 -0.105,0.702 -0.125,0.205 -0.349,0.315 -0.638,0.399 -0.558,0.16 -1.195,0.128 -1.843,0.093 -0.646,-0.038 -1.3,-0.11 -1.956,-0.218 -1.829,-0.3 -3.547,-0.865 -5.048,-1.572 l -0.203,-0.095 -0.107,0.195 c -0.961,1.744 -2.501,2.961 -4.037,3.585 -1.547,0.638 -3.081,0.676 -4.292,0.484 -1.222,-0.194 -2.136,-0.609 -2.733,-0.925 -0.597,-0.325 -0.896,-0.549 -0.918,-0.521 z"
   id="path1019" />
				</g>
			</g>
		</g>
		<g
   id="g1543"
   transform="translate(-109.83323,-15.906882)">
			<g
   id="g1041">
				<g
   id="g1039">
					<g
   id="g1037">
						<g
   id="g1035">
							<g
   id="g1033">
								<g
   id="g1031">
									<g
   id="g1029">
										
									</g>
								</g>
							</g>
						</g>
					</g>
				</g>
			</g>
			<g
   id="g1541">
				<g
   id="g1053">
					<g
   id="g1051">
						<g
   id="g1049">
							<g
   id="g1047">
								<g
   id="g1045">
									<polygon
   style="fill:#d9976c;fill-opacity:1"
   points="292.684,406.926 311.828,422.206 299.706,448.477 280.146,439.44 "
   id="polygon1043"
   transform="matrix(0.9444484,0,0,1,10.282601,14.21527)" />
								</g>
							</g>
						</g>
					</g>
				</g>
				<g
   id="g1251">
					<g
   id="g1249">
						<g
   id="g1247">
							<g
   id="g1079">
								<g
   id="g1077">
									<g
   id="g1075">
										<g
   id="g1073">
											<g
   id="g1071">
												<g
   id="g1069">
													<g
   id="g1067">
														<g
   id="g1065">
															<g
   id="g1063">
																<g
   id="g1061">
																	<g
   id="g1059">
																		<g
   id="g1057">
																			<path
   style="fill:#4e5c93;fill-opacity:1"
   d="m 294.82167,460.26235 0.0933,-0.0334 c 0,0 18.129,18.745 16.426,22.935 l -42.617,-20.433 6.56342,-12.87373 c 5.42525,6.36485 11.9429,9.81663 19.53428,10.40513 z"
   id="path1055"
   sodipodi:nodetypes="cccccc" />
																		</g>
																	</g>
																</g>
															</g>
														</g>
													</g>
												</g>
											</g>
										</g>
									</g>
								</g>
							</g>
							<g
   id="g1107">
								<g
   id="g1105">
									<g
   id="g1103">
										<g
   id="g1101">
											<g
   id="g1099">
												<g
   id="g1097">
													<g
   id="g1095">
														<g
   id="g1093">
															<g
   id="g1091">
																<g
   id="g1089">
																	<g
   id="g1087">
																		<g
   id="g1085">
																			<g
   id="g1083">
																				
																			</g>
																		</g>
																	</g>
																</g>
															</g>
														</g>
													</g>
												</g>
											</g>
										</g>
									</g>
								</g>
							</g>
							<g
   style="opacity:0.6"
   id="g1133">
								<g
   id="g1131">
									<g
   id="g1129">
										<g
   id="g1127">
											<g
   id="g1125">
												<g
   id="g1123">
													<g
   id="g1121">
														<g
   id="g1119">
															<g
   id="g1117">
																<g
   id="g1115">
																	<g
   id="g1113">
																		<g
   id="g1111">
																			<path
   style="fill:#ffffff"
   d="m 268.724,462.731 1.773,-3.397 40.198,20.862 c 0,0 1.502,1.735 0.646,2.969 z"
   id="path1109" />
																		</g>
																	</g>
																</g>
															</g>
														</g>
													</g>
												</g>
											</g>
										</g>
									</g>
								</g>
							</g>
							<g
   id="g1161">
								<g
   id="g1159">
									<g
   id="g1157">
										<g
   id="g1155">
											<g
   id="g1153">
												<g
   id="g1151">
													<g
   id="g1149">
														<g
   id="g1147">
															<g
   id="g1145">
																<g
   id="g1143">
																	<g
   id="g1141">
																		<g
   id="g1139">
																			<g
   id="g1137">
																				
																			</g>
																		</g>
																	</g>
																</g>
															</g>
														</g>
													</g>
												</g>
											</g>
										</g>
									</g>
								</g>
							</g>
							<g
   id="g1189">
								<g
   id="g1187">
									<g
   id="g1185">
										<g
   id="g1183">
											<g
   id="g1181">
												<g
   id="g1179">
													<g
   id="g1177">
														<g
   id="g1175">
															<g
   id="g1173">
																<g
   id="g1171">
																	<g
   id="g1169">
																		<g
   id="g1167">
																			<g
   id="g1165">
																				
																			</g>
																		</g>
																	</g>
																</g>
															</g>
														</g>
													</g>
												</g>
											</g>
										</g>
									</g>
								</g>
							</g>
							<g
   id="g1217">
								<g
   id="g1215">
									<g
   id="g1213">
										<g
   id="g1211">
											<g
   id="g1209">
												<g
   id="g1207">
													<g
   id="g1205">
														<g
   id="g1203">
															<g
   id="g1201">
																<g
   id="g1199">
																	<g
   id="g1197">
																		<g
   id="g1195">
																			<g
   id="g1193">
																				
																			</g>
																		</g>
																	</g>
																</g>
															</g>
														</g>
													</g>
												</g>
											</g>
										</g>
									</g>
								</g>
							</g>
							<g
   id="g1245">
								<g
   id="g1243">
									<g
   id="g1241">
										<g
   id="g1239">
											<g
   id="g1237">
												<g
   id="g1235">
													<g
   id="g1233">
														<g
   id="g1231">
															<g
   id="g1229">
																<g
   id="g1227">
																	<g
   id="g1225">
																		<g
   id="g1223">
																			<g
   id="g1221">
																				
																			</g>
																		</g>
																	</g>
																</g>
															</g>
														</g>
													</g>
												</g>
											</g>
										</g>
									</g>
								</g>
							</g>
						</g>
					</g>
				</g>
				<g
   id="g1263">
					<g
   id="g1261">
						<g
   id="g1259">
							<g
   id="g1257">
								<g
   id="g1255">
									<path
   style="fill:#4e5c93;fill-opacity:1"
   d="m 305.99,443.218 31.952,-79.965 c 0,0 -0.718,-13.644 -3.231,-17.952 -2.513,-4.308 -78.629,-29.441 -78.629,-29.441 0,0 -19.388,-4.667 -32.314,0 -12.925,4.668 -22.619,20.824 -20.824,29.8 1.795,8.976 10.046,16.251 10.046,16.251 l 55.3,0.983 30.508,11.13 -20.545,58.882 z"
   id="path1253" />
								</g>
							</g>
						</g>
					</g>
				</g>
				<g
   id="g1275">
					<g
   id="g1273">
						<g
   id="g1271">
							<g
   id="g1269">
								<g
   id="g1267">
									<polygon
   style="fill:#d9976c;fill-opacity:1"
   points="334.41,388.575 335.13,417.499 313.589,418.025 310.486,383.316 "
   id="polygon1265"
   transform="matrix(0.97253215,0,0,1.330971,9.6771491,-120.8751)" />
								</g>
							</g>
						</g>
					</g>
				</g>
				<g
   id="g1473">
					<g
   id="g1471">
						<g
   id="g1469">
							<g
   id="g1301">
								<g
   id="g1299">
									<g
   id="g1297">
										<g
   id="g1295">
											<g
   id="g1293">
												<g
   id="g1291">
													<g
   id="g1289">
														<g
   id="g1287">
															<g
   id="g1285">
																<g
   id="g1283">
																	<g
   id="g1281">
																		<g
   id="g1279">
																			<path
   style="fill:#4e5c93;fill-opacity:1"
   d="m 335.83762,430.13517 0.18138,0.0238 c 0,0 24.541,8.816 24.864,13.328 l -47.26,0.479 0.17442,-13.96764 c 7.48193,3.15518 14.81336,2.8487 22.0402,0.13681 z"
   id="path1277"
   sodipodi:nodetypes="cccccc" />
																		</g>
																	</g>
																</g>
															</g>
														</g>
													</g>
												</g>
											</g>
										</g>
									</g>
								</g>
							</g>
							<g
   id="g1329">
								<g
   id="g1327">
									<g
   id="g1325">
										<g
   id="g1323">
											<g
   id="g1321">
												<g
   id="g1319">
													<g
   id="g1317">
														<g
   id="g1315">
															<g
   id="g1313">
																<g
   id="g1311">
																	<g
   id="g1309">
																		<g
   id="g1307">
																			<g
   id="g1305">
																				
																			</g>
																		</g>
																	</g>
																</g>
															</g>
														</g>
													</g>
												</g>
											</g>
										</g>
									</g>
								</g>
							</g>
							<g
   style="opacity:0.6"
   id="g1355">
								<g
   id="g1353">
									<g
   id="g1351">
										<g
   id="g1349">
											<g
   id="g1347">
												<g
   id="g1345">
													<g
   id="g1343">
														<g
   id="g1341">
															<g
   id="g1339">
																<g
   id="g1337">
																	<g
   id="g1335">
																		<g
   id="g1333">
																			<path
   style="fill:#ffffff"
   d="m 313.623,443.966 0.091,-3.831 45.278,0.973 c 0,0 2.113,0.894 1.891,2.378 z"
   id="path1331" />
																		</g>
																	</g>
																</g>
															</g>
														</g>
													</g>
												</g>
											</g>
										</g>
									</g>
								</g>
							</g>
							<g
   id="g1383">
								<g
   id="g1381">
									<g
   id="g1379">
										<g
   id="g1377">
											<g
   id="g1375">
												<g
   id="g1373">
													<g
   id="g1371">
														<g
   id="g1369">
															<g
   id="g1367">
																<g
   id="g1365">
																	<g
   id="g1363">
																		<g
   id="g1361">
																			<g
   id="g1359">
																				
																			</g>
																		</g>
																	</g>
																</g>
															</g>
														</g>
													</g>
												</g>
											</g>
										</g>
									</g>
								</g>
							</g>
							<g
   id="g1411">
								<g
   id="g1409">
									<g
   id="g1407">
										<g
   id="g1405">
											<g
   id="g1403">
												<g
   id="g1401">
													<g
   id="g1399">
														<g
   id="g1397">
															<g
   id="g1395">
																<g
   id="g1393">
																	<g
   id="g1391">
																		<g
   id="g1389">
																			<g
   id="g1387">
																				
																			</g>
																		</g>
																	</g>
																</g>
															</g>
														</g>
													</g>
												</g>
											</g>
										</g>
									</g>
								</g>
							</g>
							<g
   id="g1439">
								<g
   id="g1437">
									<g
   id="g1435">
										<g
   id="g1433">
											<g
   id="g1431">
												<g
   id="g1429">
													<g
   id="g1427">
														<g
   id="g1425">
															<g
   id="g1423">
																<g
   id="g1421">
																	<g
   id="g1419">
																		<g
   id="g1417">
																			<g
   id="g1415">
																				
																			</g>
																		</g>
																	</g>
																</g>
															</g>
														</g>
													</g>
												</g>
											</g>
										</g>
									</g>
								</g>
							</g>
							<g
   id="g1467">
								<g
   id="g1465">
									<g
   id="g1463">
										<g
   id="g1461">
											<g
   id="g1459">
												<g
   id="g1457">
													<g
   id="g1455">
														<g
   id="g1453">
															<g
   id="g1451">
																<g
   id="g1449">
																	<g
   id="g1447">
																		<g
   id="g1445">
																			<g
   id="g1443">
																				
																			</g>
																		</g>
																	</g>
																</g>
															</g>
														</g>
													</g>
												</g>
											</g>
										</g>
									</g>
								</g>
							</g>
						</g>
					</g>
				</g>
				<g
   id="g1485">
					<g
   id="g1483">
						<g
   id="g1481">
							<g
   id="g1479">
								<g
   id="g1477">
									<path
   style="fill:#4e5c93;fill-opacity:1"
   d="m 321.831,308.273 c 0,0 12.906,-1.032 14.342,12.971 1.436,14.003 2.846,79.349 2.846,79.349 l -30.159,2.513 -4.667,-66.781 -48.111,-20.465 c -10e-4,0 57.132,-9.382 65.749,-7.587 z"
   id="path1475" />
								</g>
							</g>
						</g>
					</g>
				</g>
				<g
   id="g1497">
					<g
   id="g1495">
						<g
   id="g1493">
							<g
   id="g1491">
								<g
   id="g1489">
									<path
   style="fill:#4e5c93;fill-opacity:1"
   d="m 268.636,289.378 c 0,0 7.833,21.96 6.341,24.408 -1.492,2.448 -21.633,12.518 -21.633,12.518 l -49.45544,20.61408 c 0,0 -1.87355,1.20157 -1.87355,-11.44643 0,-12.648 13.28499,-46.09365 13.28499,-46.09365 z"
   id="path1487"
   sodipodi:nodetypes="cscczcc" />
								</g>
							</g>
						</g>
					</g>
				</g>
				<g
   id="g1511">
					<g
   id="g1509">
						<g
   id="g1507">
							<g
   id="g1505">
								<g
   id="g1503">
									<g
   id="g1501">
										<path
   style="fill:#050a0c;fill-opacity:1"
   d="m 253.697,314.74 c -0.003,0.008 0.077,0.05 0.237,0.127 0.184,0.085 0.42,0.194 0.716,0.331 0.665,0.296 1.597,0.71 2.791,1.242 2.474,1.078 6.028,2.626 10.476,4.564 8.989,3.87 21.589,9.294 36.169,15.57 l -0.163,-0.23 c 0.457,6.596 0.952,13.721 1.463,21.092 1.226,17.23 2.356,33.117 3.25,45.686 l 0.016,0.228 0.226,-0.02 c 9.173,-0.805 16.7,-1.466 21.971,-1.928 2.592,-0.242 4.627,-0.432 6.05,-0.565 0.669,-0.07 1.194,-0.124 1.581,-0.164 0.357,-0.041 0.539,-0.068 0.538,-0.079 -10e-4,-0.011 -0.186,-0.007 -0.544,0.011 -0.388,0.025 -0.915,0.057 -1.586,0.1 -1.425,0.104 -3.464,0.254 -6.06,0.444 -5.275,0.416 -12.808,1.011 -21.988,1.735 l 0.242,0.208 c -0.863,-12.572 -1.953,-28.461 -3.136,-45.694 -0.519,-7.37 -1.021,-14.495 -1.485,-21.09 l -0.012,-0.165 -0.152,-0.064 c -14.612,-6.202 -27.239,-11.562 -36.248,-15.386 -4.475,-1.876 -8.049,-3.375 -10.538,-4.419 -1.209,-0.496 -2.153,-0.884 -2.826,-1.16 -0.303,-0.119 -0.545,-0.214 -0.734,-0.289 -0.165,-0.064 -0.251,-0.093 -0.254,-0.085 z"
   id="path1499" />
									</g>
								</g>
							</g>
						</g>
					</g>
				</g>
				<g
   id="g1525">
					<g
   id="g1523">
						<g
   id="g1521">
							<g
   id="g1519">
								<g
   id="g1517">
									<g
   id="g1515">
										<path
   style="fill:#050a0c;fill-opacity:1"
   d="m 213.614,316.936 c 0.013,0.037 0.516,-0.104 1.415,-0.387 1.001,-0.323 2.274,-0.733 3.795,-1.223 3.202,-1.016 7.644,-2.431 12.7,-3.209 5.056,-0.78 9.734,-0.539 13.001,0.167 3.282,0.678 5.168,1.616 5.21,1.509 0.014,-0.029 -0.443,-0.287 -1.311,-0.663 -0.867,-0.379 -2.164,-0.839 -3.814,-1.234 -3.291,-0.817 -8.052,-1.126 -13.17,-0.335 -5.117,0.788 -9.567,2.275 -12.743,3.388 -1.589,0.564 -2.864,1.048 -3.741,1.394 -0.877,0.347 -1.355,0.557 -1.342,0.593 z"
   id="path1513" />
									</g>
								</g>
							</g>
						</g>
					</g>
				</g>
				<g
   id="g1539">
					<g
   id="g1537">
						<g
   id="g1535">
							<g
   id="g1533">
								<g
   id="g1531">
									<g
   id="g1529">
										<path
   style="fill:#050a0c;fill-opacity:1"
   d="m 220.739,305.361 c 0.014,0.089 1.687,-0.237 4.406,-0.025 1.357,0.095 2.972,0.303 4.77,0.511 1.796,0.214 3.767,0.455 5.807,0.842 4.095,0.729 7.618,2.156 9.876,3.663 2.279,1.483 3.347,2.835 3.424,2.759 0.022,-0.018 -0.208,-0.38 -0.732,-0.948 -0.522,-0.566 -1.332,-1.35 -2.47,-2.141 -2.245,-1.626 -5.847,-3.15 -9.993,-3.886 -2.066,-0.391 -4.053,-0.619 -5.855,-0.805 -1.801,-0.18 -3.427,-0.348 -4.807,-0.393 -1.378,-0.05 -2.499,0.029 -3.261,0.145 -0.763,0.116 -1.172,0.245 -1.165,0.278 z"
   id="path1527" />
									</g>
								</g>
							</g>
						</g>
					</g>
				</g>
			</g>
		</g>
		<g
   id="g1979"
   style="stroke:none;stroke-opacity:1"
   transform="translate(-109.83323,-15.906882)">
			<g
   id="g1549"
   style="stroke:none;stroke-opacity:1">
				<g
   id="g1547"
   style="stroke:none;stroke-opacity:1">
					<path
   style="fill:#28170b;fill-opacity:1;stroke:none;stroke-opacity:1"
   d="m 243,128.885 c -5.799,-0.986 -10.897,1.247 -15.788,4.516 -4.891,3.269 -8.574,8.203 -10.7,13.687 -2.24,5.777 -2.785,12.277 -1.063,18.229 1.721,5.952 5.797,11.28 11.322,14.085 7.544,3.831 17.191,2.495 23.94,-2.608 6.749,-5.103 10.607,-13.54 10.931,-21.995 0.223,-5.825 -1.169,-11.784 -4.424,-16.619 -3.256,-4.835 -8.451,-8.448 -14.218,-9.295"
   id="path1545" />
				</g>
			</g>
			<g
   id="g1957"
   style="stroke:none;stroke-opacity:1">
				<g
   id="g1557"
   style="stroke:none;stroke-opacity:1">
					<g
   id="g1555"
   style="stroke:none;stroke-opacity:1">
						<g
   id="g1553"
   style="stroke:none;stroke-opacity:1">
							<path
   style="fill:#28170b;fill-opacity:1;stroke:none;stroke-opacity:1"
   d="m 226.507,148.606 c 0.848,-2.219 0.519,-4.696 0.855,-7.047 0.739,-5.178 4.911,-9.33 9.736,-11.349 4.489,-1.878 9.971,-1.468 15.378,0.28 3.707,1.198 7.195,3.288 9.666,6.299 3.28,3.996 4.296,12.56098 2.851,17.52398 L 238.64,147.536 c -2.48,2.052 -5.02,4.139 -8.028,5.283 -0.883,0.336 -1.833,0.588 -2.765,0.441 -0.933,-0.148 -1.839,-0.782 -2.061,-1.7 -0.241,-1.004 0.353,-1.99 0.721,-2.954 z"
   id="path1551"
   sodipodi:nodetypes="ccccccccccc" />
						</g>
					</g>
				</g>
				<g
   id="g1565"
   style="stroke:none;stroke-opacity:1">
					<g
   id="g1563"
   style="stroke:none;stroke-opacity:1">
						<g
   id="g1561"
   style="stroke:none;stroke-opacity:1">
							<path
   style="fill:#d9976c;fill-opacity:1;stroke:none;stroke-opacity:1"
   d="m 253.043,137.804 c -6.14512,12.56716 -13.92268,22.84892 -25.29247,28.10154 -2.237,0.149 -1.15833,-1.86686 -1.20033,0.37514 L 226.161,196.986 c 0.019,3.419 1.165,6.737 3.26,9.439 l 2.206,2.845 c 5.029,6.486 15.217,5.833 19.058,-1.42 0.269,-0.507 0.454,-0.951 0.532,-1.31 0.078,-0.45 0.197,-0.747 0.218,-1.13 l 0.441,-4.88 c -1.80439,-4.3736 -2.13874,-10.84374 -2.13674,-10.32996 -0.48909,0.0349 7.14573,-0.95162 11.37544,-10.35282 4.22971,-9.40119 4.1973,-17.73322 3.9993,-25.93222 -1.58899,-3.53558 -7.77307,-8.23727 -12.071,-16.111 z"
   id="path1559"
   sodipodi:nodetypes="ccccccccccczcc" />
						</g>
					</g>
				</g>
				<g
   id="g1853"
   style="stroke:none;stroke-opacity:1">
					<g
   id="g1851"
   style="stroke:none;stroke-opacity:1">
						<g
   id="g1637"
   style="stroke:none;stroke-opacity:1">
							<g
   id="g1599"
   style="stroke:none;stroke-opacity:1">
								<g
   id="g1597"
   style="stroke:none;stroke-opacity:1">
									<g
   id="g1595"
   style="stroke:none;stroke-opacity:1">
										<g
   id="g1593"
   style="stroke:none;stroke-opacity:1">
											<g
   id="g1591"
   style="stroke:none;stroke-opacity:1">
												<g
   id="g1589"
   style="stroke:none;stroke-opacity:1">
													<g
   id="g1587"
   style="stroke:none;stroke-opacity:1">
														<g
   id="g1585"
   style="stroke:none;stroke-opacity:1">
															<g
   id="g1583"
   style="stroke:none;stroke-opacity:1">
																<g
   id="g1581"
   style="stroke:none;stroke-opacity:1">
																	<g
   id="g1579"
   style="stroke:none;stroke-opacity:1">
																		<g
   id="g1577"
   style="stroke:none;stroke-opacity:1">
																			<g
   id="g1575"
   style="stroke:none;stroke-opacity:1">
																				<g
   id="g1573"
   style="stroke:none;stroke-opacity:1">
																					<g
   id="g1571"
   style="stroke:none;stroke-opacity:1">
																						<g
   id="g1569"
   style="stroke:none;stroke-opacity:1">
																							<path
   style="fill:#28170b;fill-opacity:1;stroke:none;stroke-opacity:1"
   d="m 261.219,164.138 c -0.003,0.832 -0.71,1.516 -1.579,1.529 -0.867,0.013 -1.57,-0.649 -1.567,-1.482 0.003,-0.832 0.71,-1.517 1.578,-1.53 0.869,-0.013 1.572,0.651 1.568,1.483 z"
   id="path1567" />
																						</g>
																					</g>
																				</g>
																			</g>
																		</g>
																	</g>
																</g>
															</g>
														</g>
													</g>
												</g>
											</g>
										</g>
									</g>
								</g>
							</g>
							<g
   id="g1635"
   style="stroke:none;stroke-opacity:1">
								<g
   id="g1633"
   style="stroke:none;stroke-opacity:1">
									<g
   id="g1631"
   style="stroke:none;stroke-opacity:1">
										<g
   id="g1629"
   style="stroke:none;stroke-opacity:1">
											<g
   id="g1627"
   style="stroke:none;stroke-opacity:1">
												<g
   id="g1625"
   style="stroke:none;stroke-opacity:1">
													<g
   id="g1623"
   style="stroke:none;stroke-opacity:1">
														<g
   id="g1621"
   style="stroke:none;stroke-opacity:1">
															<g
   id="g1619"
   style="stroke:none;stroke-opacity:1">
																<g
   id="g1617"
   style="stroke:none;stroke-opacity:1">
																	<g
   id="g1615"
   style="stroke:none;stroke-opacity:1">
																		<g
   id="g1613"
   style="stroke:none;stroke-opacity:1">
																			<g
   id="g1611"
   style="stroke:none;stroke-opacity:1">
																				<g
   id="g1609"
   style="stroke:none;stroke-opacity:1">
																					<g
   id="g1607"
   style="stroke:none;stroke-opacity:1">
																						<g
   id="g1605"
   style="stroke:none;stroke-opacity:1">
																							<g
   id="g1603"
   style="stroke:none;stroke-opacity:1">
																								<path
   style="fill:#28170b;fill-opacity:1;stroke:none;stroke-opacity:1"
   d="m 262.741,159.034 c -0.203,0.198 -1.361,-0.731 -3.055,-0.792 -1.691,-0.085 -2.967,0.738 -3.143,0.523 -0.087,-0.095 0.127,-0.458 0.683,-0.831 0.548,-0.371 1.472,-0.718 2.526,-0.673 1.055,0.047 1.927,0.47 2.422,0.887 0.504,0.42 0.666,0.798 0.567,0.886 z"
   id="path1601" />
																							</g>
																						</g>
																					</g>
																				</g>
																			</g>
																		</g>
																	</g>
																</g>
															</g>
														</g>
													</g>
												</g>
											</g>
										</g>
									</g>
								</g>
							</g>
						</g>
						<g
   id="g1709"
   style="stroke:none;stroke-opacity:1">
							<g
   id="g1671"
   style="stroke:none;stroke-opacity:1">
								<g
   id="g1669"
   style="stroke:none;stroke-opacity:1">
									<g
   id="g1667"
   style="stroke:none;stroke-opacity:1">
										<g
   id="g1665"
   style="stroke:none;stroke-opacity:1">
											<g
   id="g1663"
   style="stroke:none;stroke-opacity:1">
												<g
   id="g1661"
   style="stroke:none;stroke-opacity:1">
													<g
   id="g1659"
   style="stroke:none;stroke-opacity:1">
														<g
   id="g1657"
   style="stroke:none;stroke-opacity:1">
															<g
   id="g1655"
   style="stroke:none;stroke-opacity:1">
																<g
   id="g1653"
   style="stroke:none;stroke-opacity:1">
																	<g
   id="g1651"
   style="stroke:none;stroke-opacity:1">
																		<g
   id="g1649"
   style="stroke:none;stroke-opacity:1">
																			<g
   id="g1647"
   style="stroke:none;stroke-opacity:1">
																				<g
   id="g1645"
   style="stroke:none;stroke-opacity:1">
																					<g
   id="g1643"
   style="stroke:none;stroke-opacity:1">
																						<g
   id="g1641"
   style="stroke:none;stroke-opacity:1">
																							<path
   style="fill:#28170b;fill-opacity:1;stroke:none;stroke-opacity:1"
   d="m 245.574,163.328 c -0.002,0.832 -0.71,1.516 -1.579,1.529 -0.867,0.013 -1.57,-0.649 -1.567,-1.482 0.003,-0.832 0.71,-1.517 1.578,-1.53 0.869,-0.013 1.571,0.651 1.568,1.483 z"
   id="path1639" />
																						</g>
																					</g>
																				</g>
																			</g>
																		</g>
																	</g>
																</g>
															</g>
														</g>
													</g>
												</g>
											</g>
										</g>
									</g>
								</g>
							</g>
							<g
   id="g1707"
   style="stroke:none;stroke-opacity:1">
								<g
   id="g1705"
   style="stroke:none;stroke-opacity:1">
									<g
   id="g1703"
   style="stroke:none;stroke-opacity:1">
										<g
   id="g1701"
   style="stroke:none;stroke-opacity:1">
											<g
   id="g1699"
   style="stroke:none;stroke-opacity:1">
												<g
   id="g1697"
   style="stroke:none;stroke-opacity:1">
													<g
   id="g1695"
   style="stroke:none;stroke-opacity:1">
														<g
   id="g1693"
   style="stroke:none;stroke-opacity:1">
															<g
   id="g1691"
   style="stroke:none;stroke-opacity:1">
																<g
   id="g1689"
   style="stroke:none;stroke-opacity:1">
																	<g
   id="g1687"
   style="stroke:none;stroke-opacity:1">
																		<g
   id="g1685"
   style="stroke:none;stroke-opacity:1">
																			<g
   id="g1683"
   style="stroke:none;stroke-opacity:1">
																				<g
   id="g1681"
   style="stroke:none;stroke-opacity:1">
																					<g
   id="g1679"
   style="stroke:none;stroke-opacity:1">
																						<g
   id="g1677"
   style="stroke:none;stroke-opacity:1">
																							<g
   id="g1675"
   style="stroke:none;stroke-opacity:1">
																								<path
   style="fill:#28170b;fill-opacity:1;stroke:none;stroke-opacity:1"
   d="m 246.66,158.622 c -0.204,0.198 -1.363,-0.731 -3.056,-0.792 -1.69,-0.086 -2.967,0.737 -3.143,0.523 -0.086,-0.096 0.125,-0.458 0.683,-0.831 0.548,-0.372 1.471,-0.718 2.526,-0.673 1.055,0.047 1.926,0.47 2.422,0.887 0.504,0.42 0.667,0.798 0.568,0.886 z"
   id="path1673" />
																							</g>
																						</g>
																					</g>
																				</g>
																			</g>
																		</g>
																	</g>
																</g>
															</g>
														</g>
													</g>
												</g>
											</g>
										</g>
									</g>
								</g>
							</g>
						</g>
						<g
   id="g1745"
   style="stroke:none;stroke-opacity:1">
							<g
   id="g1743"
   style="stroke:none;stroke-opacity:1">
								<g
   id="g1741"
   style="stroke:none;stroke-opacity:1">
									<g
   id="g1739"
   style="stroke:none;stroke-opacity:1">
										<g
   id="g1737"
   style="stroke:none;stroke-opacity:1">
											<g
   id="g1735"
   style="stroke:none;stroke-opacity:1">
												<g
   id="g1733"
   style="stroke:none;stroke-opacity:1">
													<g
   id="g1731"
   style="stroke:none;stroke-opacity:1">
														<g
   id="g1729"
   style="stroke:none;stroke-opacity:1">
															<g
   id="g1727"
   style="stroke:none;stroke-opacity:1">
																<g
   id="g1725"
   style="stroke:none;stroke-opacity:1">
																	<g
   id="g1723"
   style="stroke:none;stroke-opacity:1">
																		<g
   id="g1721"
   style="stroke:none;stroke-opacity:1">
																			<g
   id="g1719"
   style="stroke:none;stroke-opacity:1">
																				<g
   id="g1717"
   style="stroke:none;stroke-opacity:1">
																					<g
   id="g1715"
   style="stroke:none;stroke-opacity:1">
																						<g
   id="g1713"
   style="stroke:none;stroke-opacity:1">
																							<path
   style="fill:#263238;stroke:none;stroke-opacity:1"
   d="m 251.741,171.501 c -0.004,-0.096 1.055,-0.237 2.77,-0.389 0.434,-0.028 0.847,-0.098 0.931,-0.39 0.114,-0.309 -0.049,-0.782 -0.239,-1.293 -0.366,-1.062 -0.749,-2.176 -1.151,-3.342 -1.594,-4.757 -2.73,-8.662 -2.538,-8.724 0.192,-0.063 1.64,3.742 3.234,8.499 0.382,1.173 0.749,2.291 1.096,3.36 0.145,0.498 0.404,1.066 0.158,1.706 -0.129,0.319 -0.456,0.541 -0.736,0.605 -0.281,0.074 -0.524,0.069 -0.738,0.073 -1.719,0.026 -2.784,-0.008 -2.787,-0.105 z"
   id="path1711" />
																						</g>
																					</g>
																				</g>
																			</g>
																		</g>
																	</g>
																</g>
															</g>
														</g>
													</g>
												</g>
											</g>
										</g>
									</g>
								</g>
							</g>
						</g>
						<g
   id="g1779"
   style="stroke:none;stroke-opacity:1">
							<g
   id="g1777"
   style="stroke:none;stroke-opacity:1">
								<g
   id="g1775"
   style="stroke:none;stroke-opacity:1">
									<g
   id="g1773"
   style="stroke:none;stroke-opacity:1">
										<g
   id="g1771"
   style="stroke:none;stroke-opacity:1">
											<g
   id="g1769"
   style="stroke:none;stroke-opacity:1">
												<g
   id="g1767"
   style="stroke:none;stroke-opacity:1">
													<g
   id="g1765"
   style="stroke:none;stroke-opacity:1">
														<g
   id="g1763"
   style="stroke:none;stroke-opacity:1">
															<g
   id="g1761"
   style="stroke:none;stroke-opacity:1">
																<g
   id="g1759"
   style="stroke:none;stroke-opacity:1">
																	<g
   id="g1757"
   style="stroke:none;stroke-opacity:1">
																		<g
   id="g1755"
   style="stroke:none;stroke-opacity:1">
																			<g
   id="g1753"
   style="stroke:none;stroke-opacity:1">
																				<g
   id="g1751"
   style="stroke:none;stroke-opacity:1">
																					<g
   id="g1749"
   style="stroke:none;stroke-opacity:1">
																						<path
   style="fill:#905128;fill-opacity:1;stroke:none;stroke-opacity:1"
   d="m 249.72554,190.19544 c 0,0 -8.276,0.212 -16.263,-5.021 0,0 1.54426,3.5154 5.8551,5.89142 2.45323,1.35215 6.27422,2.3353 10.74468,2.09158 z"
   id="path1747"
   sodipodi:nodetypes="ccscc" />
																					</g>
																				</g>
																			</g>
																		</g>
																	</g>
																</g>
															</g>
														</g>
													</g>
												</g>
											</g>
										</g>
									</g>
								</g>
							</g>
						</g>
						<g
   id="g1813"
   style="stroke:none;stroke-opacity:1">
							<g
   id="g1811"
   style="stroke:none;stroke-opacity:1">
								<g
   id="g1809"
   style="stroke:none;stroke-opacity:1">
									<g
   id="g1807"
   style="stroke:none;stroke-opacity:1">
										<g
   id="g1805"
   style="stroke:none;stroke-opacity:1">
											<g
   id="g1803"
   style="stroke:none;stroke-opacity:1">
												<g
   id="g1801"
   style="stroke:none;stroke-opacity:1">
													<g
   id="g1799"
   style="stroke:none;stroke-opacity:1">
														<g
   id="g1797"
   style="stroke:none;stroke-opacity:1">
															<g
   id="g1795"
   style="stroke:none;stroke-opacity:1">
																<g
   id="g1793"
   style="stroke:none;stroke-opacity:1">
																	<g
   id="g1791"
   style="stroke:none;stroke-opacity:1">
																		<g
   id="g1789"
   style="stroke:none;stroke-opacity:1">
																			<g
   id="g1787"
   style="stroke:none;stroke-opacity:1">
																				<g
   id="g1785"
   style="stroke:none;stroke-opacity:1">
																					<g
   id="g1783"
   style="stroke:none;stroke-opacity:1">
																						<path
   style="fill:#953448;fill-opacity:1;stroke:none;stroke-opacity:1"
   d="m 250.866,177.555 c -0.578,-0.829 -1.628,-1.313 -2.691,-1.24 -0.738,0.051 -1.494,0.376 -1.964,0.957 -0.47,0.581 -0.596,1.427 -0.212,2.013 0.432,0.66 1.381,0.846 2.198,0.648 0.817,-0.199 1.533,-0.704 2.215,-1.208 0.188,-0.14 0.381,-0.285 0.503,-0.482 0.122,-0.196 0.156,-0.458 0.022,-0.63"
   id="path1781" />
																					</g>
																				</g>
																			</g>
																		</g>
																	</g>
																</g>
															</g>
														</g>
													</g>
												</g>
											</g>
										</g>
									</g>
								</g>
							</g>
						</g>
						<g
   id="g1849"
   style="stroke:none;stroke-opacity:1">
							<g
   id="g1847"
   style="stroke:none;stroke-opacity:1">
								<g
   id="g1845"
   style="stroke:none;stroke-opacity:1">
									<g
   id="g1843"
   style="stroke:none;stroke-opacity:1">
										<g
   id="g1841"
   style="stroke:none;stroke-opacity:1">
											<g
   id="g1839"
   style="stroke:none;stroke-opacity:1">
												<g
   id="g1837"
   style="stroke:none;stroke-opacity:1">
													<g
   id="g1835"
   style="stroke:none;stroke-opacity:1">
														<g
   id="g1833"
   style="stroke:none;stroke-opacity:1">
															<g
   id="g1831"
   style="stroke:none;stroke-opacity:1">
																<g
   id="g1829"
   style="stroke:none;stroke-opacity:1">
																	<g
   id="g1827"
   style="stroke:none;stroke-opacity:1">
																		<g
   id="g1825"
   style="stroke:none;stroke-opacity:1">
																			<g
   id="g1823"
   style="stroke:none;stroke-opacity:1">
																				<g
   id="g1821"
   style="stroke:none;stroke-opacity:1">
																					<g
   id="g1819"
   style="stroke:none;stroke-opacity:1">
																						<g
   id="g1817"
   style="stroke:none;stroke-opacity:1">
																							<path
   style="fill:#263238;stroke:none;stroke-opacity:1"
   d="m 246.712,174.479 c 0.276,-0.005 0.208,1.833 1.731,3.199 1.519,1.37 3.487,1.24 3.491,1.497 0.021,0.116 -0.45,0.34 -1.278,0.33 -0.812,-0.004 -1.987,-0.31 -2.918,-1.146 -0.929,-0.837 -1.3,-1.921 -1.334,-2.677 -0.04,-0.771 0.182,-1.218 0.308,-1.203 z"
   id="path1815" />
																						</g>
																					</g>
																				</g>
																			</g>
																		</g>
																	</g>
																</g>
															</g>
														</g>
													</g>
												</g>
											</g>
										</g>
									</g>
								</g>
							</g>
						</g>
					</g>
				</g>
				<g
   id="g1885"
   style="stroke:none;stroke-opacity:1">
					<g
   id="g1883"
   style="stroke:none;stroke-opacity:1">
						<g
   id="g1881"
   style="stroke:none;stroke-opacity:1">
							<g
   id="g1879"
   style="stroke:none;stroke-opacity:1">
								<g
   id="g1877"
   style="stroke:none;stroke-opacity:1">
									<g
   id="g1875"
   style="stroke:none;stroke-opacity:1">
										<g
   id="g1873"
   style="stroke:none;stroke-opacity:1">
											<g
   id="g1871"
   style="stroke:none;stroke-opacity:1">
												<g
   id="g1869"
   style="stroke:none;stroke-opacity:1">
													<g
   id="g1867"
   style="stroke:none;stroke-opacity:1">
														<g
   id="g1865"
   style="stroke:none;stroke-opacity:1">
															<g
   id="g1863"
   style="stroke:none;stroke-opacity:1">
																<g
   id="g1861"
   style="stroke:none;stroke-opacity:1">
																	<g
   id="g1859"
   style="stroke:none;stroke-opacity:1">
																		<g
   id="g1857"
   style="stroke:none;stroke-opacity:1">
																			<path
   style="fill:#28170b;fill-opacity:1;stroke:none;stroke-opacity:1"
   d="m 246.565,153.595 c -0.185,0.454 -1.867,0.17 -3.863,0.332 -2,0.122 -3.624,0.642 -3.872,0.218 -0.11,-0.202 0.186,-0.624 0.852,-1.045 0.659,-0.42 1.7,-0.803 2.898,-0.89 1.198,-0.084 2.283,0.147 2.995,0.47 0.717,0.323 1.07,0.699 0.99,0.915 z"
   id="path1855" />
																		</g>
																	</g>
																</g>
															</g>
														</g>
													</g>
												</g>
											</g>
										</g>
									</g>
								</g>
							</g>
						</g>
					</g>
				</g>
				<g
   id="g1917"
   style="stroke:none;stroke-opacity:1">
					<g
   id="g1915"
   style="stroke:none;stroke-opacity:1">
						<g
   id="g1913"
   style="stroke:none;stroke-opacity:1">
							<g
   id="g1911"
   style="stroke:none;stroke-opacity:1">
								<g
   id="g1909"
   style="stroke:none;stroke-opacity:1">
									<g
   id="g1907"
   style="stroke:none;stroke-opacity:1">
										<g
   id="g1905"
   style="stroke:none;stroke-opacity:1">
											<g
   id="g1903"
   style="stroke:none;stroke-opacity:1">
												<g
   id="g1901"
   style="stroke:none;stroke-opacity:1">
													<g
   id="g1899"
   style="stroke:none;stroke-opacity:1">
														<g
   id="g1897"
   style="stroke:none;stroke-opacity:1">
															<g
   id="g1895"
   style="stroke:none;stroke-opacity:1">
																<g
   id="g1893"
   style="stroke:none;stroke-opacity:1">
																	<g
   id="g1891"
   style="stroke:none;stroke-opacity:1">
																		<g
   id="g1889"
   style="stroke:none;stroke-opacity:1">
																			<path
   style="fill:#28170b;fill-opacity:1;stroke:none;stroke-opacity:1"
   d="m 262.537,151.61 c -0.313,0.373 -1.464,-0.072 -2.866,-0.145 -1.399,-0.122 -2.601,0.158 -2.859,-0.255 -0.112,-0.2 0.09,-0.578 0.623,-0.922 0.526,-0.343 1.393,-0.606 2.356,-0.54 0.963,0.068 1.784,0.449 2.257,0.862 0.48,0.415 0.627,0.817 0.489,1 z"
   id="path1887" />
																		</g>
																	</g>
																</g>
															</g>
														</g>
													</g>
												</g>
											</g>
										</g>
									</g>
								</g>
							</g>
						</g>
					</g>
				</g>
				<g
   id="g1925"
   style="stroke:none;stroke-opacity:1">
					<g
   id="g1923"
   style="stroke:none;stroke-opacity:1">
						<g
   id="g1921"
   style="stroke:none;stroke-opacity:1">
							<path
   style="fill:#000000;fill-opacity:0;stroke:none;stroke-opacity:1"
   d="m 222.268,145.034 c 2.398,-7.043 12.867,-16.639 20.277,-15.973 l 11.708,7.343 c -0.798,4.024 -3.985,7.477 -7.933,8.594 -2.108,0.596 -4.634,0.721 -5.916,2.498 -1.309,1.814 -0.619,4.508 -1.841,6.382 -1.693,2.597 -6.177,2.383 -7.465,5.203 -0.563,1.232 -0.311,2.723 -0.896,3.945 -0.779,1.628 -4.979,3.628 -6.688,3.049 -1.709,-0.58 -1.656,-3.509 -2.188,-5.054 -0.909,-2.641 -0.486,-3.993 -0.14,-5.451 0.819,-3.456 -0.062,-7.176 1.082,-10.536 z"
   id="path1919" />
						</g>
					</g>
				</g>
				<g
   id="g1939"
   style="stroke:none;stroke-opacity:1">
					<g
   id="g1937"
   style="stroke:none;stroke-opacity:1">
						<g
   id="g1935"
   style="stroke:none;stroke-opacity:1">
							<g
   id="g1933"
   style="stroke:none;stroke-opacity:1">
								<g
   id="g1931"
   style="stroke:none;stroke-opacity:1">
									<g
   id="g1929"
   style="stroke:none;stroke-opacity:1">
										<path
   style="fill:#d9976c;fill-opacity:1;stroke:none;stroke-opacity:1"
   d="m 228.561,167.625 c 0.033,-0.914 -0.939,-3.109 -1.836,-3.285 -2.395,-0.469 -6.747,-0.444 -7.025,5.674 -0.38,8.364 8.096,7.02 8.122,6.781 0.02,-0.187 0.624,-6.015 0.739,-9.17 z"
   id="path1927" />
									</g>
								</g>
							</g>
						</g>
					</g>
				</g>
				<g
   id="g1955"
   style="stroke:none;stroke-opacity:1">
					<g
   id="g1953"
   style="stroke:none;stroke-opacity:1">
						<g
   id="g1951"
   style="stroke:none;stroke-opacity:1">
							<g
   id="g1949"
   style="stroke:none;stroke-opacity:1">
								<g
   id="g1947"
   style="stroke:none;stroke-opacity:1">
									<g
   id="g1945"
   style="stroke:none;stroke-opacity:1">
										<g
   id="g1943"
   style="stroke:none;stroke-opacity:1">
											<path
   style="fill:#905128;fill-opacity:1;stroke:none;stroke-opacity:1"
   d="m 225.411,173.51 c -0.035,-0.028 -0.15,0.095 -0.401,0.197 -0.245,0.099 -0.662,0.156 -1.09,-0.027 -0.869,-0.364 -1.549,-1.801 -1.521,-3.311 0.013,-0.762 0.206,-1.48 0.503,-2.068 0.283,-0.6 0.698,-1.01 1.147,-1.068 0.447,-0.083 0.75,0.198 0.842,0.438 0.101,0.24 0.041,0.404 0.084,0.42 0.022,0.022 0.186,-0.132 0.134,-0.48 -0.027,-0.168 -0.116,-0.37 -0.305,-0.539 -0.193,-0.172 -0.484,-0.269 -0.796,-0.25 -0.647,0.016 -1.254,0.583 -1.581,1.228 -0.362,0.647 -0.596,1.453 -0.611,2.309 -0.023,1.688 0.768,3.304 1.962,3.709 0.581,0.18 1.08,0.025 1.343,-0.161 0.266,-0.195 0.318,-0.38 0.29,-0.397 z"
   id="path1941" />
										</g>
									</g>
								</g>
							</g>
						</g>
					</g>
				</g>
			</g>
			<g
   id="g1963"
   style="stroke:none;stroke-opacity:1">
				<g
   id="g1961"
   style="stroke:none;stroke-opacity:1">
					<path
   style="fill:#28170b;fill-opacity:1;stroke:none;stroke-opacity:1"
   d="m 220.476,142.864 v 0 c 0.027,-2.617 -3.241,-4.328 -5.79,-4.921 -2.549,-0.593 -5.244,0.183 -7.539,1.44 -1.343,0.736 -2.60719,1.85337 -2.995,3.283 -0.25771,0.95004 -0.81906,3.42538 0.61494,2.88838 -2.746,0.94 -2.17594,4.47362 -0.74594,6.99862 1.43,2.526 5.293,3.218 7.511,1.347 -0.716,2.397 -1.80516,3.58332 -3.87516,4.98932 4.303,0.613 8.39716,-0.27632 11.07716,-3.69832 2.68,-3.421 3.369,-8.297 1.742,-12.327 z"
   id="path1959"
   sodipodi:nodetypes="ssscacccccs" />
				</g>
			</g>
			<g
   id="g1971"
   style="stroke:none;stroke-opacity:1">
				<g
   id="g1969"
   style="stroke:none;stroke-opacity:1">
					<g
   id="g1967"
   style="stroke:none;stroke-opacity:1">
						<path
   style="fill:#28170b;fill-opacity:1;stroke:none;stroke-opacity:1"
   d="m 214.67,156.168 c -0.06,0.009 -0.283,-0.94 -0.313,-2.51 -0.033,-1.566 0.199,-3.755 0.963,-6.036 0.772,-2.28 1.912,-4.163 2.886,-5.39 0.974,-1.232 1.726,-1.853 1.768,-1.809 0.154,0.109 -2.652,2.887 -4.129,7.376 -1.539,4.465 -0.986,8.376 -1.175,8.369 z"
   id="path1965" />
					</g>
				</g>
			</g>
			<g
   id="g1977"
   style="stroke:none;stroke-opacity:1">
				<g
   id="g1975"
   style="stroke:none;stroke-opacity:1">
					<path
   style="fill:#000000;fill-opacity:0;stroke:none;stroke-opacity:1"
   d="m 251.823,133.874 c 0.77,3.406 5.946,7.772 8.218,10.424 4.335,5.059 5.19,6.739 5.147,18.048 2.047,-3.906 3.614,-7.733 3.457,-12.14 -0.157,-4.407 -1.78,-8.821 -4.844,-11.993 -3.064,-3.171 -7.614,-4.971 -11.978,-4.339"
   id="path1973" />
				</g>
			</g>
		<path
   style="fill:#28170b;fill-opacity:1;stroke:none;stroke-width:0.263774;stroke-linecap:square;stroke-dasharray:none;stroke-opacity:1"
   d="m 221.07154,144.20456 c 0,0 -0.32416,0.22081 -0.38205,0.0576 -0.52501,-1.48015 -3.1415,-9.41885 -3.84184,-13.0147 -0.0301,-0.15332 0.70893,-0.41482 0.75562,-0.26575 1.74389,5.56739 4.1252,13.54708 3.69006,13.12186 z"
   id="path19460"
   sodipodi:nodetypes="cssscc" /></g>
		<g
   id="g1997"
   transform="translate(-109.83323,-15.906882)">
			<g
   id="g1989">
				<g
   id="g1987">
					<g
   id="g1985">
						<g
   id="g1983">
							<path
   style="fill:#ffffff"
   d="m 283.07243,227.60719 c 0,0 -7.68061,-16.14399 -10.18261,-19.18399 -2.346,-2.851 -5.368,-4.532 -7.385,-5.415 -1.122,-0.491 -2.303,-0.828 -3.509,-1.038 l -9.47981,-2.28314 c -1.28716,-1.06868 -1.83971,-3.3311 -2.32132,-5.70882 0,0 -5.62714,-0.86229 -14.89914,-0.31429 -9.272,0.548 -9.05663,-1.77487 -9.05663,-1.77487 0.18912,-0.4539 -0.99397,4.06545 -2.30293,5.06185 -0.31703,0.24133 -0.83178,0.2011 -1.31861,0.32158 -3.57465,0.88468 -9.43871,2.4411 -11.8516,3.68189 -3.584,1.844 -9.217,4.185 -12.316,19.705 l -2.175,15.183 22.04722,2.1646 2.472,38.379 12.809,8.92 c 0,0 38.04859,7.50795 37.779,9.842 -0.14634,1.26697 -3.4807,-21.52257 2.72931,-41.64172 2.5979,-8.41666 0.29169,-15.50028 0.29169,-15.50028 0,0 4.89443,-5.22781 8.66943,-10.39881 z"
   id="path1981"
   sodipodi:nodetypes="ccccccscssccccccsscc" />
						<path
   style="fill:none;stroke:#000000;stroke-width:0.263774;stroke-linecap:square;stroke-dasharray:none;stroke-opacity:1"
   d="m 224.31124,197.09087 22.36906,26.13273 5.98874,-23.10285"
   id="path16099"
   sodipodi:nodetypes="ccc" /><ellipse
   style="fill:#c961de;fill-opacity:1;stroke:#000000;stroke-width:0.310982;stroke-linecap:square;stroke-dasharray:none;stroke-opacity:1"
   id="path16101"
   cx="247.01167"
   cy="225.7307"
   rx="2.2014658"
   ry="2.4834938" /><ellipse
   style="fill:#f9f9f9;fill-opacity:1;stroke:none;stroke-width:0.263774;stroke-linecap:square;stroke-dasharray:none;stroke-opacity:1"
   id="path19335"
   cx="224.84612"
   cy="175.62482"
   rx="0.63603991"
   ry="0.66951573" /></g>
					</g>
				</g>
			</g>
			<g
   id="g1995">
				<g
   id="g1993">
					<path
   style="fill:#263238"
   d="m 270.92804,221.90134 c 0.033,-0.012 0.209,0.382 0.499,1.107 0.295,0.723 0.672,1.789 1.091,3.122 0.841,2.663 1.764,6.429 2.287,10.667 0.515,4.24 0.60445,8.1597 0.42945,10.9467 -0.085,1.394 -0.31094,2.55931 -0.42294,3.33131 -0.106,0.774 -0.28525,1.08085 -0.32125,1.07685 -0.035,-0.004 -2e-4,-0.35955 0.0448,-1.13655 0.05,-0.776 0.22094,-1.94031 0.25894,-3.32831 0.08,-2.776 0.009,-6.62 -0.501,-10.827 -0.519,-4.204 -1.377,-7.951 -2.125,-10.626 -0.372,-1.338 -0.694,-2.417 -0.93,-3.159 -0.232,-0.744 -0.344,-1.161 -0.31,-1.174 z"
   id="path1991"
   sodipodi:nodetypes="ccccccccccccc" />
				</g>
			</g>
		</g>
		<g
   id="g2051"
   transform="translate(-109.83323,-15.906882)">
			<g
   id="g2003">
				<g
   id="g2001">
					<path
   style="fill:#d9976c;fill-opacity:1"
   d="m 269.197,283.353 -48.629,-10.585 -2.247,-34.759 -19.84681,-1.999 c 0,0 0.8,23.762 1.632,30.826 1.196,10.16 5.42281,24.024 8.93581,26.794 3.513,2.77 62.338,1.521 62.338,1.521 z"
   id="path1999"
   sodipodi:nodetypes="cccccscc" />
				</g>
			</g>
			<g
   id="g2009">
				<g
   id="g2007">
					<path
   style="fill:#d9976c;fill-opacity:1"
   d="m 296.801,289.653 c -0.342,0.678 -1.053,1.121 -1.81,1.055 -0.151,-0.013 -0.309,-0.043 -0.471,-0.095 -1.076,-0.345 -0.975,-2.535 -0.975,-2.535 l -5.154,-0.841 c 0,0 -6.702,4.322 -9.086,7.186 -2.384,2.864 -8.467,0.544 -8.467,0.544 l -2.108,-10.985 9.486,-8.578 c 0,0 -0.583,0.511 0.072,-1.094 0.654,-1.605 3.635,-0.998 3.635,-0.998 0.464,-0.793 2.411,-1.078 2.411,-1.078 l 8.32,0.959 c 1.715,0.198 3.247,1.161 4.169,2.62 l 3.519,5.57 c 0,0 1.859,4.01 1.56,4.942 -0.451,1.407 -1.939,1.094 -1.939,1.094 0,0 -0.409,2.636 -1.101,2.728 -0.692,0.092 -2.061,-0.494 -2.061,-0.494 z"
   id="path2005" />
				</g>
			</g>
			<g
   id="g2017">
				<g
   id="g2015">
					<g
   id="g2013">
						<path
   style="fill:#eb996e"
   d="m 279.092,281.764 c 0.009,0.087 1.115,-0.015 2.893,0.062 1.773,0.087 4.226,0.398 6.79,1.271 1.281,0.431 2.464,0.951 3.501,1.497 1.005,0.566 2.054,1.031 2.376,1.764 0.161,0.359 0.089,0.723 -0.091,0.991 -0.176,0.268 -0.415,0.444 -0.628,0.531 -0.437,0.18 -0.72,0.057 -0.729,0.107 -0.021,0.012 0.258,0.229 0.797,0.088 0.26,-0.07 0.561,-0.244 0.803,-0.555 0.247,-0.294 0.39,-0.82 0.196,-1.302 -0.18,-0.485 -0.593,-0.86 -1.035,-1.169 -0.453,-0.297 -0.927,-0.6 -1.457,-0.885 -1.047,-0.581 -2.253,-1.128 -3.564,-1.569 -2.625,-0.894 -5.148,-1.153 -6.952,-1.143 -1.81,0.018 -2.909,0.254 -2.9,0.312 z"
   id="path2011" />
					</g>
				</g>
			</g>
			<g
   id="g2025">
				<g
   id="g2023">
					<g
   id="g2021">
						<path
   style="fill:#eb996e"
   d="m 278.51,287.069 c 0.01,0.158 3.396,0.016 7.555,0.26 4.162,0.229 7.51,0.752 7.537,0.597 0.012,-0.069 -0.811,-0.288 -2.166,-0.526 -1.354,-0.239 -3.243,-0.481 -5.341,-0.601 -2.097,-0.118 -4.001,-0.091 -5.373,-0.008 -1.373,0.084 -2.217,0.209 -2.212,0.278 z"
   id="path2019" />
					</g>
				</g>
			</g>
			<g
   id="g2033">
				<g
   id="g2031">
					<g
   id="g2029">
						<path
   style="fill:#eb996e"
   d="m 296.753,289.442 c 0.027,-0.005 0.065,-0.311 0.104,-0.887 0.035,-0.573 0.07,-1.404 0.005,-2.436 -0.035,-0.516 -0.09,-1.083 -0.232,-1.687 -0.132,-0.608 -0.422,-1.248 -0.818,-1.813 -0.75,-1.135 -1.792,-2.311 -3.118,-3.193 -1.321,-0.872 -2.642,-1.608 -3.98,-2.012 -1.327,-0.402 -2.568,-0.501 -3.594,-0.547 -1.029,-0.036 -1.858,-0.014 -2.43,0.008 -0.572,0.023 -0.888,0.053 -0.889,0.09 -0.004,0.085 1.269,0.128 3.296,0.276 1.009,0.093 2.213,0.23 3.471,0.639 1.248,0.4 2.548,1.139 3.824,1.982 1.279,0.856 2.253,1.932 3.016,3.033 0.804,1.05 0.954,2.253 1.079,3.257 0.202,2.014 0.151,3.293 0.266,3.29 z"
   id="path2027" />
					</g>
				</g>
			</g>
			<g
   id="g2041">
				<g
   id="g2039">
					<g
   id="g2037">
						<path
   style="fill:#eb996e"
   d="m 284.734,274.349 c -10e-4,0.079 1.245,0.112 3.233,0.341 1.915,0.293 4.978,0.434 6.723,3.072 1.89,2.4 3.496,4.667 4.199,6.527 0.745,1.847 0.679,3.125 0.788,3.115 0.028,10e-4 0.077,-0.313 0.049,-0.882 -0.024,-0.569 -0.146,-1.397 -0.484,-2.363 -0.639,-1.962 -2.236,-4.314 -4.137,-6.728 -0.485,-0.606 -1.01,-1.181 -1.617,-1.635 -0.606,-0.463 -1.31,-0.732 -1.958,-0.92 -1.312,-0.37 -2.519,-0.479 -3.527,-0.56 -2.02,-0.135 -3.27,-0.035 -3.269,0.033 z"
   id="path2035" />
					</g>
				</g>
			</g>
			<g
   id="g2049">
				<g
   id="g2047">
					<g
   id="g2045">
						<path
   style="fill:#28170b;fill-opacity:1"
   d="m 281.125,292.649 c 0.011,0.012 0.181,-0.117 0.494,-0.377 0.357,-0.286 0.818,-0.657 1.393,-1.119 1.229,-0.95 3.055,-2.303 5.469,-3.767 l -0.118,0.023 c 1.537,0.262 3.271,0.557 5.148,0.876 l -0.176,-0.217 c -0.011,0.421 0.013,0.832 0.096,1.259 0.087,0.419 0.22,0.872 0.584,1.239 0.189,0.179 0.46,0.285 0.683,0.314 0.229,0.058 0.478,0.082 0.725,0.043 0.491,-0.07 0.953,-0.329 1.282,-0.709 0.084,-0.094 0.156,-0.198 0.224,-0.305 l 0.047,-0.082 0.023,-0.042 0.011,-0.021 0.001,-0.003 c 0.066,-0.025 -0.575,0.209 -0.302,0.111 l 0.005,0.002 0.011,0.004 0.163,0.066 c 0.217,0.086 0.438,0.164 0.665,0.236 0.227,0.07 0.46,0.133 0.705,0.176 0.123,0.021 0.248,0.039 0.383,0.042 0.125,0.005 0.277,0.009 0.477,-0.092 0.291,-0.207 0.394,-0.451 0.505,-0.681 0.103,-0.234 0.187,-0.47 0.256,-0.708 0.142,-0.478 0.246,-0.958 0.331,-1.458 l -0.301,0.208 c 0.668,0.118 1.456,-0.043 1.92,-0.655 0.209,-0.284 0.38,-0.635 0.354,-1.037 -0.017,-0.36 -0.098,-0.677 -0.182,-0.997 -0.361,-1.264 -0.87,-2.476 -1.421,-3.706 l -0.007,-0.014 -0.01,-0.016 c -0.598,-0.948 -1.233,-1.954 -1.876,-2.972 -0.4,-0.632 -0.797,-1.26 -1.19,-1.883 -0.395,-0.603 -0.75,-1.281 -1.305,-1.824 -0.535,-0.541 -1.176,-0.963 -1.868,-1.241 -0.686,-0.296 -1.449,-0.37 -2.122,-0.441 -2.757,-0.31 -5.386,-0.606 -7.843,-0.882 l -0.034,-0.004 -0.028,0.005 c -0.482,0.082 -0.933,0.195 -1.376,0.362 -0.431,0.174 -0.888,0.37 -1.195,0.836 l 0.289,-0.09 c -0.881,-0.362 -1.901,-0.365 -2.673,0.149 -0.775,0.51 -1.132,1.333 -1.322,2.107 l 0.063,-0.109 c -2.724,2.45 -4.947,4.449 -6.537,5.879 -0.733,0.675 -1.319,1.215 -1.761,1.622 -0.399,0.376 -0.602,0.58 -0.589,0.595 0.013,0.015 0.242,-0.161 0.665,-0.51 0.46,-0.388 1.069,-0.901 1.831,-1.544 1.618,-1.398 3.88,-3.353 6.653,-5.748 l 0.045,-0.039 0.018,-0.07 c 0.175,-0.682 0.527,-1.434 1.166,-1.829 0.621,-0.419 1.515,-0.406 2.253,-0.098 l 0.182,0.076 0.107,-0.167 c 0.178,-0.278 0.573,-0.486 0.969,-0.631 0.401,-0.149 0.844,-0.256 1.282,-0.327 l -0.061,10e-4 c 2.456,0.29 5.083,0.6 7.838,0.925 0.703,0.077 1.359,0.142 1.986,0.413 0.625,0.253 1.205,0.637 1.688,1.127 0.491,0.474 0.824,1.111 1.233,1.737 0.393,0.623 0.79,1.251 1.189,1.884 0.643,1.017 1.279,2.023 1.878,2.97 l -0.016,-0.03 c 0.542,1.202 1.052,2.417 1.399,3.62 0.082,0.298 0.156,0.606 0.168,0.879 0.028,0.236 -0.092,0.492 -0.245,0.706 -0.299,0.422 -0.902,0.556 -1.409,0.473 l -0.259,-0.042 -0.042,0.251 c -0.078,0.471 -0.178,0.947 -0.309,1.395 -0.124,0.424 -0.31,0.941 -0.538,1.113 -0.012,0.006 -0.1,0.034 -0.21,0.023 -0.1,-10e-4 -0.208,-0.015 -0.315,-0.033 -0.215,-0.036 -0.432,-0.092 -0.646,-0.157 -0.214,-0.065 -0.426,-0.138 -0.633,-0.219 l -0.153,-0.061 -0.009,-0.004 -0.004,-0.002 c 0.271,-0.099 -0.372,0.134 -0.306,0.111 l -0.001,0.002 -0.009,0.016 -0.018,0.033 -0.036,0.065 c -0.053,0.084 -0.109,0.167 -0.175,0.241 -0.257,0.303 -0.618,0.506 -0.993,0.563 -0.188,0.032 -0.377,0.015 -0.566,-0.033 -0.206,-0.028 -0.342,-0.087 -0.471,-0.197 -0.491,-0.511 -0.561,-1.424 -0.564,-2.152 l -10e-4,-0.19 -0.176,-0.027 c -1.882,-0.294 -3.619,-0.565 -5.159,-0.806 l -0.066,-0.01 -0.052,0.033 c -2.413,1.519 -4.209,2.917 -5.409,3.919 -0.597,0.505 -1.045,0.91 -1.338,1.194 -0.296,0.288 -0.444,0.442 -0.432,0.454 z"
   id="path2043" />
					</g>
				</g>
			</g>
		</g>
		<g
   id="g2083"
   transform="translate(-109.83323,-15.906882)">
			<g
   id="g2067">
				<g
   id="g2057">
					<g
   id="g2055">
						<path
   style="fill:#e0e0e0"
   d="m 350.063,257.699 -64.053,0.52 c -2.078,0 -4.063,0.998 -4.375,3.053 l -7,46.685 h -32.993 c -1.062,0 -1.923,0.861 -1.923,1.923 0,1.062 0.861,1.923 1.923,1.923 h 32.416 6.153 66.805 l 7.202,-49.272 c 0.386,-2.542 -1.583,-4.832 -4.155,-4.832 z"
   id="path2053" />
					</g>
				</g>
				<g
   id="g2065">
					<g
   id="g2063">
						<g
   id="g2061">
							<path
   style="fill:#263238"
   d="m 350.063,257.699 c 0,0 0.349,-0.044 1.009,0.095 0.641,0.149 1.651,0.545 2.447,1.622 0.397,0.527 0.698,1.231 0.792,2.044 0.105,0.825 -0.132,1.695 -0.235,2.635 -0.268,1.887 -0.577,4.06 -0.924,6.502 -1.41,9.788 -3.441,23.894 -5.939,41.235 l -0.024,0.169 h -0.171 c -27.267,0.016 -63.1,0.038 -102.229,0.061 -0.919,0 -1.836,0 -2.751,0 -0.424,0.018 -1.015,-0.007 -1.456,-0.277 -0.455,-0.25 -0.808,-0.671 -0.985,-1.156 -0.384,-0.977 0.075,-2.174 0.995,-2.66 0.439,-0.265 1.024,-0.288 1.443,-0.271 h 1.355 c 3.609,0.001 7.181,0.001 10.707,0.002 7.052,0.002 13.921,0.005 20.54,0.007 l -0.246,0.212 c 2.52,-16.719 4.87,-32.316 6.979,-46.308 0.073,-0.886 0.473,-1.845 1.185,-2.439 0.695,-0.617 1.576,-0.945 2.449,-1.081 0.891,-0.135 1.739,-0.063 2.583,-0.091 0.845,-0.006 1.683,-0.012 2.515,-0.017 3.326,-0.022 6.543,-0.044 9.643,-0.065 6.199,-0.039 11.932,-0.076 17.138,-0.109 10.4,-0.053 18.69,-0.096 24.398,-0.125 2.837,-0.005 5.028,-0.009 6.527,-0.012 0.732,0.003 1.292,0.006 1.685,0.008 0.377,0.006 0.57,0.019 0.57,0.019 0,0 -0.193,0.016 -0.572,0.027 -0.393,0.008 -0.953,0.02 -1.685,0.035 -1.499,0.022 -3.691,0.053 -6.527,0.094 -5.708,0.063 -13.998,0.156 -24.397,0.271 -5.206,0.051 -10.938,0.108 -17.138,0.17 -3.1,0.03 -6.317,0.06 -9.643,0.092 -0.831,0.008 -1.67,0.016 -2.515,0.024 -0.843,0.029 -1.71,-0.036 -2.519,0.092 -0.814,0.128 -1.621,0.437 -2.234,0.985 -0.63,0.548 -0.962,1.313 -1.042,2.187 -2.088,13.995 -4.415,29.595 -6.91,46.318 l -0.032,0.212 h -0.215 c -6.619,0.002 -13.488,0.005 -20.54,0.007 -3.526,10e-4 -7.098,10e-4 -10.707,0.002 h -1.355 c -0.478,-0.013 -0.835,0.006 -1.193,0.207 -0.702,0.372 -1.052,1.284 -0.759,2.03 0.135,0.369 0.405,0.692 0.752,0.882 0.361,0.205 0.72,0.225 1.203,0.211 0.915,0 1.832,0 2.751,0 39.129,0.023 74.962,0.045 102.229,0.061 l -0.196,0.169 c 2.57,-17.331 4.661,-31.429 6.111,-41.21 0.366,-2.439 0.692,-4.609 0.975,-6.494 0.114,-0.943 0.355,-1.809 0.261,-2.595 -0.082,-0.786 -0.364,-1.473 -0.743,-1.992 -0.76,-1.06 -1.739,-1.468 -2.367,-1.633 -0.644,-0.156 -0.995,-0.126 -0.993,-0.152 z"
   id="path2059" />
						</g>
					</g>
				</g>
			</g>
			<g
   id="g2073">
				<g
   id="g2071">
					<path
   style="fill:#ffffff"
   d="m 311.31,284.158 c 0,2.215 1.796,4.01 4.01,4.01 2.215,0 4.01,-1.795 4.01,-4.01 0,-2.215 -1.796,-4.01 -4.01,-4.01 -2.215,0 -4.01,1.795 -4.01,4.01 z"
   id="path2069" />
				</g>
			</g>
			<g
   id="g2081">
				<g
   id="g2079">
					<g
   id="g2077">
						<path
   style="fill:#263238"
   d="m 277.231,311.373 c 0.091,0.015 2.13,-11.873 4.553,-26.548 2.425,-14.681 4.316,-26.59 4.226,-26.605 -0.091,-0.015 -2.129,11.87 -4.554,26.551 -2.423,14.675 -4.315,26.587 -4.225,26.602 z"
   id="path2075" />
					</g>
				</g>
			</g>
		</g>
	</g>
</g>
</svg>
