<?xml version="1.0" encoding="UTF-8" standalone="no"?>
<svg
   width="1440"
   height="1154"
   viewBox="0 0 1440 1154"
   fill="none"
   version="1.1"
   id="svg280"
   sodipodi:docname="BackgroundCircle.svg"
   inkscape:version="1.2.2 (b0a84865, 2022-12-01)"
   xmlns:inkscape="http://www.inkscape.org/namespaces/inkscape"
   xmlns:sodipodi="http://sodipodi.sourceforge.net/DTD/sodipodi-0.dtd"
   xmlns="http://www.w3.org/2000/svg"
   xmlns:svg="http://www.w3.org/2000/svg">
  <sodipodi:namedview
     id="namedview282"
     pagecolor="#ffffff"
     bordercolor="#000000"
     borderopacity="0.25"
     inkscape:showpageshadow="2"
     inkscape:pageopacity="0.0"
     inkscape:pagecheckerboard="0"
     inkscape:deskcolor="#d1d1d1"
     showgrid="false"
     inkscape:zoom="0.40901214"
     inkscape:cx="233.4894"
     inkscape:cy="497.54024"
     inkscape:window-width="1680"
     inkscape:window-height="921"
     inkscape:window-x="0"
     inkscape:window-y="25"
     inkscape:window-maximized="0"
     inkscape:current-layer="svg280" />
  <g
     filter="url(#filter0_f_126_3324)"
     id="g134">
    <circle
       cx="746"
       cy="617"
       r="500"
       fill="url(#paint0_radial_126_3324)"
       fill-opacity="0.6"
       id="circle132" />
  </g>
  <g
     style="mix-blend-mode:overlay"
     id="g138"
     transform="matrix(0.84513984,0,0,0.84513984,111.5179,96.013297)">
    <path
       d="M 632.07,384.16 C 423.617,408.539 269,498.015 269,604.665 269,730.07 482.781,831.731 746.493,831.731 1010.2,831.731 1223.99,730.07 1223.99,604.665 1223.99,494.564 1059.2,402.766 840.514,382"
       stroke="url(#paint1_angular_126_3324)"
       stroke-width="1.70856"
       stroke-linecap="round"
       id="path136"
       style="stroke:url(#paint1_angular_126_3324)" />
  </g>
  <g
     style="mix-blend-mode:overlay;opacity:0.15946844"
     id="g142"
     transform="matrix(0.84513984,0,0,0.84513984,111.5179,96.013297)">
    <path
       d="M 632.07,385.76 C 423.617,410.138 269,499.615 269,606.264 c 0,125.405 213.781,227.066 477.493,227.066 263.707,0 477.497,-101.661 477.497,-227.066 0,-110.1 -164.79,-201.898 -383.476,-222.665"
       stroke="url(#paint2_angular_126_3324)"
       stroke-width="1.70856"
       stroke-linecap="round"
       id="path140"
       style="stroke:url(#paint2_angular_126_3324)" />
  </g>
  <g
     style="mix-blend-mode:overlay;opacity:0.3"
     id="g146"
     transform="matrix(0.84513984,0,0,0.84513984,111.5179,96.013297)">
    <path
       d="m 856.746,389.28 c 210.554,23.666 367.244,113.623 367.244,220.983 0,125.405 -213.79,227.065 -477.497,227.065 C 482.781,837.328 269,735.668 269,610.263 269,505.369 418.568,417.087 621.818,391.015"
       stroke="url(#paint3_angular_126_3324)"
       stroke-width="1.70856"
       stroke-linecap="round"
       id="path144"
       style="stroke:url(#paint3_angular_126_3324)" />
  </g>
  <g
     style="mix-blend-mode:overlay;opacity:0.3"
     id="g150"
     transform="matrix(0.84513984,0,0,0.84513984,111.5179,96.013297)">
    <path
       d="M 605.587,399.643 C 410.655,428.231 269,514.579 269,616.66 c 0,125.405 213.781,227.066 477.493,227.066 263.707,0 477.497,-101.661 477.497,-227.066 0,-105.39 -150.99,-194.01 -355.711,-219.614"
       stroke="url(#paint4_angular_126_3324)"
       stroke-width="1.70856"
       stroke-linecap="round"
       id="path148"
       style="stroke:url(#paint4_angular_126_3324)" />
  </g>
  <g
     style="mix-blend-mode:overlay;opacity:0.3"
     id="g154"
     transform="matrix(0.84513984,0,0,0.84513984,111.5179,96.013297)">
    <path
       d="m 885.791,408.204 c 195.759,28.349 338.199,114.89 338.199,217.252 0,125.405 -213.79,227.066 -477.497,227.066 C 482.781,852.522 269,750.861 269,625.456 269,526.458 402.228,442.257 588.074,411.186"
       stroke="url(#paint5_angular_126_3324)"
       stroke-width="1.70856"
       stroke-linecap="round"
       id="path152"
       style="stroke:url(#paint5_angular_126_3324)" />
  </g>
  <g
     style="mix-blend-mode:overlay;opacity:0.4"
     id="g158"
     transform="matrix(0.84513984,0,0,0.84513984,111.5179,96.013297)">
    <path
       d="M 521.195,214.756 C 158.801,257.138 -110,412.692 -110,598.102 c 0,218.016 371.657,394.753 830.119,394.753 458.461,0 830.121,-176.737 830.121,-394.753 0,-191.409 -286.48,-351 -666.665,-387.102"
       stroke="url(#paint6_angular_126_3324)"
       stroke-width="2.97033"
       stroke-linecap="round"
       id="path156"
       style="stroke:url(#paint6_angular_126_3324)" />
  </g>
  <g
     style="mix-blend-mode:overlay;opacity:0.3"
     id="g162"
     transform="matrix(0.84513984,0,0,0.84513984,111.5179,96.013297)">
    <path
       d="M 521.195,217.536 C 158.801,259.918 -110,415.473 -110,600.882 c 0,218.016 371.657,394.753 830.119,394.753 458.461,0 830.121,-176.737 830.121,-394.753 0,-191.409 -286.48,-351 -666.665,-387.102"
       stroke="url(#paint7_angular_126_3324)"
       stroke-width="2.97033"
       stroke-linecap="round"
       id="path160"
       style="stroke:url(#paint7_angular_126_3324)" />
  </g>
  <g
     style="mix-blend-mode:overlay;opacity:0.3"
     id="g166"
     transform="matrix(0.84513984,0,0,0.84513984,111.5179,96.013297)">
    <path
       d="M 911.794,223.656 C 1277.85,264.8 1550.24,421.19 1550.24,607.834 1550.24,825.85 1178.58,1002.59 720.119,1002.59 261.657,1002.59 -110,825.85 -110,607.834 -110,425.476 150.023,271.999 503.373,226.672"
       stroke="url(#paint8_angular_126_3324)"
       stroke-width="2.97033"
       stroke-linecap="round"
       id="path164"
       style="stroke:url(#paint8_angular_126_3324)" />
  </g>
  <g
     style="mix-blend-mode:overlay;opacity:0.3"
     id="g170"
     transform="matrix(0.84513984,0,0,0.84513984,111.5179,96.013297)">
    <path
       d="M 475.155,241.672 C 136.266,291.372 -110,441.487 -110,618.955 c 0,218.016 371.657,394.755 830.119,394.755 458.461,0 830.121,-176.739 830.121,-394.755 0,-183.22 -262.49,-337.285 -618.397,-381.797"
       stroke="url(#paint9_angular_126_3324)"
       stroke-width="2.97033"
       stroke-linecap="round"
       id="path168"
       style="stroke:url(#paint9_angular_126_3324)" />
  </g>
  <g
     style="mix-blend-mode:overlay;opacity:0.3"
     id="g174"
     transform="matrix(0.84513984,0,0,0.84513984,111.5179,96.013297)">
    <path
       d="M 962.289,256.556 C 1302.62,305.84 1550.24,456.292 1550.24,634.247 1550.24,852.263 1178.58,1029 720.119,1029 261.657,1029 -110,852.263 -110,634.247 -110,462.139 121.616,315.756 444.709,261.739"
       stroke="url(#paint10_angular_126_3324)"
       stroke-width="2.97033"
       stroke-linecap="round"
       id="path172"
       style="stroke:url(#paint10_angular_126_3324)" />
  </g>
  <defs
     id="defs278">
    <filter
       id="filter0_f_126_3324"
       x="46"
       y="-83"
       width="1400"
       height="1400"
       filterUnits="userSpaceOnUse"
       color-interpolation-filters="sRGB">
      <feFlood
         flood-opacity="0"
         result="BackgroundImageFix"
         id="feFlood176" />
      <feBlend
         mode="normal"
         in="SourceGraphic"
         in2="BackgroundImageFix"
         result="shape"
         id="feBlend178" />
      <feGaussianBlur
         stdDeviation="100"
         result="effect1_foregroundBlur_126_3324"
         id="feGaussianBlur180" />
    </filter>
    <radialGradient
       id="paint0_radial_126_3324"
       cx="0"
       cy="0"
       r="1"
       gradientUnits="userSpaceOnUse"
       gradientTransform="translate(711 702) rotate(89.2284) scale(594.054)">
      <stop
         stop-color="#2954A3"
         id="stop183" />
      <stop
         offset="1"
         stop-color="#0F103F"
         id="stop185" />
    </radialGradient>
    <radialGradient
       id="paint1_angular_126_3324"
       cx="0"
       cy="0"
       r="1"
       gradientUnits="userSpaceOnUse"
       gradientTransform="matrix(508.767,0,0,237.904,753.381,626.459)">
      <stop
         offset="0.458333"
         stop-color="white"
         id="stop188" />
      <stop
         offset="0.717799"
         stop-color="white"
         stop-opacity="0"
         id="stop190" />
      <stop
         offset="0.782437"
         stop-color="white"
         stop-opacity="0"
         id="stop192" />
      <stop
         offset="1"
         stop-color="white"
         stop-opacity="0.4"
         id="stop194" />
    </radialGradient>
    <radialGradient
       id="paint2_angular_126_3324"
       cx="0"
       cy="0"
       r="1"
       gradientUnits="userSpaceOnUse"
       gradientTransform="matrix(508.767,0,0,237.905,753.381,628.059)">
      <stop
         offset="0.458333"
         stop-color="white"
         id="stop197" />
      <stop
         offset="0.717799"
         stop-color="white"
         stop-opacity="0"
         id="stop199" />
      <stop
         offset="0.782437"
         stop-color="white"
         stop-opacity="0"
         id="stop201" />
      <stop
         offset="1"
         stop-color="white"
         stop-opacity="0.4"
         id="stop203" />
    </radialGradient>
    <radialGradient
       id="paint3_angular_126_3324"
       cx="0"
       cy="0"
       r="1"
       gradientUnits="userSpaceOnUse"
       gradientTransform="matrix(508.767,0,0,237.015,753.381,632.825)">
      <stop
         offset="0.458333"
         stop-color="white"
         id="stop206" />
      <stop
         offset="0.717799"
         stop-color="white"
         stop-opacity="0"
         id="stop208" />
      <stop
         offset="0.782437"
         stop-color="white"
         stop-opacity="0"
         id="stop210" />
      <stop
         offset="1"
         stop-color="white"
         stop-opacity="0.4"
         id="stop212" />
    </radialGradient>
    <radialGradient
       id="paint4_angular_126_3324"
       cx="0"
       cy="0"
       r="1"
       gradientUnits="userSpaceOnUse"
       gradientTransform="matrix(508.767,0,0,236.29,753.381,639.847)">
      <stop
         offset="0.458333"
         stop-color="white"
         id="stop215" />
      <stop
         offset="0.717799"
         stop-color="white"
         stop-opacity="0"
         id="stop217" />
      <stop
         offset="0.782437"
         stop-color="white"
         stop-opacity="0"
         id="stop219" />
      <stop
         offset="1"
         stop-color="white"
         stop-opacity="0.4"
         id="stop221" />
    </radialGradient>
    <radialGradient
       id="paint5_angular_126_3324"
       cx="0"
       cy="0"
       r="1"
       gradientUnits="userSpaceOnUse"
       gradientTransform="matrix(508.767,0,0,235.041,753.381,649.721)">
      <stop
         offset="0.458333"
         stop-color="white"
         id="stop224" />
      <stop
         offset="0.717799"
         stop-color="white"
         stop-opacity="0"
         id="stop226" />
      <stop
         offset="0.782437"
         stop-color="white"
         stop-opacity="0"
         id="stop228" />
      <stop
         offset="1"
         stop-color="white"
         stop-opacity="0.4"
         id="stop230" />
    </radialGradient>
    <radialGradient
       id="paint6_angular_126_3324"
       cx="0"
       cy="0"
       r="1"
       gradientUnits="userSpaceOnUse"
       gradientTransform="matrix(884.489,0,0,413.596,732.095,635.992)">
      <stop
         offset="0.458333"
         stop-color="white"
         id="stop233" />
      <stop
         offset="0.717799"
         stop-color="white"
         stop-opacity="0"
         id="stop235" />
      <stop
         offset="0.782437"
         stop-color="white"
         stop-opacity="0"
         id="stop237" />
      <stop
         offset="1"
         stop-color="white"
         stop-opacity="0.4"
         id="stop239" />
    </radialGradient>
    <radialGradient
       id="paint7_angular_126_3324"
       cx="0"
       cy="0"
       r="1"
       gradientUnits="userSpaceOnUse"
       gradientTransform="matrix(884.489,0,0,413.596,732.095,638.772)">
      <stop
         offset="0.458333"
         stop-color="white"
         id="stop242" />
      <stop
         offset="0.717799"
         stop-color="white"
         stop-opacity="0"
         id="stop244" />
      <stop
         offset="0.782437"
         stop-color="white"
         stop-opacity="0"
         id="stop246" />
      <stop
         offset="1"
         stop-color="white"
         stop-opacity="0.4"
         id="stop248" />
    </radialGradient>
    <radialGradient
       id="paint8_angular_126_3324"
       cx="0"
       cy="0"
       r="1"
       gradientUnits="userSpaceOnUse"
       gradientTransform="matrix(884.489,0,0,412.049,732.095,647.058)">
      <stop
         offset="0.458333"
         stop-color="white"
         id="stop251" />
      <stop
         offset="0.717799"
         stop-color="white"
         stop-opacity="0"
         id="stop253" />
      <stop
         offset="0.782437"
         stop-color="white"
         stop-opacity="0"
         id="stop255" />
      <stop
         offset="1"
         stop-color="white"
         stop-opacity="0.4"
         id="stop257" />
    </radialGradient>
    <radialGradient
       id="paint9_angular_126_3324"
       cx="0"
       cy="0"
       r="1"
       gradientUnits="userSpaceOnUse"
       gradientTransform="matrix(884.489,0,0,410.79,732.095,659.266)">
      <stop
         offset="0.458333"
         stop-color="white"
         id="stop260" />
      <stop
         offset="0.717799"
         stop-color="white"
         stop-opacity="0"
         id="stop262" />
      <stop
         offset="0.782437"
         stop-color="white"
         stop-opacity="0"
         id="stop264" />
      <stop
         offset="1"
         stop-color="white"
         stop-opacity="0.4"
         id="stop266" />
    </radialGradient>
    <radialGradient
       id="paint10_angular_126_3324"
       cx="0"
       cy="0"
       r="1"
       gradientUnits="userSpaceOnUse"
       gradientTransform="matrix(884.489,0,0,408.618,732.095,676.432)">
      <stop
         offset="0.458333"
         stop-color="white"
         id="stop269" />
      <stop
         offset="0.717799"
         stop-color="white"
         stop-opacity="0"
         id="stop271" />
      <stop
         offset="0.782437"
         stop-color="white"
         stop-opacity="0"
         id="stop273" />
      <stop
         offset="1"
         stop-color="white"
         stop-opacity="0.4"
         id="stop275" />
    </radialGradient>
  </defs>
</svg>
