<?xml version="1.0" encoding="UTF-8" standalone="no"?>
<svg
   data-name="Layer 1"
   width="3360"
   height="2100"
   viewBox="0 0 3359.9998 2100"
   version="1.1"
   id="svg220"
   sodipodi:docname="astronaut.svg"
   inkscape:version="1.2.2 (b0a84865, 2022-12-01)"
   xmlns:inkscape="http://www.inkscape.org/namespaces/inkscape"
   xmlns:sodipodi="http://sodipodi.sourceforge.net/DTD/sodipodi-0.dtd"
   xmlns:xlink="http://www.w3.org/1999/xlink"
   xmlns="http://www.w3.org/2000/svg"
   xmlns:svg="http://www.w3.org/2000/svg">
  <sodipodi:namedview
     id="namedview222"
     pagecolor="#ffffff"
     bordercolor="#000000"
     borderopacity="0.25"
     inkscape:showpageshadow="2"
     inkscape:pageopacity="0.0"
     inkscape:pagecheckerboard="0"
     inkscape:deskcolor="#d1d1d1"
     showgrid="false"
     inkscape:zoom="0.28850856"
     inkscape:cx="1915.0212"
     inkscape:cy="1320.5847"
     inkscape:window-width="1680"
     inkscape:window-height="1050"
     inkscape:window-x="0"
     inkscape:window-y="0"
     inkscape:window-maximized="0"
     inkscape:current-layer="svg220" />
  <defs
     id="defs138">
    <linearGradient
       id="fe5e6308-1e89-4ce8-8c8d-e7ed4a72d158-76"
       x1="689.87054"
       y1="396.55768"
       x2="776.68054"
       y2="396.55768"
       gradientUnits="userSpaceOnUse">
      <stop
         offset="0"
         stop-color="#fff"
         id="stop132" />
      <stop
         offset="1"
         stop-color="#fff"
         stop-opacity="0.3"
         id="stop134" />
    </linearGradient>
    <linearGradient
       id="b0adbdce-87b5-465c-b00c-1cf2f5493111-77"
       x1="631.27386"
       y1="535.45361"
       x2="718.0838"
       y2="535.45361"
       xlink:href="#fe5e6308-1e89-4ce8-8c8d-e7ed4a72d158-76"
       gradientTransform="matrix(1.311336,0,0,1.311336,890.2281,256.39009)" />
    <linearGradient
       inkscape:collect="always"
       xlink:href="#fe5e6308-1e89-4ce8-8c8d-e7ed4a72d158-76"
       id="linearGradient4658"
       gradientUnits="userSpaceOnUse"
       x1="689.87054"
       y1="396.55768"
       x2="776.68054"
       y2="396.55768"
       gradientTransform="matrix(1.311336,0,0,1.311336,890.2281,256.39009)" />
  </defs>
  <rect
     style="fill:#3f3d56;fill-opacity:1;stroke-width:17.9487;stroke-linecap:square;stroke-dasharray:17.9487, 53.8454"
     id="rect1564"
     width="3410.6438"
     height="2138.5847"
     x="-24.26269"
     y="-20.796576" />
  <circle
     cx="1995.5177"
     cy="433.7114"
     r="86.800728"
     fill="#e6e6e6"
     id="circle142"
     style="stroke-width:1.31134" />
  <circle
     cx="1986.9799"
     cy="373.94696"
     r="9.9607372"
     fill="#cbcbcb"
     id="circle144"
     style="stroke-width:1.31134" />
  <circle
     cx="2004.0555"
     cy="473.55441"
     r="9.9607372"
     fill="#cbcbcb"
     id="circle146"
     style="stroke-width:1.31134" />
  <circle
     cx="2042.4755"
     cy="418.05881"
     r="7.1148105"
     fill="#cbcbcb"
     id="circle148"
     style="stroke-width:1.31134" />
  <circle
     cx="1961.3666"
     cy="440.82626"
     r="22.767403"
     fill="#cbcbcb"
     id="circle150"
     style="stroke-width:1.31134" />
  <circle
     cx="1696.6958"
     cy="567.46997"
     r="14.229633"
     fill="#c961de"
     id="circle152"
     style="stroke-width:1.31134" />
  <circle
     cx="2078.0496"
     cy="604.46698"
     r="14.229633"
     fill="#c961de"
     id="circle154"
     style="stroke-width:1.31134" />
  <circle
     cx="1908.717"
     cy="631.5033"
     r="8.5377798"
     fill="#e6e6e6"
     id="circle156"
     style="stroke-width:1.31134" />
  <circle
     cx="1251.3083"
     cy="900.44324"
     r="8.5377798"
     fill="#e6e6e6"
     id="circle158"
     style="stroke-width:1.31134" />
  <circle
     cx="1756.4601"
     cy="1129.5402"
     r="8.5377798"
     fill="#e6e6e6"
     id="circle160"
     style="stroke-width:1.31134" />
  <polygon
     points="585.975,441.473 582.747,438.223 580.581,440.375 583.808,443.625 580.558,446.852 582.71,449.019 585.96,445.791 589.188,449.041 591.354,446.889 588.126,443.639 591.376,440.412 589.224,438.245 "
     fill="#c961de"
     id="polygon162"
     transform="matrix(1.3113359,0,0,1.3113359,1117.5499,310.15483)" />
  <polygon
     points="155.18,547.815 151.953,544.565 149.786,546.717 153.014,549.967 149.764,553.194 151.916,555.361 155.165,552.133 158.393,555.383 160.56,553.231 157.332,549.982 160.582,546.754 158.43,544.588 "
     fill="#e6e6e6"
     id="polygon164"
     transform="matrix(1.3113359,0,0,1.3113359,1117.5499,310.15483)" />
  <polygon
     points="181.223,359.003 177.996,355.754 175.829,357.905 179.057,361.155 175.807,364.383 177.959,366.549 181.208,363.322 184.436,366.571 186.603,364.42 183.375,361.17 186.625,357.942 184.473,355.776 "
     fill="#e6e6e6"
     id="polygon166"
     transform="matrix(1.3113359,0,0,1.3113359,1117.5499,310.15483)" />
  <polygon
     points="748.743,158.255 745.516,155.006 743.349,157.157 746.577,160.407 743.327,163.635 745.479,165.801 748.729,162.574 751.956,165.823 754.123,163.672 750.895,160.422 754.145,157.194 751.993,155.028 "
     fill="#e6e6e6"
     id="polygon168"
     transform="matrix(1.3113359,0,0,1.3113359,1117.5499,310.15483)" />
  <polygon
     points="492.654,248.321 489.426,245.071 487.26,247.223 490.487,250.472 487.238,253.7 489.389,255.867 492.639,252.639 495.867,255.889 498.033,253.737 494.806,250.487 498.055,247.26 495.904,245.093 "
     fill="#e6e6e6"
     id="polygon170"
     transform="matrix(1.3113359,0,0,1.3113359,1117.5499,310.15483)" />
  <path
     d="m 1797.4016,842.54597 43.2356,-50.61569 43.2354,-50.61562 24.4072,-28.57337 c 1.3504,-1.58094 -0.7335,-4.04734 -2.0839,-2.46646 l -43.2357,50.61567 -43.2352,50.61569 -24.4072,28.57335 c -1.3505,1.5809 0.7333,4.04733 2.0838,2.46643 z"
     opacity="0.8"
     fill="url(#fe5e6308-1e89-4ce8-8c8d-e7ed4a72d158-76)"
     id="path172"
     style="fill:url(#linearGradient4658);stroke-width:1.31134" />
  <path
     d="m 1720.5617,1024.6852 43.2355,-50.61566 43.2354,-50.6157 24.407,-28.5733 c 1.3506,-1.5809 -0.7333,-4.0473 -2.0839,-2.4664 l -43.2355,50.6156 -43.2352,50.6157 -24.4073,28.57336 c -1.3505,1.5809 0.7335,4.0473 2.084,2.4664 z"
     opacity="0.8"
     fill="url(#b0adbdce-87b5-465c-b00c-1cf2f5493111-77)"
     id="path174"
     style="fill:url(#b0adbdce-87b5-465c-b00c-1cf2f5493111-77);stroke-width:1.31134" />
  <path
     d="m 1502.4614,744.6288 h 81.109 v 31.916 a 20.733532,20.733532 0 0 1 -20.7336,20.73355 h -39.6418 a 20.733532,20.733532 0 0 1 -20.7336,-20.73355 z"
     fill="#2f2e41"
     id="path176"
     style="stroke-width:1.31134" />
  <path
     d="m 1610.6066,1168.6717 c -18.4701,18.7134 -36.9685,18.8386 -55.495,0.6031 l -14.2302,-125.8238 -9.9607,126.0868 c -18.514,14.9844 -35.7677,17.0021 -51.2267,0.5568 -14.7468,-108.9397 -22.7624,-210.14636 -9.9607,-287.43846 l -27.0364,-109.56805 61.1875,-28.45929 c 12.3218,30.47953 -7.1118,46.06899 36.8334,45.54716 43.5577,-0.51721 40.3047,-16.90233 38.5837,-45.54716 l 56.2868,21.64878 a 20.171913,20.171913 0 0 1 11.9942,24.90172 l -28.438,90.05384 c 10.9478,45.46 -0.2929,171.91726 -8.5379,287.43856 z"
     fill="#e6e6e6"
     id="path178"
     style="stroke-width:1.31134" />
  <path
     d="m 1525.2288,1278.2398 c 0,0 -45.4254,3.9789 -51.5107,1.4735 v 0 q -0.5761,-0.2374 -1.1215,-0.5162 c -9.0433,-4.6172 -9.3188,-17.5484 -0.8665,-23.1752 l 17.9246,-11.9332 -15.6526,-83.9548 60.476,0.7114 z"
     fill="#2f2e41"
     id="path180"
     style="stroke-width:1.31134" />
  <path
     d="m 1559.38,1278.9512 c 0,0 45.4253,3.9791 51.5105,1.4735 v 0 q 0.5763,-0.2372 1.1216,-0.5161 c 9.0433,-4.6174 9.3188,-17.5483 0.8665,-23.1752 l -17.9245,-11.9333 22.0558,-83.9547 h -63.3217 z"
     fill="#2f2e41"
     id="path182"
     style="stroke-width:1.31134" />
  <path
     d="m 1452.6577,979.41764 9.0041,36.01646 a 21.70299,21.70299 0 0 1 -9.4428,23.5989 v 0 a 21.70299,21.70299 0 0 1 -33.1894,-16.0025 l -1.9459,-17.9996 -7.115,-171.07058 a 71.963244,71.963244 0 0 1 44.4003,-66.47542 l 13.9412,-5.78056 z"
     fill="#e6e6e6"
     id="path184"
     style="stroke-width:1.31134" />
  <path
     d="m 1678.9088,832.5394 -0.042,1.01031 -5.7487,138.08423 -1.1099,26.6806 -0.2135,5.29346 -1.9493,18.0004 a 21.703239,21.703239 0 1 1 -42.6321,-7.5985 l 9.0073,-36.01516 -0.1991,-2.6752 -1.1954,-16.734 -14.258,-198.3041 13.9449,5.77713 a 72.068269,72.068269 0 0 1 44.3966,66.48083 z"
     fill="#e6e6e6"
     id="path186"
     style="stroke-width:1.31134" />
  <path
     d="m 1546.6525,989.67724 c -51.6895,0 -83.5741,-17.926 -84.025,-18.186 l 1.4222,-2.4651 c 0.635,0.3669 64.5824,36.23686 158.5325,5.1444 l 0.895,2.7013 a 243.77484,243.77484 0 0 1 -76.8247,12.8054 z"
     fill="#2f2e41"
     id="path188"
     style="stroke-width:1.31134" />
  <path
     d="m 1495.4689,1120.869 c -11.3753,-25.5953 -11.4331,-136.84056 -11.4296,-141.56386 h 2.8459 c -8e-4,1.1506 0.053,115.35856 11.1849,140.40496 z"
     fill="#2f2e41"
     id="path190"
     style="stroke-width:1.31134" />
  <path
     d="m 1501.3858,1122.0169 c -10.1331,0 -16.8657,-2.1581 -21.2548,-4.633 -7.9916,-4.5065 -9.6404,-10.6472 -9.7064,-10.9056 l 2.757,-0.706 -1.3785,0.3529 1.3764,-0.3598 c 0.058,0.2153 1.4965,5.3277 8.4752,9.2103 7.6839,4.2731 23.1509,7.4622 53.1861,-1.6203 l 0.8226,2.7237 c -14.3741,4.3466 -25.5786,5.9378 -34.2776,5.9378 z"
     fill="#2f2e41"
     id="path192"
     style="stroke-width:1.31134" />
  <rect
     x="1434.266"
     y="829.49646"
     width="2.8465433"
     height="223.14215"
     transform="rotate(-2.80385)"
     fill="#2f2e41"
     id="rect194"
     style="stroke-width:1.31134" />
  <path
     d="m 1591.9857,1120.869 -2.6012,-1.1561 c 11.1321,-25.0464 11.1864,-139.25436 11.1849,-140.40506 h 2.8459 c 0,4.7234 -0.054,115.96866 -11.4296,141.56406 z"
     fill="#2f2e41"
     id="path196"
     style="stroke-width:1.31134" />
  <path
     d="m 1586.0689,1122.0169 c -8.6991,0 -19.9007,-1.5898 -34.2776,-5.9378 l 0.8227,-2.7237 c 30.035,9.081 45.4986,5.8947 53.1859,1.6202 6.9787,-3.8825 8.417,-8.9949 8.4739,-9.2102 l 2.7557,0.7127 c -0.067,0.2586 -1.7149,6.3993 -9.7065,10.9057 -4.3884,2.475 -11.1239,4.6331 -21.2541,4.6331 z"
     fill="#2f2e41"
     id="path198"
     style="stroke-width:1.31134" />
  <rect
     x="-901.77405"
     y="1646.5673"
     width="223.14215"
     height="2.8465433"
     transform="rotate(-87.20185)"
     fill="#2f2e41"
     id="rect200"
     style="stroke-width:1.31134" />
  <polygon
     points="339.101,391.003 304.377,391.003 292.767,367.131 297.867,367.131 306.548,386.663 335.846,386.663 349.953,367.131 355.248,367.131 "
     fill="#c961de"
     id="polygon202"
     transform="matrix(1.3113359,0,0,1.3113359,1117.5499,310.15483)" />
  <polygon
     points="394.725,379.631 394.443,380.152 394.443,379.067 "
     id="polygon204"
     transform="matrix(1.3113359,0,0,1.3113359,1117.5499,310.15483)" />
  <path
     d="m 1681.7547,832.5394 -0.042,1.01031 -26.9935,7.84059 -16.7057,-33.41132 17.09,-31.3335 a 71.874243,71.874243 0 0 1 26.6519,55.89392 z"
     fill="#c961de"
     id="path206"
     style="stroke-width:1.31134" />
  <path
     d="m 1408.2184,832.5394 0.042,1.01031 26.9937,7.84059 16.7055,-33.41132 -17.0898,-31.3335 a 71.874243,71.874243 0 0 0 -26.652,55.89392 z"
     fill="#c961de"
     id="path208"
     style="stroke-width:1.31134" />
  <circle
     cx="1543.0157"
     cy="692.69067"
     r="75.41703"
     fill="#e6e6e6"
     id="circle210"
     style="stroke-width:1.31134" />
  <circle
     cx="1543.0157"
     cy="702.65131"
     r="55.495556"
     fill="#2f2e41"
     id="circle212"
     style="stroke-width:1.31134" />
  <polygon
     points="393.9,494.481 424.284,504.432 423.403,524.778 395.571,509.825 394.849,507.242 "
     fill="#c961de"
     id="polygon214"
     transform="matrix(1.3113359,0,0,1.3113359,1117.5499,310.15483)" />
  <polygon
     points="258.26,494.481 226.324,504.432 227.25,524.778 256.503,509.825 257.263,507.242 "
     fill="#c961de"
     id="polygon216"
     transform="matrix(1.3113359,0,0,1.3113359,1117.5499,310.15483)" />
  <polygon
     points="303.698,392.089 283.777,351.139 282.753,336.41 284.918,336.26 285.913,350.568 305.057,389.918 338.525,389.918 363.075,353.628 368.301,337.605 370.366,338.277 364.958,354.718 339.678,392.089 "
     fill="#2f2e41"
     id="polygon218"
     transform="matrix(1.3113359,0,0,1.3113359,1117.5499,310.15483)" />
</svg>
