<?xml version="1.0" encoding="UTF-8" standalone="no"?>
<svg
   width="780"
   height="800"
   viewBox="0 0 780 800"
   fill="none"
   version="1.1"
   id="svg612"
   sodipodi:docname="illustration-left-footer.svg"
   inkscape:version="1.2.2 (b0a84865, 2022-12-01)"
   xmlns:inkscape="http://www.inkscape.org/namespaces/inkscape"
   xmlns:sodipodi="http://sodipodi.sourceforge.net/DTD/sodipodi-0.dtd"
   xmlns="http://www.w3.org/2000/svg"
   xmlns:svg="http://www.w3.org/2000/svg">
  <sodipodi:namedview
     id="namedview614"
     pagecolor="#ffffff"
     bordercolor="#000000"
     borderopacity="0.25"
     inkscape:showpageshadow="2"
     inkscape:pageopacity="0.0"
     inkscape:pagecheckerboard="0"
     inkscape:deskcolor="#d1d1d1"
     showgrid="false"
     inkscape:zoom="0.3455864"
     inkscape:cx="661.19501"
     inkscape:cy="826.13205"
     inkscape:window-width="1436"
     inkscape:window-height="847"
     inkscape:window-x="0"
     inkscape:window-y="25"
     inkscape:window-maximized="0"
     inkscape:current-layer="svg612" />
  <path
     d="m 126.28178,478.34018 c 7.4378,97.045 90.1315,169.525 184.7025,161.895 94.571,-7.63 165.206,-92.49 157.768,-189.535 -7.438,-97.045 -90.132,-169.528 -184.703,-161.896 -94.57,7.632 -165.2053,92.491 -157.7675,189.536 z"
     fill="url(#paint0_linear_126_1978)"
     id="path132"
     style="fill:url(#paint0_linear_126_1978)" />
  <path
     d="m 163.23528,473.10318 c -0.754,69.082 52.444,115.712 118.823,104.152 66.378,-11.57 120.8,-76.946 121.555,-146.031 0.754,-69.086 -52.445,-115.716 -118.823,-104.151 -66.379,11.564 -120.8,76.945 -121.555,146.03 z"
     fill="url(#paint1_radial_126_1978)"
     id="path134"
     style="fill:url(#paint1_radial_126_1978)" />
  <path
     d="m 172.89128,519.19218 c -13.8397,78.393 34.357,120.643 107.651,94.363 73.293,-26.29 143.928,-111.145 157.767,-189.54 13.84,-78.395 -34.357,-120.641 -107.65,-94.359 -73.294,26.283 -143.929,111.141 -157.768,189.536 z"
     fill="url(#paint2_radial_126_1978)"
     id="path136"
     style="fill:url(#paint2_radial_126_1978)" />
  <path
     d="m 173.24228,519.26018 c -6.907,39.125 1.68,69.125 21.03,86.085 19.35,16.96 49.574,20.98 86.15,7.86 36.573,-13.11 72.506,-40.85 101.027,-75.12 28.52,-34.262 49.603,-75.018 56.509,-114.138 6.907,-39.122 -1.68,-69.128 -21.03,-86.088 -19.35,-16.961 -49.574,-20.973 -86.149,-7.857 -36.574,13.115 -72.507,40.855 -101.027,75.118 -28.521,34.264 -49.604,75.02 -56.51,114.14 z"
     stroke="url(#paint3_linear_126_1978)"
     stroke-opacity="0.2"
     stroke-width="0.722376"
     id="path138"
     style="stroke:url(#paint3_linear_126_1978)" />
  <mask
     id="path-5-inside-1_126_1978"
     fill="#ffffff">
    <path
       fill-rule="evenodd"
       clip-rule="evenodd"
       d="m 143.083,1004.43 c -0.548,-8.355 0.161,-17.685 2.262,-27.867 12.187,-59.064 66.609,-124.444 121.554,-146.03 9.471,-3.721 18.34,-5.897 26.47,-6.649 4.189,-56.06 -33.919,-83.874 -90.57,-62.622 -61.497,23.07 -121.5587,95.225 -134.1505,161.163 -11.5995,60.741 21.1297,95.015 74.4345,82.005 z"
       id="path140" />
  </mask>
  <path
     fill-rule="evenodd"
     clip-rule="evenodd"
     d="m 203.84928,538.55518 c -0.548,-8.355 0.161,-17.685 2.262,-27.867 12.187,-59.064 66.609,-124.444 121.554,-146.03 9.471,-3.721 18.34,-5.897 26.47,-6.649 4.189,-56.06 -33.919,-83.874 -90.57,-62.622 -61.497,23.07 -121.5587,95.225 -134.1505,161.163 -11.5995,60.741 21.1297,95.015 74.4345,82.005 z"
     fill="url(#paint4_linear_126_1978)"
     id="path143"
     style="fill:url(#paint4_linear_126_1978)" />
  <path
     d="m 145.345,976.563 -0.698,-0.156 z m -2.262,27.867 0.711,-0.04 0.041,0.61 -0.582,0.14 z m 123.816,-173.897 0.259,0.684 z m 26.47,-6.649 0.712,0.061 -0.046,0.612 -0.596,0.055 z m -90.57,-62.622 -0.249,-0.687 z m -134.1505,161.163 0.7002,0.146 z m 77.3945,54.295 c -2.09,10.127 -2.791,19.389 -2.249,27.67 l -1.423,0.09 c -0.553,-8.439 0.164,-17.837 2.276,-28.073 z M 267.158,831.217 c -27.335,10.738 -54.584,32.394 -76.526,58.754 -21.942,26.36 -38.526,57.365 -44.589,86.749 l -1.396,-0.313 c 6.124,-29.68 22.844,-60.898 44.896,-87.39 22.052,-26.492 49.486,-48.32 77.096,-59.167 z m 26.281,-6.605 c -8.055,0.745 -16.86,2.903 -26.281,6.605 l -0.519,-1.367 c 9.522,-3.741 18.456,-5.936 26.661,-6.694 z m -0.781,-0.789 c 2.082,-27.86 -6.351,-48.53 -22.159,-59.64 -15.825,-11.122 -39.25,-12.814 -67.45,-2.234 l -0.499,-1.374 c 28.45,-10.673 52.405,-9.084 68.749,2.404 16.362,11.498 24.889,32.766 22.782,60.966 z m -89.609,-61.874 c -30.607,11.482 -60.901,35.2 -85.121,64.296 -24.2188,29.096 -42.3124,63.509 -48.5793,96.326 l -1.4004,-0.292 c 6.325,-33.121 24.5579,-67.754 48.8917,-96.988 24.334,-29.233 54.819,-53.128 85.71,-64.716 z M 69.3487,922.571 c -5.7742,30.236 -0.484,53.714 12.6948,68.014 13.1652,14.285 34.3785,19.605 60.8695,13.135 l 0.34,1.42 c -26.814,6.55 -48.6177,1.23 -62.2433,-13.555 -13.612,-14.77 -18.8866,-38.801 -13.0614,-69.306 z"
     fill="url(#paint5_linear_126_1978)"
     fill-opacity="0.3"
     mask="url(#path-5-inside-1_126_1978)"
     id="path145"
     style="fill:url(#paint5_linear_126_1978)"
     transform="translate(60.766281,-465.87482)" />
  <g
     style="mix-blend-mode:lighten"
     id="g149"
     transform="translate(60.766281,-465.87482)">
    <ellipse
       cx="213.347"
       cy="206.235"
       rx="213.347"
       ry="206.235"
       transform="matrix(0.638631,-0.767225,-0.753349,-0.660329,257.959,1138.47)"
       fill="url(#paint6_radial_126_1978)"
       fill-opacity="0.6"
       id="ellipse147"
       style="fill:url(#paint6_radial_126_1978)" />
  </g>
  <g
     style="mix-blend-mode:lighten"
     id="g153"
     transform="translate(60.766281,-465.87482)">
    <path
       d="M 487.163,646.357 C 366.145,540.281 183.957,555.305 80.2347,679.912 -23.4876,804.52 -9.46647,991.525 111.552,1097.6 232.57,1203.68 414.758,1188.65 518.481,1064.05 622.203,939.438 608.182,752.432 487.163,646.357 Z"
       fill="url(#paint7_radial_126_1978)"
       fill-opacity="0.8"
       id="path151"
       style="fill:url(#paint7_radial_126_1978)" />
  </g>
  <path
     d="m 206.11328,510.68818 c -12.187,59.067 22.475,89.447 77.42,67.857 54.946,-21.58 109.367,-86.962 121.554,-146.027 12.188,-59.064 -22.474,-89.446 -77.42,-67.86 -54.945,21.586 -109.366,86.966 -121.554,146.03 z"
     fill="url(#paint8_radial_126_1978)"
     id="path155"
     style="fill:url(#paint8_radial_126_1978)" />
  <path
     d="m 407.48428,809.67518 c 94.272,13.85 168.122,-11.47 211.402,-63.47 43.28,-51.99 56.109,-130.8 28.039,-224.189 -28.071,-93.388 -91.712,-183.587 -171.94,-253.908 -80.227,-70.321 -176.994,-120.724 -271.269,-134.576 -94.2723,-13.851 -168.122499,11.472 -211.4020993,63.466 -43.2798997,51.995 -56.1098997,130.806 -28.0392997,224.191 28.0709997,93.389 91.71244,183.586 171.939899,253.906 80.2275,70.32 176.9935,120.73 271.2695,134.58 z"
     stroke="url(#paint9_linear_126_1978)"
     stroke-width="1.20396"
     id="path157"
     style="stroke:url(#paint9_linear_126_1978)" />
  <path
     d="m 418.18528,797.22518 c 94.384,13.86 168.417,-11.48 211.832,-63.64 43.415,-52.15 56.235,-131.15 28.132,-224.647 -28.103,-93.495 -91.806,-183.768 -172.085,-254.135 -80.28,-70.367 -177.128,-120.82 -271.512,-134.688 -94.3833,-13.868 -168.416599,11.475 -211.8312993,63.632 -43.4146997,52.157 -56.2346997,131.156 -28.1318997,224.65 28.1031997,93.496 91.80561,183.768 172.085299,254.138 80.2799,70.36 177.1269,120.82 271.5109,134.69 z"
     stroke="url(#paint10_linear_126_1978)"
     stroke-width="0.240792"
     id="path159"
     style="stroke:url(#paint10_linear_126_1978)" />
  <path
     d="m 427.90528,855.81518 c 110.388,14.01 197.761,-17.78 249.864,-80.37 52.104,-62.6 69.042,-156.12 38.303,-265.819 -30.741,-109.7 -103.332,-214.728 -195.869,-295.839 -92.538,-81.112 -204.977,-138.265999 -315.37,-152.274999 -110.387199,-14.007 -197.7602993,17.781 -249.863999,80.375999 -52.103,62.596 -69.042001,156.123 -38.302,265.818 30.741,109.7 103.3312,214.729 195.868699,295.839 92.5373,81.11 204.9763,138.27 315.3693,152.27 z"
     stroke="url(#paint11_linear_126_1978)"
     stroke-width="1.20396"
     id="path161"
     style="stroke:url(#paint11_linear_126_1978)" />
  <path
     d="m 427.90528,855.81518 c 110.388,14.01 197.761,-17.78 249.864,-80.37 52.104,-62.6 69.042,-156.12 38.303,-265.819 -30.741,-109.7 -103.332,-214.728 -195.869,-295.839 -92.538,-81.112 -204.977,-138.265999 -315.37,-152.274999 -110.387199,-14.007 -197.7602993,17.781 -249.863999,80.375999 -52.103,62.596 -69.042001,156.123 -38.302,265.818 30.741,109.7 103.3312,214.729 195.868699,295.839 92.5373,81.11 204.9763,138.27 315.3693,152.27 z"
     stroke="url(#paint12_linear_126_1978)"
     stroke-opacity="0.2"
     stroke-width="1.20396"
     id="path163"
     style="stroke:url(#paint12_linear_126_1978)" />
  <path
     d="m 437.68428,844.03518 c 114.688,8.84 207.735,-29.72 265.507,-99.13 57.773,-69.41 80.342,-169.74 53.91,-284.604 -26.434,-114.871 -96.866,-222.478 -189.394,-303.581 -92.528,-81.103999 -207.112,-135.666999 -321.809,-144.501999 -114.6878,-8.8329997 -207.733999,29.726 -265.506699,99.131999 -57.7733,69.406 -80.3413,169.742 -53.9093,284.605 26.434,114.87 96.8653,222.48 189.393499,303.58 92.5285,81.1 207.1125,135.67 321.8085,144.5 z"
     stroke="url(#paint13_linear_126_1978)"
     stroke-width="1.20396"
     id="path165"
     style="stroke:url(#paint13_linear_126_1978)" />
  <rect
     width="4.5723929"
     height="4.4572248"
     transform="matrix(-0.07641868,-0.99707582,-0.99675908,0.08044466,0,0)"
     fill="#00f0ff"
     fill-opacity="0.5"
     id="rect167"
     x="-421.41269"
     y="-434.73642"
     style="stroke-width:0.999836" />
  <rect
     width="1.8853508"
     height="1.8378631"
     transform="matrix(-0.07641868,-0.99707582,-0.99675908,0.08044466,0,0)"
     fill="#00f0ff"
     id="rect169"
     x="-237.51344"
     y="-448.65286"
     style="stroke-width:0.999836" />
  <rect
     width="2.475971"
     height="2.4136069"
     transform="matrix(0.07641868,0.99707582,-0.99675908,0.08044466,0,0)"
     fill="#00f0ff"
     id="rect171"
     x="173.70241"
     y="-90.053024"
     style="stroke-width:0.999836" />
  <rect
     width="2.8513784"
     height="2.7795587"
     transform="matrix(-0.07641868,-0.99707582,-0.99675908,0.08044466,0,0)"
     fill="#00f0ff"
     id="rect173"
     x="-182.89136"
     y="-386.41931"
     style="stroke-width:0.999836" />
  <rect
     width="1.6898648"
     height="1.6473008"
     transform="matrix(-0.07641868,-0.99707582,-0.99675908,0.08044466,0,0)"
     fill="#00f0ff"
     id="rect175"
     x="-223.67445"
     y="-375.29166"
     style="stroke-width:0.999836" />
  <rect
     width="4.5723929"
     height="4.4572248"
     transform="matrix(-0.07641868,-0.99707582,-0.99675908,0.08044466,0,0)"
     fill="#00f0ff"
     id="rect177"
     x="-492.29465"
     y="-347.66653"
     style="stroke-width:0.999836" />
  <rect
     width="4.5723929"
     height="4.4572248"
     transform="matrix(-0.07641868,-0.99707582,-0.99675908,0.08044466,0,0)"
     fill="#0500ff"
     fill-opacity="0.5"
     id="rect179"
     x="-583.70978"
     y="-470.35733"
     style="stroke-width:0.999836" />
  <rect
     width="3.1956358"
     height="3.115145"
     transform="matrix(-0.07641868,-0.99707582,-0.99675908,0.08044466,0,0)"
     fill="#3dfffb"
     id="rect181"
     x="-446.56656"
     y="-516.9707"
     style="stroke-width:0.999836" />
  <rect
     width="5.9431043"
     height="5.7934108"
     transform="matrix(-0.07641868,-0.99707582,-0.99675908,0.08044466,0,0)"
     fill="#0500ff"
     fill-opacity="0.5"
     id="rect183"
     x="-620.48181"
     y="-137.14034"
     style="stroke-width:0.999836" />
  <rect
     width="5.3093863"
     height="5.4253883"
     transform="matrix(0.9562647,-0.2925027,-0.2789817,-0.96029642,0,0)"
     fill="#0066ff"
     fill-opacity="0.5"
     id="rect185"
     x="16.66687"
     y="-382.75607"
     style="stroke-width:0.999883" />
  <rect
     width="4.1453223"
     height="4.2524319"
     transform="matrix(0.99675847,-0.08045223,-0.0764117,-0.99707635,0,0)"
     fill="#00d1ff"
     id="rect187"
     x="201.17041"
     y="-307.49179"
     style="stroke-width:0.999837" />
  <rect
     width="4.9896288"
     height="5.0986443"
     transform="matrix(-0.95625946,0.29251983,-0.27896487,-0.96030131,0,0)"
     fill="#001aff"
     fill-opacity="0.5"
     id="rect189"
     x="-275.24063"
     y="-483.32904"
     style="stroke-width:0.999883" />
  <rect
     width="5.3093872"
     height="5.4253888"
     transform="matrix(0.95625946,-0.29251983,-0.27896487,-0.96030131,0,0)"
     fill="#0066ff"
     fill-opacity="0.5"
     id="rect191"
     x="283.80231"
     y="-355.64566"
     style="stroke-width:0.999883" />
  <rect
     width="3.8309498"
     height="3.9299302"
     transform="matrix(0.99675908,-0.08044461,-0.07641888,-0.9970758,0,0)"
     fill="#0500ff"
     fill-opacity="0.5"
     id="rect193"
     x="193.69069"
     y="-187.94214"
     style="stroke-width:0.999837" />
  <rect
     width="3.7145214"
     height="3.7956798"
     transform="matrix(0.95626713,-0.29249474,-0.27898862,-0.96029441,0,0)"
     fill="#0500ff"
     fill-opacity="0.5"
     id="rect195"
     x="-50.093609"
     y="-440.13174"
     style="stroke-width:0.999883" />
  <rect
     width="3.0452425"
     height="2.9685435"
     transform="matrix(-0.07642905,-0.99707502,-0.99675994,0.08043401,0,0)"
     fill="#00fff0"
     fill-opacity="0.6"
     id="rect197"
     x="-423.31967"
     y="-396.71375"
     style="stroke-width:0.999835" />
  <rect
     width="3.4308326"
     height="3.3444002"
     transform="matrix(-0.07641828,-0.99707585,-0.99675909,0.08044455,0,0)"
     fill="#00fff0"
     id="rect199"
     x="-625.61719"
     y="-407.39401"
     style="stroke-width:0.999839" />
  <rect
     width="3.7880583"
     height="3.6926188"
     transform="matrix(0.07641828,0.99707585,-0.99675909,0.08044455,0,0)"
     fill="#00fff0"
     id="rect201"
     x="395.32925"
     y="-537.41461"
     style="stroke-width:0.999839" />
  <rect
     width="4.0308118"
     height="3.9292574"
     transform="matrix(-0.07641828,-0.99707585,-0.99675909,0.08044455,0,0)"
     fill="#00fff0"
     id="rect203"
     x="-335.90717"
     y="-467.90927"
     style="stroke-width:0.999839" />
  <rect
     width="4.0308194"
     height="3.92926"
     transform="matrix(-0.07641072,-0.99707643,-0.99675844,0.0804526,0,0)"
     fill="#00fff0"
     fill-opacity="0.5"
     id="rect205"
     x="-470.10031"
     y="-169.38866"
     style="stroke-width:0.999839" />
  <rect
     width="2.209655"
     height="2.1539891"
     transform="matrix(-0.07641828,-0.99707585,-0.99675909,0.08044455,0,0)"
     fill="#00fff0"
     fill-opacity="0.5"
     id="rect207"
     x="-526.33319"
     y="-267.57498"
     style="stroke-width:0.999839" />
  <rect
     width="4.0046983"
     height="3.9558504"
     transform="matrix(0.50250509,-0.86457425,-0.85293194,-0.52202213,0,0)"
     fill="#0500ff"
     fill-opacity="0.5"
     id="rect209"
     x="-348.52737"
     y="-647.93689"
     style="stroke-width:0.999962" />
  <rect
     width="2.8142502"
     height="2.7433391"
     transform="matrix(-0.07641828,-0.99707585,-0.99675909,0.08044455,0,0)"
     fill="#00d1ff"
     fill-opacity="0.6"
     id="rect211"
     x="-579.02795"
     y="-374.66321"
     style="stroke-width:0.999839" />
  <rect
     width="7.5824742"
     height="7.3914285"
     transform="matrix(-0.07641828,-0.99707585,-0.99675909,0.08044455,0,0)"
     fill="#6100ff"
     fill-opacity="0.5"
     id="rect213"
     x="-599.32916"
     y="-346.09525"
     style="stroke-width:0.999839" />
  <g
     opacity="0.5"
     id="g233"
     transform="translate(60.766281,-465.87482)">
    <rect
       width="3.0079701"
       height="3.00632"
       transform="matrix(-0.0773657,-1.00944,-0.984234,0.079434,515.203,748.132)"
       fill="#00fff0"
       fill-opacity="0.6"
       id="rect215"
       x="0"
       y="0" />
    <rect
       width="3.3888199"
       height="3.38696"
       transform="matrix(-0.0773747,-1.00943,-0.984235,0.0794247,541.303,948.979)"
       fill="#00fff0"
       id="rect217"
       x="0"
       y="0" />
    <rect
       width="3.7416601"
       height="3.73961"
       transform="matrix(0.0773657,1.00944,-0.984234,0.079434,653.304,708.905)"
       fill="#00fff0"
       id="rect219"
       x="0"
       y="0" />
    <rect
       width="3.9814401"
       height="3.97926"
       transform="matrix(-0.077358,-1.00944,-0.984234,0.0794419,579.483,655.244)"
       fill="#00fff0"
       id="rect221"
       x="0"
       y="0" />
    <rect
       width="3.9814401"
       height="3.97926"
       transform="matrix(-0.0773657,-1.00944,-0.984234,0.079434,292.181,813.058)"
       fill="#00fff0"
       fill-opacity="0.5"
       id="rect223"
       x="0"
       y="0" />
    <rect
       width="2.18259"
       height="2.1814001"
       transform="matrix(-0.0773657,-1.00944,-0.984234,0.079434,394.35,861.23)"
       fill="#00fff0"
       fill-opacity="0.5"
       id="rect225"
       x="0"
       y="0" />
    <rect
       width="3.98035"
       height="3.98035"
       transform="matrix(0.50558,-0.869864,-0.847681,-0.518809,464.929,997.523)"
       fill="#0500ff"
       fill-opacity="0.5"
       id="rect227"
       x="0"
       y="0" />
    <rect
       width="2.7797799"
       height="2.77825"
       transform="matrix(-0.0773657,-1.00944,-0.984234,0.079434,505.117,905.157)"
       fill="#00d1ff"
       fill-opacity="0.6"
       id="rect229"
       x="0"
       y="0" />
    <rect
       width="7.4896002"
       height="7.4854898"
       transform="matrix(-0.0773616,-1.00944,-0.984234,0.0794382,478.194,927.699)"
       fill="#6100ff"
       fill-opacity="0.5"
       id="rect231"
       x="0"
       y="0" />
  </g>
  <path
     d="m 214.16128,595.37518 5.256,-28.06 -26.192,9.71 -5.255,28.07 z"
     fill="url(#paint14_linear_126_1978)"
     id="path235"
     style="fill:url(#paint14_linear_126_1978)" />
  <path
     d="m 193.22528,577.02518 26.192,-9.71 21.174,51.23 z"
     fill="url(#paint15_linear_126_1978)"
     id="path237"
     style="fill:url(#paint15_linear_126_1978)" />
  <path
     d="m 193.22528,577.03518 -5.287,28.05 52.652,13.46 z"
     fill="url(#paint16_linear_126_1978)"
     id="path239"
     style="fill:url(#paint16_linear_126_1978)" />
  <path
     d="m 407.39828,355.57518 3.316,-17.708 -16.526,6.129 -3.316,17.709 z"
     fill="url(#paint17_linear_126_1978)"
     id="path241"
     style="fill:url(#paint17_linear_126_1978)" />
  <path
     d="m 394.18528,343.99418 16.529,-6.13 13.363,32.329 z"
     fill="url(#paint18_linear_126_1978)"
     fill-opacity="0.6"
     id="path243"
     style="fill:url(#paint18_linear_126_1978)" />
  <path
     d="m 394.18628,343.99418 -3.337,17.707 33.229,8.492 z"
     fill="url(#paint19_linear_126_1978)"
     id="path245"
     style="fill:url(#paint19_linear_126_1978)" />
  <path
     d="m 519.19328,214.75018 5.668,-29.238 -27.385,9.95 -5.668,29.239 z"
     fill="url(#paint20_linear_126_1978)"
     id="path247"
     style="fill:url(#paint20_linear_126_1978)" />
  <path
     d="m 497.47628,195.46818 27.385,-9.951 21.748,53.585 z"
     fill="url(#paint21_linear_126_1978)"
     fill-opacity="0.6"
     id="path249"
     style="fill:url(#paint21_linear_126_1978)" />
  <path
     d="m 497.47628,195.46818 -5.701,29.229 54.835,14.405 z"
     fill="url(#paint22_linear_126_1978)"
     id="path251"
     style="fill:url(#paint22_linear_126_1978)" />
  <path
     d="m 378.67228,510.00018 1.668,13.427 -9.729,11.388 -11.861,-1.258 5.046,-15.206 z"
     fill="url(#paint23_linear_126_1978)"
     fill-opacity="0.7"
     id="path253"
     style="fill:url(#paint23_linear_126_1978)" />
  <path
     d="m 412.29528,560.18518 -35.806,-9.9 -16.176,-2.28 z"
     fill="url(#paint24_linear_126_1978)"
     fill-opacity="0.8"
     id="path255"
     style="fill:url(#paint24_linear_126_1978)" />
  <path
     d="m 412.29528,560.18518 -17.297,-31.66 -2.447,-18.482 z"
     fill="url(#paint25_linear_126_1978)"
     id="path257"
     style="fill:url(#paint25_linear_126_1978)" />
  <path
     d="m 392.55328,510.04818 2.442,18.487 -14.656,-5.107 -1.669,-13.43 z"
     fill="url(#paint26_linear_126_1978)"
     fill-opacity="0.6"
     id="path259"
     style="fill:url(#paint26_linear_126_1978)" />
  <path
     d="m 376.49128,550.28518 18.503,-21.754 -14.657,-5.108 -9.726,11.392 z"
     fill="url(#paint27_linear_126_1978)"
     fill-opacity="0.6"
     id="path261"
     style="fill:url(#paint27_linear_126_1978)" />
  <path
     d="m 376.49328,550.28518 -16.178,-2.28 -1.565,-14.45 11.862,1.26 z"
     fill="url(#paint28_linear_126_1978)"
     fill-opacity="0.8"
     id="path263"
     style="fill:url(#paint28_linear_126_1978)" />
  <path
     d="m 412.29528,560.18518 -43.712,-36.683 -8.27,24.503 z"
     fill="url(#paint29_linear_126_1978)"
     id="path265"
     style="fill:url(#paint29_linear_126_1978)" />
  <path
     d="m 412.29528,560.18518 -43.709,-36.684 23.965,-13.46 z"
     fill="url(#paint30_linear_126_1978)"
     id="path267"
     style="fill:url(#paint30_linear_126_1978)" />
  <path
     d="m 360.31428,548.00518 8.269,-24.504 -4.788,-5.153 -5.045,15.213 z"
     fill="url(#paint31_linear_126_1978)"
     fill-opacity="0.6"
     id="path269"
     style="fill:url(#paint31_linear_126_1978)" />
  <path
     d="m 392.55728,510.04818 -23.971,13.456 -4.792,-5.154 14.883,-8.351 z"
     fill="url(#paint32_linear_126_1978)"
     fill-opacity="0.6"
     id="path271"
     style="fill:url(#paint32_linear_126_1978)" />
  <path
     d="m 412.69528,114.74218 -26.694,49.226 41.933,-8.293 z"
     fill="url(#paint33_linear_126_1978)"
     id="path273"
     style="fill:url(#paint33_linear_126_1978)" />
  <path
     d="m 412.69228,114.74318 -26.694,49.225 -77.907,-76.722999 z"
     fill="url(#paint34_linear_126_1978)"
     id="path275"
     style="fill:url(#paint34_linear_126_1978)" />
  <path
     d="m 477.23228,122.16118 -49.319,33.511 -15.22,-40.929 z"
     fill="url(#paint35_linear_126_1978)"
     id="path277"
     style="fill:url(#paint35_linear_126_1978)" />
  <path
     d="m 426.16428,216.33718 1.75,-60.668 49.318,-33.504 27.272,16.251 -7.976,56.434 -42.531,36.702 z"
     fill="url(#paint36_linear_126_1978)"
     fill-opacity="0.5"
     id="path279"
     style="fill:url(#paint36_linear_126_1978)" />
  <path
     d="m 448.87328,199.87218 -47.091,14.686 -15.784,-50.59 26.694,-49.226 50.215,-12.901 12.661,48.806 z"
     fill="url(#paint37_radial_126_1978)"
     fill-opacity="0.5"
     id="path281"
     style="fill:url(#paint37_radial_126_1978)" />
  <path
     d="m 475.56728,150.64518 -26.695,49.226 47.661,-5.022 z"
     fill="url(#paint38_linear_126_1978)"
     id="path283"
     style="fill:url(#paint38_linear_126_1978)" />
  <path
     d="m 475.56728,150.64618 -26.694,49.226 -140.781,-112.628999 z"
     fill="url(#paint39_linear_126_1978)"
     fill-opacity="0.9"
     id="path285"
     style="fill:url(#paint39_linear_126_1978)" />
  <path
     d="m 453.99428,231.55418 -5.121,-31.682 47.66,-5.022 z"
     fill="url(#paint40_linear_126_1978)"
     fill-opacity="0.5"
     id="path287"
     style="fill:url(#paint40_linear_126_1978)" />
  <path
     d="m 504.50428,138.41218 -28.936,12.234 20.963,44.209 z"
     fill="url(#paint41_linear_126_1978)"
     fill-opacity="0.5"
     id="path289"
     style="fill:url(#paint41_linear_126_1978)" />
  <path
     d="m 453.99428,231.55618 -5.121,-31.682 -47.091,14.686 z"
     fill="url(#paint42_linear_126_1978)"
     id="path291"
     style="fill:url(#paint42_linear_126_1978)" />
  <path
     d="m 504.50328,138.41218 -28.936,12.233 -12.661,-48.806 z"
     fill="url(#paint43_linear_126_1978)"
     id="path293"
     style="fill:url(#paint43_linear_126_1978)" />
  <path
     d="m 504.50328,138.41218 -28.936,12.233 -12.661,-48.806 z"
     fill="url(#paint44_linear_126_1978)"
     fill-opacity="0.6"
     id="path295"
     style="fill:url(#paint44_linear_126_1978)" />
  <path
     d="m 308.08928,87.243181 140.784,112.630999 -47.091,14.686 z"
     fill="url(#paint45_linear_126_1978)"
     fill-opacity="0.9"
     id="path297"
     style="fill:url(#paint45_linear_126_1978)" />
  <path
     d="m 308.09028,87.241181 167.481,63.399999 -12.661,-48.806 z"
     fill="url(#paint46_linear_126_1978)"
     fill-opacity="0.9"
     id="path299"
     style="fill:url(#paint46_linear_126_1978)" />
  <defs
     id="defs610">
    <linearGradient
       id="paint0_linear_126_1978"
       x1="162.347"
       y1="772.42401"
       x2="289.09698"
       y2="969.31598"
       gradientUnits="userSpaceOnUse"
       gradientTransform="translate(60.766281,-465.87482)">
      <stop
         stop-color="white"
         id="stop301" />
      <stop
         offset="0.165772"
         stop-color="#71FFF6"
         id="stop303" />
      <stop
         offset="0.552083"
         stop-color="#4F75FF"
         id="stop305" />
      <stop
         offset="1"
         stop-color="#5E64FF"
         stop-opacity="0"
         id="stop307" />
    </linearGradient>
    <radialGradient
       id="paint1_radial_126_1978"
       cx="0"
       cy="0"
       r="1"
       gradientUnits="userSpaceOnUse"
       gradientTransform="matrix(-31.866808,-153.56853,179.00564,-37.145231,295.52928,502.21118)">
      <stop
         offset="0.40625"
         stop-color="#3330B1"
         stop-opacity="0.1"
         id="stop310" />
      <stop
         offset="0.678936"
         stop-color="#58FFFF"
         stop-opacity="0.5"
         id="stop312" />
      <stop
         offset="1"
         stop-color="white"
         id="stop314" />
    </radialGradient>
    <radialGradient
       id="paint2_radial_126_1978"
       cx="0"
       cy="0"
       r="1"
       gradientUnits="userSpaceOnUse"
       gradientTransform="matrix(106.96114,166.95115,-282.97478,181.29437,306.77628,349.29018)">
      <stop
         stop-color="white"
         id="stop317" />
      <stop
         offset="0.298196"
         stop-color="#5EF5FF"
         id="stop319" />
      <stop
         offset="0.538073"
         stop-color="#3432BD"
         id="stop321" />
      <stop
         offset="0.914407"
         stop-color="#171940"
         id="stop323" />
    </radialGradient>
    <linearGradient
       id="paint3_linear_126_1978"
       x1="251.97099"
       y1="802.15198"
       x2="301.86899"
       y2="1015.36"
       gradientUnits="userSpaceOnUse"
       gradientTransform="translate(60.766281,-465.87482)">
      <stop
         stop-color="white"
         id="stop326" />
      <stop
         offset="1"
         stop-color="white"
         stop-opacity="0"
         id="stop328" />
    </linearGradient>
    <linearGradient
       id="paint4_linear_126_1978"
       x1="166.94901"
       y1="795.03003"
       x2="184.55099"
       y2="944.81299"
       gradientUnits="userSpaceOnUse"
       gradientTransform="translate(60.766281,-465.87482)">
      <stop
         stop-color="white"
         id="stop331" />
      <stop
         offset="0.502014"
         stop-color="#4FFFF4"
         stop-opacity="0.1"
         id="stop333" />
      <stop
         offset="1"
         stop-color="#5ECFFF"
         stop-opacity="0.6"
         id="stop335" />
    </linearGradient>
    <linearGradient
       id="paint5_linear_126_1978"
       x1="180.88901"
       y1="729.68201"
       x2="154.86"
       y2="1066.25"
       gradientUnits="userSpaceOnUse">
      <stop
         stop-color="white"
         id="stop338" />
      <stop
         offset="1"
         stop-color="white"
         stop-opacity="0"
         id="stop340" />
    </linearGradient>
    <radialGradient
       id="paint6_radial_126_1978"
       cx="0"
       cy="0"
       r="1"
       gradientUnits="userSpaceOnUse"
       gradientTransform="matrix(26.473931,161.82782,-167.44219,27.392403,213.347,220.853)">
      <stop
         offset="0.0729167"
         stop-color="white"
         id="stop343" />
      <stop
         offset="0.507801"
         stop-color="#C173FF"
         stop-opacity="0.9"
         id="stop345" />
      <stop
         offset="1"
         stop-color="#0E26FF"
         stop-opacity="0"
         id="stop347" />
    </radialGradient>
    <radialGradient
       id="paint7_radial_126_1978"
       cx="0"
       cy="0"
       r="1"
       gradientUnits="userSpaceOnUse"
       gradientTransform="matrix(-148.6356,-178.70854,178.84308,-148.7475,283.825,858.366)">
      <stop
         offset="0.0729167"
         stop-color="#8785FF"
         id="stop350" />
      <stop
         offset="1"
         stop-color="#3E0EFF"
         stop-opacity="0"
         id="stop352" />
    </radialGradient>
    <radialGradient
       id="paint8_radial_126_1978"
       cx="0"
       cy="0"
       r="1"
       gradientUnits="userSpaceOnUse"
       gradientTransform="matrix(-112.13759,-168.62097,293.81769,-195.39686,397.63328,580.95518)">
      <stop
         stop-color="#3330B1"
         id="stop355" />
      <stop
         offset="1"
         stop-color="#0A0926"
         id="stop357" />
    </radialGradient>
    <linearGradient
       id="paint9_linear_126_1978"
       x1="496.20801"
       y1="635.48602"
       x2="214.76199"
       y2="956.57898"
       gradientUnits="userSpaceOnUse"
       gradientTransform="translate(60.766281,-465.87482)">
      <stop
         stop-color="#8FBCFF"
         stop-opacity="0.6"
         id="stop360" />
      <stop
         offset="1"
         stop-color="#8FBCFF"
         stop-opacity="0"
         id="stop362" />
    </linearGradient>
    <linearGradient
       id="paint10_linear_126_1978"
       x1="440.129"
       y1="702.85999"
       x2="75.207199"
       y2="1119.1899"
       gradientUnits="userSpaceOnUse"
       gradientTransform="translate(60.766281,-465.87482)">
      <stop
         stop-color="#8FBCFF"
         stop-opacity="0.6"
         id="stop365" />
      <stop
         offset="1"
         stop-color="#8FBCFF"
         stop-opacity="0"
         id="stop367" />
    </linearGradient>
    <linearGradient
       id="paint11_linear_126_1978"
       x1="570.18799"
       y1="546.612"
       x2="184.401"
       y2="986.74402"
       gradientUnits="userSpaceOnUse"
       gradientTransform="translate(60.766281,-465.87482)">
      <stop
         stop-color="white"
         stop-opacity="0.6"
         id="stop370" />
      <stop
         offset="0.34375"
         stop-color="#8FBCFF"
         stop-opacity="0.6"
         id="stop372" />
      <stop
         offset="1"
         stop-color="#8FBCFF"
         stop-opacity="0"
         id="stop374" />
    </linearGradient>
    <linearGradient
       id="paint12_linear_126_1978"
       x1="227.95399"
       y1="550.784"
       x2="190.69901"
       y2="708.03101"
       gradientUnits="userSpaceOnUse"
       gradientTransform="translate(60.766281,-465.87482)">
      <stop
         stop-color="#FF48D7"
         id="stop377" />
      <stop
         offset="0.234164"
         stop-color="white"
         stop-opacity="0.765836"
         id="stop379" />
      <stop
         offset="1"
         stop-color="#FF48D7"
         stop-opacity="0"
         id="stop381" />
    </linearGradient>
    <linearGradient
       id="paint13_linear_126_1978"
       x1="526.99402"
       y1="598.50403"
       x2="247.692"
       y2="917.15198"
       gradientUnits="userSpaceOnUse"
       gradientTransform="translate(60.766281,-465.87482)">
      <stop
         stop-color="#8FBCFF"
         stop-opacity="0.6"
         id="stop384" />
      <stop
         offset="1"
         stop-color="#8FBCFF"
         stop-opacity="0"
         id="stop386" />
    </linearGradient>
    <linearGradient
       id="paint14_linear_126_1978"
       x1="159.993"
       y1="1050.7"
       x2="125.851"
       y2="1053.3199"
       gradientUnits="userSpaceOnUse"
       gradientTransform="translate(60.766281,-465.87482)">
      <stop
         stop-color="#6083FF"
         id="stop389" />
      <stop
         offset="1"
         stop-color="#0C1E5E"
         stop-opacity="0"
         id="stop391" />
    </linearGradient>
    <linearGradient
       id="paint15_linear_126_1978"
       x1="151.91499"
       y1="1029.53"
       x2="181.12"
       y2="1083.62"
       gradientUnits="userSpaceOnUse"
       gradientTransform="translate(60.766281,-465.87482)">
      <stop
         offset="0.170794"
         stop-color="#3D3BA9"
         id="stop394" />
      <stop
         offset="0.537799"
         stop-color="#FF7BE2"
         stop-opacity="0.8"
         id="stop396" />
      <stop
         offset="0.791667"
         stop-color="white"
         id="stop398" />
    </linearGradient>
    <linearGradient
       id="paint16_linear_126_1978"
       x1="179.638"
       y1="1084.64"
       x2="129.147"
       y2="1068.58"
       gradientUnits="userSpaceOnUse"
       gradientTransform="translate(60.766281,-465.87482)">
      <stop
         stop-color="#3DDCFF"
         id="stop401" />
      <stop
         offset="0.427083"
         stop-color="#9D50FF"
         stop-opacity="0"
         id="stop403" />
      <stop
         offset="0.977116"
         stop-color="#3DDCFF"
         id="stop405" />
    </linearGradient>
    <linearGradient
       id="paint17_linear_126_1978"
       x1="350.79501"
       y1="814.79199"
       x2="329.25201"
       y2="816.44299"
       gradientUnits="userSpaceOnUse"
       gradientTransform="translate(60.766281,-465.87482)">
      <stop
         stop-color="#6083FF"
         id="stop408" />
      <stop
         offset="1"
         stop-color="#0C1E5E"
         stop-opacity="0"
         id="stop410" />
    </linearGradient>
    <linearGradient
       id="paint18_linear_126_1978"
       x1="345.69699"
       y1="801.43103"
       x2="364.12799"
       y2="835.56702"
       gradientUnits="userSpaceOnUse"
       gradientTransform="translate(60.766281,-465.87482)">
      <stop
         offset="0.170794"
         stop-color="#3D3BA9"
         id="stop413" />
      <stop
         offset="0.537799"
         stop-color="#FF7BE2"
         stop-opacity="0.8"
         id="stop415" />
      <stop
         offset="0.791667"
         stop-color="white"
         id="stop417" />
    </linearGradient>
    <linearGradient
       id="paint19_linear_126_1978"
       x1="363.19501"
       y1="836.20898"
       x2="331.32999"
       y2="826.07397"
       gradientUnits="userSpaceOnUse"
       gradientTransform="translate(60.766281,-465.87482)">
      <stop
         stop-color="#3DDCFF"
         id="stop420" />
      <stop
         offset="0.427083"
         stop-color="#9D50FF"
         stop-opacity="0.5"
         id="stop422" />
      <stop
         offset="0.977116"
         stop-color="#3DDCFF"
         id="stop424" />
    </linearGradient>
    <linearGradient
       id="paint20_linear_126_1978"
       x1="465.38"
       y1="669.664"
       x2="429.74899"
       y2="672.16699"
       gradientUnits="userSpaceOnUse"
       gradientTransform="translate(60.766281,-465.87482)">
      <stop
         stop-color="#6083FF"
         id="stop427" />
      <stop
         offset="1"
         stop-color="#0C1E5E"
         stop-opacity="0"
         id="stop429" />
    </linearGradient>
    <linearGradient
       id="paint21_linear_126_1978"
       x1="457.09299"
       y1="647.53003"
       x2="487.189"
       y2="704.16302"
       gradientUnits="userSpaceOnUse"
       gradientTransform="translate(60.766281,-465.87482)">
      <stop
         offset="0.170794"
         stop-color="#3D3BA9"
         id="stop432" />
      <stop
         offset="0.537799"
         stop-color="#FF7BE2"
         stop-opacity="0.8"
         id="stop434" />
      <stop
         offset="0.791667"
         stop-color="white"
         id="stop436" />
    </linearGradient>
    <linearGradient
       id="paint22_linear_126_1978"
       x1="485.64801"
       y1="705.20801"
       x2="433.08099"
       y2="688.11798"
       gradientUnits="userSpaceOnUse"
       gradientTransform="translate(60.766281,-465.87482)">
      <stop
         stop-color="#3DDCFF"
         id="stop439" />
      <stop
         offset="0.427083"
         stop-color="#9D50FF"
         stop-opacity="0.5"
         id="stop441" />
      <stop
         offset="0.977116"
         stop-color="#3DDCFF"
         id="stop443" />
    </linearGradient>
    <linearGradient
       id="paint23_linear_126_1978"
       x1="324.18701"
       y1="984.94897"
       x2="301.11301"
       y2="986.31598"
       gradientUnits="userSpaceOnUse"
       gradientTransform="translate(60.766281,-465.87482)">
      <stop
         stop-color="#6587FF"
         id="stop446" />
      <stop
         offset="1"
         stop-color="#D8E0FF"
         stop-opacity="0.9"
         id="stop448" />
    </linearGradient>
    <linearGradient
       id="paint24_linear_126_1978"
       x1="319.004"
       y1="997.54797"
       x2="301.10101"
       y2="1028.4"
       gradientUnits="userSpaceOnUse"
       gradientTransform="translate(60.766281,-465.87482)">
      <stop
         offset="0.135417"
         stop-color="white"
         id="stop451" />
      <stop
         offset="0.28125"
         stop-color="#89F8FF"
         stop-opacity="0.934673"
         id="stop453" />
      <stop
         offset="0.645833"
         stop-color="#71F6FF"
         stop-opacity="0.921354"
         id="stop455" />
      <stop
         offset="1"
         stop-color="#4A72FF"
         stop-opacity="0.9"
         id="stop457" />
    </linearGradient>
    <linearGradient
       id="paint25_linear_126_1978"
       x1="351.396"
       y1="990.50299"
       x2="335.16199"
       y2="1017.1"
       gradientUnits="userSpaceOnUse"
       gradientTransform="translate(60.766281,-465.87482)">
      <stop
         offset="0.170794"
         stop-color="#3D3BA9"
         id="stop460" />
      <stop
         offset="0.537799"
         stop-color="#FF7BE2"
         stop-opacity="0.8"
         id="stop462" />
      <stop
         offset="0.791667"
         stop-color="white"
         id="stop464" />
    </linearGradient>
    <linearGradient
       id="paint26_linear_126_1978"
       x1="325.422"
       y1="970.34399"
       x2="317.14801"
       y2="988.65503"
       gradientUnits="userSpaceOnUse"
       gradientTransform="translate(60.766281,-465.87482)">
      <stop
         offset="0.135417"
         stop-color="white"
         id="stop467" />
      <stop
         offset="0.28125"
         stop-color="#89F8FF"
         stop-opacity="0.934673"
         id="stop469" />
      <stop
         offset="0.645833"
         stop-color="#71F6FF"
         stop-opacity="0.921354"
         id="stop471" />
      <stop
         offset="1"
         stop-color="#4A72FF"
         stop-opacity="0.9"
         id="stop473" />
    </linearGradient>
    <linearGradient
       id="paint27_linear_126_1978"
       x1="328.46399"
       y1="989.354"
       x2="335.517"
       y2="1009"
       gradientUnits="userSpaceOnUse"
       gradientTransform="translate(60.766281,-465.87482)">
      <stop
         offset="0.135417"
         stop-color="white"
         id="stop476" />
      <stop
         offset="0.28125"
         stop-color="#89F8FF"
         stop-opacity="0.934673"
         id="stop478" />
      <stop
         offset="0.645833"
         stop-color="#71F6FF"
         stop-opacity="0.921354"
         id="stop480" />
      <stop
         offset="1"
         stop-color="#4A72FF"
         stop-opacity="0.9"
         id="stop482" />
    </linearGradient>
    <linearGradient
       id="paint28_linear_126_1978"
       x1="300.41699"
       y1="999.79401"
       x2="292.99701"
       y2="1013.7"
       gradientUnits="userSpaceOnUse"
       gradientTransform="translate(60.766281,-465.87482)">
      <stop
         offset="0.135417"
         stop-color="white"
         id="stop485" />
      <stop
         offset="0.28125"
         stop-color="#89F8FF"
         stop-opacity="0.934673"
         id="stop487" />
      <stop
         offset="0.645833"
         stop-color="#71F6FF"
         stop-opacity="0.921354"
         id="stop489" />
      <stop
         offset="1"
         stop-color="#4A72FF"
         stop-opacity="0.9"
         id="stop491" />
    </linearGradient>
    <linearGradient
       id="paint29_linear_126_1978"
       x1="335.21899"
       y1="1045.3"
       x2="325.94699"
       y2="996.18701"
       gradientUnits="userSpaceOnUse"
       gradientTransform="translate(60.766281,-465.87482)">
      <stop
         stop-color="#3DDCFF"
         id="stop494" />
      <stop
         offset="0.427083"
         stop-color="#9D50FF"
         stop-opacity="0"
         id="stop496" />
      <stop
         offset="0.977116"
         stop-color="#3DDCFF"
         id="stop498" />
    </linearGradient>
    <linearGradient
       id="paint30_linear_126_1978"
       x1="313.79901"
       y1="970.33502"
       x2="317.42099"
       y2="1040.36"
       gradientUnits="userSpaceOnUse"
       gradientTransform="translate(60.766281,-465.87482)">
      <stop
         offset="0.170794"
         stop-color="#3D3BA9"
         id="stop501" />
      <stop
         offset="0.537799"
         stop-color="#FF7BE2"
         stop-opacity="0.8"
         id="stop503" />
      <stop
         offset="0.791667"
         stop-color="white"
         id="stop505" />
    </linearGradient>
    <linearGradient
       id="paint31_linear_126_1978"
       x1="301.22101"
       y1="983.59399"
       x2="296.354"
       y2="1012.89"
       gradientUnits="userSpaceOnUse"
       gradientTransform="translate(60.766281,-465.87482)">
      <stop
         offset="0.135417"
         stop-color="white"
         id="stop508" />
      <stop
         offset="0.28125"
         stop-color="#89F8FF"
         stop-opacity="0.934673"
         id="stop510" />
      <stop
         offset="0.645833"
         stop-color="#71F6FF"
         stop-opacity="0.921354"
         id="stop512" />
      <stop
         offset="1"
         stop-color="#4A72FF"
         stop-opacity="0.9"
         id="stop514" />
    </linearGradient>
    <linearGradient
       id="paint32_linear_126_1978"
       x1="323.49799"
       y1="985.88702"
       x2="308.16"
       y2="973.12"
       gradientUnits="userSpaceOnUse"
       gradientTransform="translate(60.766281,-465.87482)">
      <stop
         stop-color="#3E5ABE"
         id="stop517" />
      <stop
         offset="1"
         stop-color="#3E5ABE"
         stop-opacity="0"
         id="stop519" />
    </linearGradient>
    <linearGradient
       id="paint33_linear_126_1978"
       x1="390.12"
       y1="666.89502"
       x2="430.57999"
       y2="610.784"
       gradientUnits="userSpaceOnUse"
       gradientTransform="translate(60.766281,-465.87482)">
      <stop
         stop-color="white"
         id="stop522" />
      <stop
         offset="0.227296"
         stop-color="#47FFDE"
         stop-opacity="0.8"
         id="stop524" />
      <stop
         offset="1"
         stop-color="#6D61FF"
         stop-opacity="0.5"
         id="stop526" />
    </linearGradient>
    <linearGradient
       id="paint34_linear_126_1978"
       x1="390.11899"
       y1="666.89801"
       x2="430.57901"
       y2="610.78699"
       gradientUnits="userSpaceOnUse"
       gradientTransform="translate(60.766281,-465.87482)">
      <stop
         stop-color="white"
         id="stop529" />
      <stop
         offset="0.227296"
         stop-color="#47FFDE"
         stop-opacity="0.8"
         id="stop531" />
      <stop
         offset="1"
         stop-color="#6D61FF"
         stop-opacity="0.5"
         id="stop533" />
    </linearGradient>
    <linearGradient
       id="paint35_linear_126_1978"
       x1="404.89301"
       y1="569.28699"
       x2="384.58801"
       y2="609.40198"
       gradientUnits="userSpaceOnUse"
       gradientTransform="translate(60.766281,-465.87482)">
      <stop
         stop-color="white"
         id="stop536" />
      <stop
         offset="0.227296"
         stop-color="#47FFDE"
         stop-opacity="0.8"
         id="stop538" />
      <stop
         offset="1"
         stop-color="#6D61FF"
         stop-opacity="0.5"
         id="stop540" />
    </linearGradient>
    <linearGradient
       id="paint36_linear_126_1978"
       x1="350.655"
       y1="612.12598"
       x2="453.479"
       y2="667.88599"
       gradientUnits="userSpaceOnUse"
       gradientTransform="translate(60.766281,-465.87482)">
      <stop
         stop-color="#6D61FF"
         id="stop543" />
      <stop
         offset="1"
         stop-color="#47FFDE"
         id="stop545" />
    </linearGradient>
    <radialGradient
       id="paint37_radial_126_1978"
       cx="0"
       cy="0"
       r="1"
       gradientUnits="userSpaceOnUse"
       gradientTransform="matrix(45.255098,-83.452654,47.112134,25.54819,430.78328,157.30718)">
      <stop
         stop-color="#6D61FF"
         id="stop548" />
      <stop
         offset="1"
         stop-color="#47FFDE"
         id="stop550" />
    </radialGradient>
    <linearGradient
       id="paint38_linear_126_1978"
       x1="390.11899"
       y1="666.89502"
       x2="430.57999"
       y2="610.78497"
       gradientUnits="userSpaceOnUse"
       gradientTransform="translate(60.766281,-465.87482)">
      <stop
         stop-color="white"
         id="stop553" />
      <stop
         offset="0.227296"
         stop-color="#47FFDE"
         stop-opacity="0.8"
         id="stop555" />
      <stop
         offset="1"
         stop-color="#6D61FF"
         stop-opacity="0.5"
         id="stop557" />
    </linearGradient>
    <linearGradient
       id="paint39_linear_126_1978"
       x1="405.086"
       y1="664.05298"
       x2="323.495"
       y2="705.02197"
       gradientUnits="userSpaceOnUse"
       gradientTransform="translate(60.766281,-465.87482)">
      <stop
         offset="0.0729167"
         stop-color="#4B86FA"
         stop-opacity="0.8"
         id="stop560" />
      <stop
         offset="0.791667"
         stop-color="#FCA6EF"
         stop-opacity="0.8"
         id="stop562" />
      <stop
         offset="1"
         stop-color="white"
         id="stop564" />
    </linearGradient>
    <linearGradient
       id="paint40_linear_126_1978"
       x1="388.827"
       y1="664.41803"
       x2="438.819"
       y2="662.25403"
       gradientUnits="userSpaceOnUse"
       gradientTransform="translate(60.766281,-465.87482)">
      <stop
         stop-color="#7BFFE7"
         stop-opacity="0.8"
         id="stop567" />
      <stop
         offset="1"
         stop-color="#322994"
         stop-opacity="0.5"
         id="stop569" />
    </linearGradient>
    <linearGradient
       id="paint41_linear_126_1978"
       x1="414.08099"
       y1="617.84998"
       x2="447.29999"
       y2="612.245"
       gradientUnits="userSpaceOnUse"
       gradientTransform="translate(60.766281,-465.87482)">
      <stop
         stop-color="#7BFFE7"
         stop-opacity="0.9"
         id="stop572" />
      <stop
         offset="1"
         stop-color="#322994"
         stop-opacity="0.5"
         id="stop574" />
    </linearGradient>
    <linearGradient
       id="paint42_linear_126_1978"
       x1="343.767"
       y1="682.00598"
       x2="404.237"
       y2="660.39001"
       gradientUnits="userSpaceOnUse"
       gradientTransform="translate(60.766281,-465.87482)">
      <stop
         stop-color="white"
         id="stop577" />
      <stop
         offset="0.586705"
         stop-color="#47FFDE"
         stop-opacity="0.9"
         id="stop579" />
      <stop
         offset="1"
         stop-color="#6D61FF"
         stop-opacity="0.5"
         id="stop581" />
    </linearGradient>
    <linearGradient
       id="paint43_linear_126_1978"
       x1="441.84799"
       y1="604.401"
       x2="411.08899"
       y2="621.70697"
       gradientUnits="userSpaceOnUse"
       gradientTransform="translate(60.766281,-465.87482)">
      <stop
         stop-color="#0A3892"
         id="stop584" />
      <stop
         offset="0.536458"
         stop-color="#29B2ED"
         stop-opacity="0.8"
         id="stop586" />
      <stop
         offset="0.967948"
         stop-color="white"
         id="stop588" />
    </linearGradient>
    <linearGradient
       id="paint44_linear_126_1978"
       x1="421.48801"
       y1="622.453"
       x2="423.42899"
       y2="589.81201"
       gradientUnits="userSpaceOnUse"
       gradientTransform="translate(60.766281,-465.87482)">
      <stop
         stop-color="#FF439D"
         id="stop591" />
      <stop
         offset="1"
         stop-color="#FF43D6"
         stop-opacity="0"
         id="stop593" />
    </linearGradient>
    <linearGradient
       id="paint45_linear_126_1978"
       x1="265.78201"
       y1="604.72601"
       x2="304.17599"
       y2="568.789"
       gradientUnits="userSpaceOnUse"
       gradientTransform="translate(60.766281,-465.87482)">
      <stop
         offset="0.0729167"
         stop-color="#4B86FA"
         stop-opacity="0.8"
         id="stop596" />
      <stop
         offset="0.791667"
         stop-color="#FCA6EF"
         stop-opacity="0.8"
         id="stop598" />
      <stop
         offset="1"
         stop-color="white"
         id="stop600" />
    </linearGradient>
    <linearGradient
       id="paint46_linear_126_1978"
       x1="550.539"
       y1="592.36499"
       x2="477.211"
       y2="441.48901"
       gradientUnits="userSpaceOnUse"
       gradientTransform="translate(60.766281,-465.87482)">
      <stop
         offset="0.0729167"
         stop-color="#4B86FA"
         stop-opacity="0.8"
         id="stop603" />
      <stop
         offset="0.791667"
         stop-color="#FCA6EF"
         stop-opacity="0.8"
         id="stop605" />
      <stop
         offset="1"
         stop-color="white"
         id="stop607" />
    </linearGradient>
  </defs>
</svg>
